<?xml version="1.0" encoding="UTF-8"?>
<svg id="Capa_2" data-name="Capa 2" xmlns="http://www.w3.org/2000/svg" xmlns:xlink="http://www.w3.org/1999/xlink" viewBox="0 0 221.11 45.57">
  <defs>
    <style>
      .cls-1 {
        fill: #009fe3;
      }

      .cls-2, .cls-3 {
        fill: none;
      }

      .cls-4 {
        clip-path: url(#clippath-1);
      }

      .cls-5 {
        fill: #f39200;
      }

      .cls-6 {
        clip-path: url(#clippath-3);
      }

      .cls-7 {
        fill: #e6007e;
      }

      .cls-8 {
        fill: #9898fd;
      }

      .cls-9 {
        clip-path: url(#clippath-2);
      }

      .cls-10 {
        clip-path: url(#clippath);
      }

      .cls-3 {
        stroke: #9898fd;
        stroke-miterlimit: 10;
        stroke-width: 2px;
      }
    </style>
    <clipPath id="clippath">
      <rect class="cls-2" y=".39" width="48.21" height="44.8"/>
    </clipPath>
    <clipPath id="clippath-1">
      <rect class="cls-2" x="170.68" y=".08" width="50.43" height="45.49"/>
    </clipPath>
    <clipPath id="clippath-2">
      <rect class="cls-2" x="58.44" y=".48" width="48.21" height="44.8"/>
    </clipPath>
    <clipPath id="clippath-3">
      <rect class="cls-2" x="58.44" y=".48" width="48.21" height="44.8"/>
    </clipPath>
  </defs>
  <g id="Capa_1-2" data-name="Capa 1">
    <g>
      <rect class="cls-3" x="116.88" y="1" width="43.57" height="43.57"/>
      <g>
        <path class="cls-8" d="M136.41,32.49c-.08-.02-.21-.15-.24-.24l-1.53-4.47h-7.13s-1.44,4.47-1.44,4.47c-.01.07-.21.3-.24.3h-3.88s-.07-.07-.08-.1c-.05-.17.27-1.01.35-1.25,1.91-5.76,4.09-11.43,5.99-17.19l.17-1.47h5.1s.2.09.2.09l6.96,19.4c.06.09.07.47-.05.47h-4.18ZM128.68,23.95h4.78l-2.42-7.95-2.36,7.95Z"/>
        <path class="cls-8" d="M154.19,31.81c-.07.46-.7.59-1.09.7-2.16.64-5.29.71-7.38-.18-6.59-2.82-5.09-14.73,2.4-15.19,5.14-.32,7.6,2.88,7.33,7.8-.01.2-.06.8-.14.94-.05.09-.09.15-.2.16l-1.74.11c-2.49-.23-5-.06-7.49-.11.07.56.24,1.11.53,1.59,1.37,2.35,5.4,1.88,7.57,1.1.06-.03.2.04.2.09v2.99ZM145.89,23.23h5.29s.24-.09.26-.16c.1-1.41-1.02-2.58-2.41-2.65-1.79-.1-2.92,1.11-3.14,2.81Z"/>
      </g>
    </g>
    <g>
      <path class="cls-1" d="M2.29,2.49h43.75v40.68H2.29V2.49ZM0,45.18h48.21V.39H0v44.8Z"/>
      <g class="cls-10">
        <g>
          <path class="cls-1" d="M16.28,18.84v2.82c0,.22-.01.44.32.44,1.03-.03,2.08.06,3.09-.12,1.36-.24,2.33-1.03,2.65-2.39.49-2.1-.54-3.67-2.76-4.01-.94-.14-1.93-.01-2.89-.02-.35,0-.41.17-.41.46.02.94,0,1.88,0,2.82M16.29,24.81v7.07h-3.58V13.18c.73-.09,1.47-.24,2.21-.25,1.87-.02,3.74-.09,5.6.06,1.78.15,3.38.82,4.49,2.28,1,1.32,1.2,2.8.98,4.35-.37,2.67-2.13,4.17-4.73,4.87-1.49.4-3.01.51-4.55.34-.12-.01-.23-.01-.42-.02"/>
          <path class="cls-1" d="M27.2,28.75c1.1.55,2.21.9,3.4.96.48.02.99-.03,1.46-.14.59-.14,1.03-.49,1.13-1.12.1-.68-.14-1.24-.77-1.56-.77-.37-1.58-.66-2.37-.99-.98-.4-1.89-.92-2.51-1.76-1.32-1.78-.57-4.38,1.55-5.49,1.59-.83,3.27-.9,5-.58.69.13,1.36.37,2.08.57-.26.89-.49,1.68-.69,2.39-.92-.22-1.78-.48-2.66-.61-.45-.07-.94.03-1.4.13-.6.13-.95.54-1.02,1.14-.06.58.19,1.04.72,1.28.79.37,1.62.67,2.42,1,1.14.48,2.2,1.06,2.77,2.18,1.19,2.33-.02,4.89-2.74,5.7-2.26.67-4.49.49-6.66-.41-.3-.12-.4-.26-.3-.58.22-.68.4-1.36.62-2.11"/>
        </g>
      </g>
    </g>
    <g>
      <path class="cls-7" d="M173.14,2.23h45.72v41.3h-45.72V2.23ZM170.68,45.57h50.43V.08h-50.43v45.49Z"/>
      <g class="cls-4">
        <g>
          <path class="cls-7" d="M202.62,25.03h-.07c0-.44.02-.88,0-1.32-.09-1.62-1.18-2.87-2.68-3.1-1.47-.22-2.75.52-3.42,2.08-.71,1.64-.7,3.32-.02,4.96.54,1.3,1.81,2.03,3.17,1.94,1.32-.09,2.41-.95,2.74-2.31.19-.73.2-1.5.28-2.25M205.97,32.11h-2.97c-.04-.66-.07-1.3-.12-2.01-.15.07-.24.09-.28.15-2.09,2.75-5.86,2.96-8.26.46-2.68-2.77-2.54-8.49.21-11.2,1.91-1.88,5.7-2.44,7.98.12v-7.79h3.44v20.28Z"/>
          <path class="cls-7" d="M185.69,12.82h3.18c.16,0,.3.02.5.04v19.2h-3.68s0-19.24,0-19.24Z"/>
        </g>
      </g>
    </g>
    <g>
      <path class="cls-5" d="M60.66,2.56h43.88v40.86h-43.88V2.56ZM58.44,45.28h48.21V.48h-48.21v44.8Z"/>
      <g class="cls-9">
        <path class="cls-5" d="M79.11,16c-.86,2.8-1.66,5.39-2.48,8.04h5.04c-.85-2.68-1.68-5.27-2.56-8.04M74.24,32.08h-3.7c2.15-6.4,4.26-12.69,6.35-18.93.16-.05.21-.08.25-.08,2.89-.17,4.79,1.07,5.68,3.72,1.56,4.61,3.14,9.2,4.71,13.81.15.43.27.87.47,1.52-1.17,0-2.22.07-3.25-.04-.33-.03-.74-.5-.88-.85-.46-1.16-.83-2.36-1.19-3.55-.21-.7-.52-1.08-1.4-1.04-1.4.08-2.81.07-4.22,0-.83-.04-1.2.24-1.42,1-.41,1.47-.92,2.91-1.42,4.44"/>
      </g>
      <rect class="cls-5" x="89.61" y="18.38" width="3.45" height="13.71"/>
      <g class="cls-6">
        <path class="cls-5" d="M91.37,12.66c1.21.03,2.01.81,1.96,1.92-.04,1.05-.97,1.85-2.13,1.76-1.17-.09-1.85-.71-1.87-1.86-.02-1.1.83-1.85,2.04-1.82"/>
      </g>
    </g>
  </g>
</svg>