<?xml version="1.0" encoding="UTF-8"?>
<svg id="Capa_2" data-name="Capa 2" xmlns="http://www.w3.org/2000/svg" viewBox="0 0 182.75 20.99">
  <defs>
    <style>
      .cls-1 {
        fill: #74bc20;
      }
    </style>
  </defs>
  <g id="Capa_1-2" data-name="Capa 1">
    <g>
      <path class="cls-1" d="M4.7,20.86c-1.89,0-3.39-.7-4.1-.93l-.61-3.81h.77c.51,2.14,1.6,3.2,3.46,3.2,1.63,0,2.69-.74,2.69-2.11,0-1.25-1.22-2.08-3.62-3.33-1.86-.99-3.04-2.56-3.04-4.22,0-2.34,1.79-3.9,4.54-3.9,1.73,0,2.62.67,4.13.58l.48,3.26h-.64c-.83-1.89-2.18-2.34-3.39-2.34-1.28,0-2.08.74-2.08,1.79s1.57,1.73,2.78,2.4c2.72,1.5,4.06,2.78,4.06,5.18,0,2.02-2.24,4.22-5.44,4.22Z"/>
      <path class="cls-1" d="M30.62,6.82c-.13,0-.19,0-.35.03-1.57.16-1.76.61-1.76,1.89v.35c0,5.31-2.62,9.6-6.59,11.9-3.9-2.3-6.5-6.62-6.5-11.9v-.35c0-1.28-.19-1.73-1.76-1.89-.16-.03-.22-.03-.35-.03l-.03-.74.45.03c1.12.1,1.57.16,2.18.16h2.5c.61,0,1.06-.06,2.18-.16l.45-.03-.03.74c-.13,0-.19,0-.35.03-1.5.16-1.73.58-1.76,1.73.03,6.75,1.15,8.93,3.07,10.37,1.92-1.44,3.07-3.62,3.1-10.37-.03-1.15-.26-1.57-1.76-1.73-.16-.03-.22-.03-.35-.03l-.03-.74.45.03c1.12.1,1.57.16,2.18.16h2.5c.61,0,1.06-.06,2.18-.16l.45-.03-.03.74Z"/>
      <path class="cls-1" d="M38.5,20.86c-1.89,0-3.39-.7-4.1-.93l-.61-3.81h.77c.51,2.14,1.6,3.2,3.46,3.2,1.63,0,2.69-.74,2.69-2.11,0-1.25-1.22-2.08-3.62-3.33-1.86-.99-3.04-2.56-3.04-4.22,0-2.34,1.79-3.9,4.54-3.9,1.73,0,2.62.67,4.13.58l.48,3.26h-.64c-.83-1.89-2.18-2.34-3.39-2.34-1.28,0-2.08.74-2.08,1.79s1.57,1.73,2.78,2.4c2.72,1.5,4.06,2.78,4.06,5.18,0,2.02-2.24,4.22-5.44,4.22Z"/>
      <path class="cls-1" d="M60.77,9.22h-.58c.19-.7.06-1.02-.86-1.02h-3.42v9.7c0,1.28.19,1.73,1.76,1.89.16.03.22.03.35.03l.03.74-.45-.03c-1.12-.1-1.57-.16-2.18-.16h-2.5c-.61,0-1.06.06-2.18.16l-.45.03.03-.74c.13,0,.19,0,.35-.03,1.57-.16,1.76-.61,1.76-1.89v-9.7h-3.78c-.83,0-1.28.13-1.89,1.41h-.61l1.31-4.35h.61c-.19.7-.06,1.02.86,1.02h3.49v-1.5c0-1.28-.19-1.73-1.76-1.89-.16-.03-.22-.03-.35-.03l-.03-.74.45.03c1.12.1,1.57.16,2.18.16h2.5c.61,0,1.06-.06,2.18-.16l.45-.03-.03.74c-.13,0-.19,0-.35.03-1.57.16-1.76.61-1.76,1.89v1.5h3.71c.83,0,1.25-.13,1.86-1.41h.67l-1.38,4.35Z"/>
      <path class="cls-1" d="M79.58,20.51c-1.12-.1-1.57-.16-2.18-.16h-2.5c-.61,0-1.06.06-2.18.16l-.45.03.03-.74c.13,0,.19,0,.35-.03,1.5-.16,1.73-.58,1.76-1.73,0-.61,0-1.18-.03-1.73h-6.11c-.03.54-.03,1.12-.03,1.73.03,1.15.26,1.57,1.76,1.73.16.03.22.03.35.03l.03.74-.45-.03c-1.12-.1-1.57-.16-2.18-.16h-2.5c-.61,0-1.06.06-2.18.16l-.45.03.03-.74c.13,0,.19,0,.35-.03,1.57-.16,1.76-.61,1.76-1.89v-.35c0-5.28,2.59-9.6,6.5-11.9,3.97,2.3,6.59,6.59,6.59,11.9v.35c0,1.28.19,1.73,1.76,1.89.16.03.22.03.35.03l.03.74-.45-.03ZM71.33,7.68c-1.6,1.18-2.62,2.88-2.98,7.26h5.95c-.32-4.38-1.38-6.08-2.98-7.26Z"/>
      <path class="cls-1" d="M90.88,20.51c-1.12-.1-1.57-.16-2.18-.16h-2.5c-.61,0-1.06.06-2.18.16l-.45.03.03-.74c.13,0,.19,0,.35-.03,1.57-.16,1.76-.61,1.76-1.89v-9.15c0-1.28-.19-1.73-1.76-1.89-.16-.03-.22-.03-.35-.03l-.03-.74.45.03c1.12.1,1.57.16,2.18.16h2.5c.61,0,1.06-.06,2.18-.16l.45-.03-.03.74c-.13,0-.19,0-.35.03-1.57.16-1.76.61-1.76,1.89v9.15c0,1.28.19,1.73,1.76,1.89.16.03.22.03.35.03l.03.74-.45-.03ZM87.68,4.61h-.32c-.45-1.02-1.12-1.7-2.14-2.14v-.32c1.02-.45,1.7-1.12,2.14-2.14h.32c.45,1.02,1.12,1.7,2.14,2.14v.32c-1.02.45-1.7,1.12-2.14,2.14Z"/>
      <path class="cls-1" d="M111.97,20.51c-1.12-.1-1.57-.16-2.18-.16h-2.5c-.61,0-1.06.06-2.18.16l-.45.03.03-.74c.13,0,.19,0,.35-.03,1.57-.16,1.76-.61,1.76-1.89v-9.54h-5.44v9.54c0,1.28.19,1.73,1.76,1.89.16.03.22.03.35.03l.03.74-.45-.03c-1.12-.1-1.57-.16-2.18-.16h-2.5c-.61,0-1.06.06-2.18.16l-.45.03.03-.74c.13,0,.19,0,.35-.03,1.57-.16,1.76-.61,1.76-1.89v-9.15c0-1.28-.19-1.73-1.76-1.89-.16-.03-.22-.03-.35-.03l-.03-.74.45.03c1.12.1,1.57.16,2.18.16h11.39c.61,0,1.06-.06,2.18-.16l.45-.03-.03.74c-.13,0-.19,0-.35.03-1.57.16-1.76.61-1.76,1.89v9.15c0,1.28.19,1.73,1.76,1.89.16.03.22.03.35.03l.03.74-.45-.03Z"/>
      <path class="cls-1" d="M132.61,20.51c-1.12-.1-1.57-.16-2.18-.16h-2.5c-.61,0-1.06.06-2.18.16l-.45.03.03-.74c.13,0,.19,0,.35-.03,1.5-.16,1.73-.58,1.76-1.73,0-.61,0-1.18-.03-1.73h-6.11c-.03.54-.03,1.12-.03,1.73.03,1.15.26,1.57,1.76,1.73.16.03.22.03.35.03l.03.74-.45-.03c-1.12-.1-1.57-.16-2.18-.16h-2.5c-.61,0-1.06.06-2.18.16l-.45.03.03-.74c.13,0,.19,0,.35-.03,1.57-.16,1.76-.61,1.76-1.89v-.35c0-5.28,2.59-9.6,6.5-11.9,3.97,2.3,6.59,6.59,6.59,11.9v.35c0,1.28.19,1.73,1.76,1.89.16.03.22.03.35.03l.03.74-.45-.03ZM124.35,7.68c-1.6,1.18-2.62,2.88-2.98,7.26h5.95c-.32-4.38-1.38-6.08-2.98-7.26Z"/>
      <path class="cls-1" d="M144.41,20.42c-2.05,0-5.47-.06-5.47-.06-.61,0-1.06.06-2.18.16l-.45.03.03-.74c.13,0,.19,0,.35-.03,1.57-.16,1.76-.61,1.76-1.89v-9.15c0-1.28-.19-1.73-1.76-1.89-.16-.03-.22-.03-.35-.03l-.03-.7h8.03c2.72,0,4.74,1.28,4.74,3.23,0,1.22-.83,2.37-2.14,2.91,2.02.74,3.2,2.05,3.2,3.81,0,2.11-1.54,4.35-5.73,4.35ZM142.85,7.49c-.22,0-.74.03-.93.06v4.06h1.73c1.28,0,1.86-.99,1.86-1.86,0-1.47-.8-2.27-2.66-2.27ZM143.74,13.15h-1.82v3.58c0,2.08.26,2.18,1.82,2.18s2.66-1.22,2.66-2.91c0-1.57-1.02-2.85-2.66-2.85Z"/>
      <path class="cls-1" d="M165.92,20.48s-4.61-.13-6.46-.13h-2.53c-.61,0-1.06.06-2.18.16l-.45.03.03-.74c.13,0,.19,0,.35-.03,1.57-.16,1.76-.61,1.76-1.89v-9.15c0-1.28-.19-1.73-1.76-1.89-.16-.03-.22-.03-.35-.03l-.03-.74.45.03c1.12.1,1.57.16,2.18.16h2.5c.61,0,1.06-.06,2.18-.16l.45-.03-.03.74c-.13,0-.19,0-.35.03-1.57.16-1.76.61-1.76,1.89v8.54c0,1.15.06,1.22,1.09,1.22h2.14c1.66,0,1.92-.1,3.04-1.5l.77-.96h.9c-1.25,1.63-1.7,3.62-1.92,4.45Z"/>
      <path class="cls-1" d="M181.57,20.45s-2.21-.06-3.62-.1h-5.25c-.61,0-1.06.06-2.18.16l-.45.03.03-.74c.13,0,.19,0,.35-.03,1.57-.16,1.76-.61,1.76-1.89v-9.15c0-1.28-.19-1.73-1.76-1.89-.16-.03-.22-.03-.35-.03l-.03-.74.45.03c1.12.1,1.57.16,2.18.16h8.86l.48,3.52-.67-.03c-.38-1.47-.58-1.57-1.92-1.6l-3.78-.06v3.65h5.18v1.73h-5.18v3.81c0,1.15.06,1.22,1.09,1.22h2.21c1.7,0,2.02-.48,2.94-1.82l.83-.06c-.96,1.6-.96,2.98-1.18,3.84Z"/>
    </g>
  </g>
</svg>