<?xml version="1.0" encoding="UTF-8"?>
<svg id="Capa_2" data-name="Capa 2" xmlns="http://www.w3.org/2000/svg" viewBox="0 0 152.96 21.57">
  <defs>
    <style>
      .cls-1 {
        fill: #ff6700;
      }
    </style>
  </defs>
  <g id="Capa_1-2" data-name="Capa 1">
    <g>
      <path class="cls-1" d="M14.59,7.1h-.58c.19-.7.06-1.02-.86-1.02h-3.42v9.7c0,1.28.19,1.73,1.76,1.89.16.03.22.03.35.03l.03.74-.45-.03c-1.12-.1-1.57-.16-2.18-.16h-2.5c-.61,0-1.06.06-2.18.16l-.45.03.03-.74c.13,0,.19,0,.35-.03,1.57-.16,1.76-.61,1.76-1.89V6.08h-3.78c-.83,0-1.28.13-1.89,1.41h-.61L1.31,3.14h.61c-.19.7-.06,1.02.86,1.02h3.49v-1.5c0-1.28-.19-1.73-1.76-1.89-.16-.03-.22-.03-.35-.03l-.03-.74.45.03c1.12.1,1.57.16,2.18.16h2.5c.61,0,1.06-.06,2.18-.16l.45-.03-.03.74c-.13,0-.19,0-.35.03-1.57.16-1.76.61-1.76,1.89v1.5h3.71c.83,0,1.25-.13,1.86-1.41h.67l-1.38,4.35Z"/>
      <path class="cls-1" d="M25.6,18.75c-4.64,0-8.38-2.91-8.38-7.33,0-4.16,3.52-7.78,8.38-7.78,4.61,0,8.35,2.91,8.35,7.33,0,4.16-3.49,7.78-8.35,7.78ZM25.09,5.73c-2.82,0-4.54,2.46-4.29,5.47.32,3.01,2.34,5.5,5.31,5.5,2.82,0,4.54-2.5,4.26-5.5s-2.3-5.47-5.28-5.47Z"/>
      <path class="cls-1" d="M54.66,12.45c-.13,0-.19,0-.35.03-1.57.16-1.76.61-1.76,1.89v3.01s-2.82,1.38-6.05,1.38c-4.64,0-8.38-2.91-8.38-7.33,0-4.16,3.52-7.78,8.38-7.78,2.91,0,4.54,1.44,5.5.86l.19,4.03h-.61c-.45-1.86-2.66-3.07-4.7-3.07-3.07,0-5.18,2.75-5.06,5.89.16,3.36,2.66,5.57,5.57,5.57.61,0,1.18-.06,1.7-.19v-2.37c0-1.28-.19-1.73-1.76-1.89-.16-.03-.22-.03-.35-.03l-.03-.74.45.03c1.12.1,1.57.16,2.18.16h2.5c.61,0,1.06-.06,2.18-.16l.45-.03-.03.74Z"/>
      <path class="cls-1" d="M68.8,18.33s-2.21-.06-3.62-.1h-5.25c-.61,0-1.06.06-2.18.16l-.45.03.03-.74c.13,0,.19,0,.35-.03,1.57-.16,1.76-.61,1.76-1.89V6.62c0-1.28-.19-1.73-1.76-1.89-.16-.03-.22-.03-.35-.03l-.03-.74.45.03c1.12.1,1.57.16,2.18.16h8.86l.48,3.52-.67-.03c-.38-1.47-.58-1.57-1.92-1.6l-3.78-.06v3.65h5.18v1.73h-5.18v3.81c0,1.15.06,1.22,1.09,1.22h2.21c1.7,0,2.02-.48,2.94-1.82l.83-.06c-.96,1.6-.96,2.98-1.18,3.84Z"/>
      <path class="cls-1" d="M86.43,7.1h-.58c.19-.7.06-1.02-.86-1.02h-3.42v9.7c0,1.28.19,1.73,1.76,1.89.16.03.22.03.35.03l.03.74-.45-.03c-1.12-.1-1.57-.16-2.18-.16h-2.5c-.61,0-1.06.06-2.18.16l-.45.03.03-.74c.13,0,.19,0,.35-.03,1.57-.16,1.76-.61,1.76-1.89V6.08h-3.78c-.83,0-1.28.13-1.89,1.41h-.61l1.31-4.35h.61c-.19.7-.06,1.02.86,1.02h3.49v-1.5c0-1.28-.19-1.73-1.76-1.89-.16-.03-.22-.03-.35-.03l-.03-.74.45.03c1.12.1,1.57.16,2.18.16h2.5c.61,0,1.06-.06,2.18-.16l.45-.03-.03.74c-.13,0-.19,0-.35.03-1.57.16-1.76.61-1.76,1.89v1.5h3.71c.83,0,1.25-.13,1.86-1.41h.67l-1.38,4.35Z"/>
      <path class="cls-1" d="M106.91,18.4c-1.12-.1-1.57-.16-2.18-.16h-2.5c-.61,0-1.06.06-2.18.16l-.45.03.03-.74c.13,0,.19,0,.35-.03,1.57-.16,1.76-.61,1.76-1.89v-3.26h-5.98v3.26c0,1.28.19,1.73,1.76,1.89.16.03.22.03.35.03l.03.74-.45-.03c-1.12-.1-1.57-.16-2.18-.16h-2.5c-.61,0-1.06.06-2.18.16l-.45.03.03-.74c.13,0,.19,0,.35-.03,1.57-.16,1.76-.61,1.76-1.89V6.62c0-1.28-.19-1.73-1.76-1.89-.16-.03-.22-.03-.35-.03l-.03-.74.45.03c1.12.1,1.57.16,2.18.16h2.5c.61,0,1.06-.06,2.18-.16l.45-.03-.03.74c-.13,0-.19,0-.35.03-1.57.16-1.76.61-1.76,1.89v2.14h5.98v-2.14c0-1.28-.19-1.73-1.76-1.89-.16-.03-.22-.03-.35-.03l-.03-.74.45.03c1.12.1,1.57.16,2.18.16h2.5c.61,0,1.06-.06,2.18-.16l.45-.03-.03.74c-.13,0-.19,0-.35.03-1.57.16-1.76.61-1.76,1.89v9.15c0,1.28.19,1.73,1.76,1.89.16.03.22.03.35.03l.03.74-.45-.03ZM101.76,10.11h-5.98v1.06h5.98v-1.06Z"/>
      <path class="cls-1" d="M123.01,18.33s-2.21-.06-3.62-.1h-5.25c-.61,0-1.06.06-2.18.16l-.45.03.03-.74c.13,0,.19,0,.35-.03,1.57-.16,1.76-.61,1.76-1.89V6.62c0-1.28-.19-1.73-1.76-1.89-.16-.03-.22-.03-.35-.03l-.03-.74.45.03c1.12.1,1.57.16,2.18.16h8.86l.48,3.52-.67-.03c-.38-1.47-.58-1.57-1.92-1.6l-3.78-.06v3.65h5.18v1.73h-5.18v3.81c0,1.15.06,1.22,1.09,1.22h2.21c1.7,0,2.02-.48,2.94-1.82l.83-.06c-.96,1.6-.96,2.98-1.18,3.84Z"/>
      <path class="cls-1" d="M149.44,21.57c-6.98,0-12.77-7.84-14.18-8.96-.1-.1-.42-.19-.77-.35-.38,0-.74-.03-1.06-.06v3.58c0,1.28.19,1.73,1.76,1.89.16.03.22.03.35.03l.03.74-.45-.03c-1.12-.1-1.57-.16-2.18-.16h-2.5c-.61,0-1.06.06-2.18.16l-.45.03.03-.74c.13,0,.19,0,.35-.03,1.57-.16,1.76-.61,1.76-1.89V6.62c0-1.28-.19-1.73-1.76-1.89-.16-.03-.22-.03-.35-.03l-.03-.74.45.03c1.12.1,1.57.16,2.18.16,0,0,4.1-.1,5.25-.1,3.23,0,5.15,1.63,5.15,3.58,0,1.73-1.09,3.1-2.62,3.9,2.14,1.92,6.08,7.49,10.21,8.93,1.38.48,3.2.48,4.51-.06-.26.61-1.66,1.15-3.52,1.15ZM134.82,5.54c-.83,0-1.38.03-1.38.77v4.8s.74.06,1.15.06c1.5,0,2.82-1.12,2.82-2.94,0-1.41-.83-2.69-2.59-2.69Z"/>
    </g>
  </g>
</svg>