<?xml version="1.0" encoding="UTF-8"?>
<svg id="Capa_2" data-name="Capa 2" xmlns="http://www.w3.org/2000/svg" viewBox="0 0 155.89 198.45">
  <defs>
    <style>
      .cls-1 {
        letter-spacing: -.02em;
      }

      .cls-2 {
        fill: #ffe600;
      }

      .cls-3 {
        font-family: MontserratRoman-Bold, Montserrat;
        font-size: 24px;
        font-variation-settings: 'wght' 700;
        font-weight: 700;
      }

      .cls-3, .cls-4 {
        fill: #403f51;
      }
    </style>
  </defs>
  <g id="Capa_1-2" data-name="Capa 1">
    <text class="cls-3" transform="translate(24.97 168.55)"><tspan x="0" y="0">2D </tspan><tspan class="cls-1" x="40.78" y="0">W</tspan><tspan x="68.14" y="0">ORK</tspan></text>
    <g>
      <path class="cls-2" d="M6.43,46.04v14.47l1.32,1.02.64,1.87s4.94,2.64,4.94,3.06.34,4.09.43,4.94.85,3.32.81,3.91,1.24,3.45,2.6,5.98,2.55,3.3,3.06,5.68,0,7.66,0,7.66l5.95,2.81s1.71.26,1.62.85.09,6.64-.09,7.15-3.57,1.87-3.57,1.87c0,0,2.72,3.06,2.89,3.32s6.29,4.09,6.29,4.09l107.41-1.36,7.57-8.17-2.13-81.96-6.81-6.21-9.79-6.64-49.8.43s-5.89-4-6.21-4.26-3.64-2.81-5.94-2.68-28.17,2.68-28.17,2.68l-2.26.68-1.57,2.72-4.65,2.89-.37,1.96-3.91,2.55s-1.54,9.53-1.11,10.72.51,13.87.51,13.87c0,0-5.03,1.87-6.73,1.96s-12.93,2.13-12.93,2.13Z"/>
      <rect class="cls-4" x="68.16" width="7.74" height="7.74"/>
      <rect class="cls-4" x="60.41" width="7.74" height="7.74"/>
      <rect class="cls-4" x="52.67" width="7.74" height="7.74"/>
      <rect class="cls-4" x="44.93" width="7.74" height="7.74"/>
      <rect class="cls-4" x="37.19" width="7.74" height="7.74"/>
      <rect class="cls-4" x="29.44" y="7.74" width="7.74" height="7.74"/>
      <rect class="cls-4" x="21.7" y="15.49" width="7.74" height="7.74"/>
      <rect class="cls-4" x="21.7" y="23.23" width="7.74" height="7.74"/>
      <rect class="cls-4" x="21.7" y="30.97" width="7.74" height="7.74"/>
      <rect class="cls-4" x="75.9" y="7.74" width="7.74" height="7.74"/>
      <rect class="cls-4" x="83.64" y="7.74" width="7.74" height="7.74"/>
      <rect class="cls-4" x="91.39" y="7.74" width="7.74" height="7.74"/>
      <rect class="cls-4" x="99.13" y="7.74" width="7.74" height="7.74"/>
      <rect class="cls-4" x="106.87" y="7.74" width="7.74" height="7.74"/>
      <rect class="cls-4" x="114.61" y="7.74" width="7.74" height="7.74"/>
      <rect class="cls-4" x="122.36" y="7.74" width="7.74" height="7.74"/>
      <rect class="cls-4" x="130.1" y="7.74" width="7.74" height="7.74"/>
      <rect class="cls-4" x="137.84" y="15.49" width="7.74" height="7.74"/>
      <rect class="cls-4" x="145.59" y="23.23" width="7.74" height="7.74"/>
      <rect class="cls-4" x="145.59" y="30.97" width="7.74" height="7.74"/>
      <rect class="cls-4" x="145.59" y="38.71" width="7.74" height="7.74"/>
      <rect class="cls-4" x="145.59" y="46.46" width="7.74" height="7.74"/>
      <rect class="cls-4" x="145.59" y="54.2" width="7.74" height="7.74"/>
      <rect class="cls-4" x="145.59" y="61.94" width="7.74" height="7.74"/>
      <rect class="cls-4" x="145.59" y="69.69" width="7.74" height="7.74"/>
      <rect class="cls-4" x="145.59" y="77.43" width="7.74" height="7.74"/>
      <rect class="cls-4" x="145.59" y="85.17" width="7.74" height="7.74"/>
      <rect class="cls-4" x="145.59" y="92.91" width="7.74" height="7.74"/>
      <rect class="cls-4" x="145.59" y="100.66" width="7.74" height="7.74"/>
      <rect class="cls-4" x="137.84" y="108.4" width="7.74" height="7.74"/>
      <rect class="cls-4" x="130.1" y="108.4" width="7.74" height="7.74"/>
      <rect class="cls-4" x="122.36" y="108.4" width="7.74" height="7.74"/>
      <rect class="cls-4" x="114.61" y="108.4" width="7.74" height="7.74"/>
      <rect class="cls-4" x="106.87" y="108.4" width="7.74" height="7.74"/>
      <rect class="cls-4" x="99.13" y="108.4" width="7.74" height="7.74"/>
      <rect class="cls-4" x="91.39" y="108.4" width="7.74" height="7.74"/>
      <rect class="cls-4" x="83.64" y="108.4" width="7.74" height="7.74"/>
      <rect class="cls-4" x="75.9" y="108.4" width="7.74" height="7.74"/>
      <rect class="cls-4" x="68.16" y="108.4" width="7.74" height="7.74"/>
      <rect class="cls-4" x="60.41" y="108.4" width="7.74" height="7.74"/>
      <rect class="cls-4" x="52.67" y="108.4" width="7.74" height="7.74"/>
      <rect class="cls-4" x="44.93" y="108.4" width="7.74" height="7.74"/>
      <rect class="cls-4" x="37.19" y="108.4" width="7.74" height="7.74"/>
      <rect class="cls-4" x="29.44" y="108.4" width="7.74" height="7.74"/>
      <rect class="cls-4" x="22.29" y="100.66" width="7.74" height="7.74"/>
      <rect class="cls-4" x="22.29" y="92.91" width="7.74" height="7.74"/>
      <rect class="cls-4" x="14.55" y="85.17" width="7.74" height="7.74"/>
      <rect class="cls-4" x="14.55" y="77.43" width="7.74" height="7.74"/>
      <rect class="cls-4" x="7.74" y="69.69" width="7.74" height="7.74"/>
      <rect class="cls-4" x="7.74" y="61.94" width="7.74" height="7.74"/>
      <rect class="cls-4" y="54.2" width="7.74" height="7.74"/>
      <rect class="cls-4" y="46.46" width="7.74" height="7.74"/>
      <rect class="cls-4" x="7.74" y="38.71" width="7.74" height="7.74"/>
      <rect class="cls-4" x="15.49" y="38.71" width="7.74" height="7.74"/>
      <rect class="cls-4" x="23.23" y="38.71" width="7.74" height="7.74"/>
      <rect class="cls-4" x="30.97" y="38.71" width="7.74" height="7.74"/>
      <rect class="cls-4" x="38.71" y="38.71" width="7.74" height="7.74"/>
      <rect class="cls-4" x="46.46" y="38.71" width="7.74" height="7.74"/>
      <rect class="cls-4" x="54.2" y="38.71" width="7.74" height="7.74"/>
      <rect class="cls-4" x="61.94" y="38.71" width="7.74" height="7.74"/>
      <rect class="cls-4" x="69.69" y="38.71" width="7.74" height="7.74"/>
      <rect class="cls-4" x="77.43" y="38.71" width="7.74" height="7.74"/>
      <rect class="cls-4" x="85.17" y="38.71" width="7.74" height="7.74"/>
      <rect class="cls-4" x="92.91" y="38.71" width="7.74" height="7.74"/>
      <rect class="cls-4" x="100.66" y="38.71" width="7.74" height="7.74"/>
      <rect class="cls-4" x="108.4" y="38.71" width="7.74" height="7.74"/>
      <rect class="cls-4" x="116.14" y="38.71" width="7.74" height="7.74"/>
      <rect class="cls-4" x="116.14" y="46.46" width="7.74" height="7.74"/>
      <rect class="cls-4" x="123.89" y="54.2" width="7.74" height="7.74"/>
      <rect class="cls-4" x="123.89" y="61.94" width="7.74" height="7.74"/>
      <rect class="cls-4" x="131.16" y="69.69" width="7.74" height="7.74"/>
      <rect class="cls-4" x="131.16" y="77.43" width="7.74" height="7.74"/>
      <rect class="cls-4" x="138.9" y="85.17" width="7.74" height="7.74"/>
      <rect class="cls-4" x="138.9" y="92.32" width="7.74" height="7.74"/>
    </g>
  </g>
</svg>