<?xml version="1.0" encoding="UTF-8"?>
<svg id="Capa_2" data-name="Capa 2" xmlns="http://www.w3.org/2000/svg" viewBox="0 0 229.95 200.81">
  <defs>
    <style>
      .cls-1 {
        fill: #ffee76;
      }

      .cls-2 {
        fill: #fff;
      }

      .cls-3 {
        letter-spacing: -.02em;
      }

      .cls-4, .cls-5 {
        fill: #403f51;
      }

      .cls-6 {
        fill: #ffc200;
      }

      .cls-5 {
        font-family: MontserratRoman-ExtraBold, Montserrat;
        font-size: 26px;
        font-variation-settings: 'wght' 800;
        font-weight: 700;
      }

      .cls-7 {
        fill: #e8e8e8;
      }
    </style>
  </defs>
  <g id="Capa_1-2" data-name="Capa 1">
    <rect class="cls-2" x="8.59" width="213.7" height="178.47"/>
    <text class="cls-5" transform="translate(12.94 171.65)"><tspan x="0" y="0">DESIGN </tspan><tspan class="cls-3" x="113.12" y="0">W</tspan><tspan x="143.28" y="0">ORK</tspan></text>
    <path class="cls-1" d="M34.53,57.4v14.47l1.32,1.02.64,1.87s4.94,2.64,4.94,3.06.34,4.09.43,4.94.85,3.32.81,3.91,1.24,3.45,2.6,5.98,2.55,3.3,3.06,5.68,0,7.66,0,7.66l5.95,2.81s1.71.26,1.62.85.09,6.64-.09,7.15-3.57,1.87-3.57,1.87c0,0,2.72,3.06,2.89,3.32s6.29,4.09,6.29,4.09l107.41-1.36,7.57-8.17-2.13-81.96-6.81-6.21-9.79-6.64-49.8.43s-5.89-4-6.21-4.26-3.64-2.81-5.94-2.68-28.17,2.68-28.17,2.68l-2.26.68-1.57,2.72-4.65,2.89-.37,1.96-3.91,2.55s-1.54,9.53-1.11,10.72.51,13.87.51,13.87c0,0-5.03,1.87-6.73,1.96s-12.93,2.13-12.93,2.13Z"/>
    <rect class="cls-4" x="96.26" y="11.36" width="7.74" height="7.74"/>
    <rect class="cls-4" x="88.52" y="11.36" width="7.74" height="7.74"/>
    <rect class="cls-4" x="80.78" y="11.36" width="7.74" height="7.74"/>
    <rect class="cls-4" x="73.03" y="11.36" width="7.74" height="7.74"/>
    <rect class="cls-4" x="65.29" y="11.36" width="38.71" height="7.74"/>
    <rect class="cls-4" x="57.55" y="19.1" width="7.74" height="7.74"/>
    <rect class="cls-4" x="49.8" y="26.84" width="7.74" height="23.23"/>
    <rect class="cls-4" x="49.8" y="34.59" width="7.74" height="7.74"/>
    <rect class="cls-4" x="49.8" y="42.33" width="7.74" height="7.74"/>
    <rect class="cls-4" x="104" y="19.1" width="61.94" height="7.74"/>
    <rect class="cls-4" x="111.75" y="19.1" width="7.74" height="7.74"/>
    <rect class="cls-4" x="119.49" y="19.1" width="7.74" height="7.74"/>
    <rect class="cls-4" x="127.23" y="19.1" width="7.74" height="7.74"/>
    <rect class="cls-4" x="134.98" y="19.1" width="7.74" height="7.74"/>
    <rect class="cls-4" x="142.72" y="19.1" width="7.74" height="7.74"/>
    <rect class="cls-4" x="150.46" y="19.1" width="7.74" height="7.74"/>
    <rect class="cls-4" x="158.2" y="19.1" width="7.74" height="7.74"/>
    <rect class="cls-4" x="165.95" y="26.84" width="7.74" height="7.74"/>
    <rect class="cls-4" x="173.69" y="34.59" width="7.74" height="7.74"/>
    <rect class="cls-4" x="173.69" y="42.33" width="7.74" height="7.74"/>
    <rect class="cls-4" x="173.69" y="50.07" width="7.74" height="7.74"/>
    <rect class="cls-4" x="173.69" y="57.82" width="7.74" height="7.74"/>
    <rect class="cls-4" x="173.69" y="65.56" width="7.74" height="7.74"/>
    <rect class="cls-4" x="173.69" y="73.3" width="7.74" height="7.74"/>
    <rect class="cls-4" x="173.69" y="81.04" width="7.74" height="7.74"/>
    <rect class="cls-4" x="173.69" y="88.79" width="7.74" height="7.74"/>
    <rect class="cls-4" x="173.69" y="96.53" width="7.74" height="7.74"/>
    <rect class="cls-4" x="173.69" y="104.27" width="7.74" height="7.74"/>
    <rect class="cls-4" x="173.69" y="34.59" width="7.74" height="85.17"/>
    <rect class="cls-4" x="165.95" y="119.76" width="7.74" height="7.74"/>
    <rect class="cls-4" x="158.2" y="119.76" width="7.74" height="7.74"/>
    <rect class="cls-4" x="150.46" y="119.76" width="7.74" height="7.74"/>
    <rect class="cls-4" x="142.72" y="119.76" width="7.74" height="7.74"/>
    <rect class="cls-4" x="134.98" y="119.76" width="7.74" height="7.74"/>
    <rect class="cls-4" x="127.23" y="119.76" width="7.74" height="7.74"/>
    <rect class="cls-4" x="119.49" y="119.76" width="7.74" height="7.74"/>
    <rect class="cls-4" x="111.75" y="119.76" width="7.74" height="7.74"/>
    <rect class="cls-4" x="104" y="119.76" width="7.74" height="7.74"/>
    <rect class="cls-4" x="96.26" y="119.76" width="7.74" height="7.74"/>
    <rect class="cls-4" x="88.52" y="119.76" width="7.74" height="7.74"/>
    <rect class="cls-4" x="80.78" y="119.76" width="7.74" height="7.74"/>
    <rect class="cls-4" x="73.03" y="119.76" width="7.74" height="7.74"/>
    <rect class="cls-4" x="65.29" y="119.76" width="7.74" height="7.74"/>
    <rect class="cls-4" x="57.55" y="119.76" width="116.14" height="7.74"/>
    <rect class="cls-4" x="50.4" y="112.02" width="7.74" height="7.74"/>
    <rect class="cls-4" x="50.4" y="104.27" width="7.74" height="15.49"/>
    <rect class="cls-4" x="42.66" y="96.53" width="7.74" height="7.74"/>
    <rect class="cls-4" x="42.66" y="88.79" width="7.74" height="14.89"/>
    <rect class="cls-4" x="35.85" y="81.04" width="7.74" height="7.74"/>
    <rect class="cls-4" x="35.85" y="73.3" width="7.74" height="15.49"/>
    <rect class="cls-4" x="28.1" y="65.56" width="7.74" height="7.74"/>
    <rect class="cls-4" x="28.1" y="57.82" width="7.74" height="15.49"/>
    <rect class="cls-4" x="43.59" y="50.07" width="7.74" height="7.74"/>
    <rect class="cls-4" x="51.33" y="50.07" width="7.74" height="7.74"/>
    <rect class="cls-4" x="59.08" y="50.07" width="7.74" height="7.74"/>
    <rect class="cls-4" x="66.82" y="50.07" width="7.74" height="7.74"/>
    <rect class="cls-4" x="74.56" y="50.07" width="7.74" height="7.74"/>
    <rect class="cls-4" x="82.3" y="50.07" width="7.74" height="7.74"/>
    <rect class="cls-4" x="90.05" y="50.07" width="7.74" height="7.74"/>
    <rect class="cls-4" x="97.79" y="50.07" width="7.74" height="7.74"/>
    <rect class="cls-4" x="105.53" y="50.07" width="7.74" height="7.74"/>
    <rect class="cls-4" x="113.28" y="50.07" width="7.74" height="7.74"/>
    <rect class="cls-4" x="121.02" y="50.07" width="7.74" height="7.74"/>
    <rect class="cls-4" x="128.76" y="50.07" width="7.74" height="7.74"/>
    <rect class="cls-4" x="136.5" y="50.07" width="7.74" height="7.74"/>
    <rect class="cls-4" x="144.25" y="50.07" width="7.74" height="7.74"/>
    <polygon class="cls-4" points="144.25 50.07 35.85 50.07 35.85 57.82 144.25 57.82 144.25 65.56 151.99 65.56 151.99 57.82 151.99 50.07 144.25 50.07"/>
    <rect class="cls-4" x="151.99" y="65.56" width="7.74" height="7.74"/>
    <rect class="cls-4" x="151.99" y="65.56" width="7.74" height="15.49"/>
    <rect class="cls-4" x="159.27" y="81.04" width="7.74" height="7.74"/>
    <rect class="cls-4" x="159.27" y="81.04" width="7.74" height="15.49"/>
    <rect class="cls-4" x="167.01" y="96.53" width="7.74" height="7.74"/>
    <rect class="cls-4" x="167.01" y="103.68" width="7.74" height="7.74"/>
    <rect class="cls-6" x="57.55" y="42.33" width="94.44" height="7.74"/>
    <rect class="cls-6" x="151.99" y="50.07" width="7.74" height="15.49"/>
    <rect class="cls-6" x="159.27" y="65.56" width="7.74" height="15.49"/>
    <rect class="cls-6" x="167.01" y="65.56" width="6.68" height="30.97"/>
    <g>
      <rect class="cls-2" x="67.66" y="8.86" width="81.43" height="43.71"/>
      <path class="cls-4" d="M146.59,11.36v38.71h-76.43V11.36h76.43M151.59,6.36h-86.43v48.71h86.43V6.36h0Z"/>
    </g>
    <rect class="cls-7" x="70.16" y="42.33" width="76.43" height="7.74"/>
    <rect class="cls-4" x="94.82" y="34.6" width="5.94" height="5.94"/>
    <rect class="cls-4" x="110.3" y="34.6" width="5.94" height="5.94"/>
    <rect class="cls-4" x="94.82" y="43.23" width="5.94" height="8.34"/>
    <rect class="cls-4" x="100.13" y="46.2" width="10.17" height="5.37"/>
    <rect class="cls-4" x="110.3" y="43.23" width="5.94" height="8.34"/>
  </g>
  <g id="Capa_4" data-name="Capa 4">
    <rect class="cls-4" x="88.35" y="24.01" width="34.36" height="5.66"/>
    <rect class="cls-4" x="73.23" y="38.82" width="24.58" height="5.66" transform="translate(127.17 -43.87) rotate(90)"/>
    <rect class="cls-4" x="113.25" y="38.82" width="24.58" height="5.66" transform="translate(167.2 -83.89) rotate(90)"/>
  </g>
</svg>