<?xml version="1.0" encoding="UTF-8"?>
<svg id="Capa_2" data-name="Capa 2" xmlns="http://www.w3.org/2000/svg" viewBox="0 0 153.78 153.19">
  <defs>
    <style>
      .cls-1 {
        fill: #ffee76;
      }

      .cls-2 {
        fill: #fff;
      }

      .cls-3 {
        fill: #403f51;
      }

      .cls-4 {
        fill: #ffc200;
      }

      .cls-5 {
        fill: #e8e8e8;
      }
    </style>
  </defs>
  <g id="Capa_1-2" data-name="Capa 1">
    <g>
      <path class="cls-3" d="M0,152.88v-13.65h6.73c1.52,0,2.86.28,4.02.83,1.16.55,2.06,1.34,2.71,2.35.65,1.01.97,2.22.97,3.63s-.32,2.64-.97,3.66-1.55,1.81-2.71,2.36c-1.16.55-2.5.83-4.02.83H0ZM4.6,149.29h1.93c.65,0,1.22-.12,1.71-.37.49-.25.87-.61,1.14-1.1.27-.49.41-1.08.41-1.78s-.14-1.27-.41-1.75c-.27-.48-.65-.84-1.14-1.09-.49-.25-1.06-.37-1.71-.37h-1.93v6.47Z"/>
      <path class="cls-3" d="M20.63,149.41h6.83v3.47h-11.35v-13.65h11.1v3.47h-6.57v6.71ZM20.32,144.3h6.08v3.32h-6.08v-3.32Z"/>
      <path class="cls-3" d="M34.32,153.19c-1.14,0-2.25-.13-3.32-.39-1.07-.26-1.94-.6-2.63-1.01l1.48-3.35c.65.38,1.38.68,2.17.91.8.23,1.58.34,2.33.34.44,0,.79-.03,1.04-.09s.44-.14.56-.25.18-.24.18-.4c0-.25-.14-.44-.41-.58-.27-.14-.63-.26-1.08-.36-.45-.1-.94-.2-1.47-.31-.53-.11-1.07-.26-1.61-.44-.54-.18-1.03-.42-1.48-.72-.45-.3-.81-.69-1.08-1.18-.27-.49-.41-1.09-.41-1.82,0-.84.24-1.62.71-2.31s1.18-1.25,2.13-1.67c.94-.42,2.12-.62,3.52-.62.92,0,1.83.1,2.73.29.9.2,1.7.49,2.42.9l-1.38,3.33c-.68-.34-1.33-.59-1.96-.76-.63-.17-1.25-.25-1.84-.25-.44,0-.79.04-1.05.12-.26.08-.45.18-.56.31-.11.13-.17.27-.17.43,0,.23.14.42.41.56.27.14.63.25,1.08.34.45.09.94.19,1.48.29.54.1,1.08.25,1.61.43.53.18,1.02.42,1.47.72s.81.69,1.08,1.17c.27.48.41,1.08.41,1.79,0,.83-.24,1.6-.71,2.29-.48.7-1.18,1.25-2.12,1.68-.94.42-2.11.63-3.53.63Z"/>
      <path class="cls-3" d="M42.04,152.88v-13.65h4.6v13.65h-4.6Z"/>
      <path class="cls-3" d="M55.95,153.19c-1.11,0-2.12-.17-3.05-.52-.93-.34-1.74-.83-2.42-1.47-.68-.64-1.21-1.39-1.59-2.26-.38-.87-.57-1.83-.57-2.89s.19-2.01.57-2.89.91-1.62,1.6-2.26c.69-.64,1.5-1.13,2.45-1.47.94-.34,1.98-.52,3.11-.52,1.35,0,2.56.23,3.62.68s1.93,1.1,2.62,1.95l-2.94,2.59c-.43-.49-.89-.87-1.39-1.12-.5-.25-1.06-.38-1.67-.38-.51,0-.96.08-1.38.23-.41.16-.76.38-1.04.68-.29.3-.51.66-.66,1.07s-.23.89-.23,1.42.08.97.23,1.39.38.78.66,1.08c.29.3.63.53,1.02.69.4.16.84.24,1.34.24.52,0,1.03-.09,1.52-.26.49-.18,1.02-.48,1.58-.91l2.57,3.16c-.83.56-1.78.99-2.85,1.29-1.07.3-2.1.45-3.1.45ZM57.89,150.87v-5.19h4v5.77l-4-.58Z"/>
      <path class="cls-3" d="M63.86,152.88v-13.65h3.78l6.94,8.31h-1.76v-8.31h4.49v13.65h-3.78l-6.94-8.31h1.75v8.31h-4.49Z"/>
      <path class="cls-3" d="M88.84,152.88l-4.37-13.65h4.74l3.53,11.52h-2.38l3.74-11.52h4.23l3.49,11.52h-2.28l3.69-11.52h4.37l-4.37,13.65h-4.93l-2.85-9.44h1.33l-3,9.44h-4.93Z"/>
      <path class="cls-3" d="M115.57,153.19c-1.1,0-2.13-.17-3.07-.53-.94-.35-1.76-.85-2.45-1.49-.69-.64-1.22-1.4-1.61-2.27s-.58-1.82-.58-2.85.19-1.99.58-2.86.92-1.62,1.61-2.26c.69-.64,1.5-1.14,2.45-1.49s1.97-.53,3.07-.53,2.15.18,3.08.53c.94.35,1.75.85,2.44,1.49.69.64,1.23,1.4,1.61,2.26.38.86.58,1.82.58,2.86s-.19,1.98-.58,2.85c-.38.87-.92,1.63-1.61,2.27-.69.64-1.5,1.14-2.44,1.49-.94.35-1.96.53-3.08.53ZM115.57,149.47c.43,0,.83-.08,1.2-.23.37-.16.7-.38.98-.67.28-.29.5-.65.65-1.07s.23-.9.23-1.43-.08-1.01-.23-1.43c-.16-.42-.37-.78-.65-1.07-.28-.29-.6-.52-.98-.67-.37-.16-.77-.23-1.2-.23s-.83.08-1.2.23c-.37.16-.7.38-.97.67-.28.29-.5.65-.65,1.07-.16.42-.23.9-.23,1.43s.08,1.01.23,1.43.37.78.65,1.07c.28.29.6.52.97.67.37.16.77.23,1.2.23Z"/>
      <path class="cls-3" d="M124.95,152.88v-13.65h6.57c1.27,0,2.38.21,3.31.62.93.42,1.65,1.01,2.15,1.78.51.77.76,1.69.76,2.74s-.25,1.96-.76,2.72c-.51.76-1.22,1.34-2.15,1.75-.93.4-2.03.6-3.31.6h-4.02l2.05-1.89v5.32h-4.6ZM129.56,148.07l-2.05-2.09h3.72c.64,0,1.11-.14,1.41-.43.3-.29.46-.68.46-1.17s-.15-.88-.46-1.17c-.31-.29-.78-.43-1.41-.43h-3.72l2.05-2.09v7.37ZM133.12,152.88l-3.35-4.97h4.88l3.39,4.97h-4.91Z"/>
      <path class="cls-3" d="M139.48,152.88v-13.65h4.52v13.65h-4.52ZM143.6,149.96l-.25-5.05,5.15-5.67h5.01l-5.77,6.36-2.55,2.61-1.58,1.75ZM148.45,152.88l-4.02-5.3,2.98-3.16,6.36,8.46h-5.32Z"/>
    </g>
    <path class="cls-1" d="M6.65,51.04v14.47l1.32,1.02.64,1.87s4.94,2.64,4.94,3.06.34,4.09.43,4.94.85,3.32.81,3.91,1.24,3.45,2.6,5.98,2.55,3.3,3.06,5.68,3.01,7.11,3.01,7.11l2.94,3.36s1.71.26,1.62.85.09,6.64-.09,7.15-3.57,1.87-3.57,1.87c0,0,5.67.89,5.91,1.08,1.98,1.57,2.71,7.34,3.28,6.32l107.41-1.36,7.57-8.17-2.13-81.96-6.81-6.21-9.79-6.64-49.8.43s-5.89-4-6.21-4.26-3.64-2.81-5.94-2.68-28.17,2.68-28.17,2.68l-2.26.68-1.57,2.72-4.65,2.89-.37,1.96-3.91,2.55s-1.54,9.53-1.11,10.72.51,13.87.51,13.87c0,0-5.03,1.87-6.73,1.96s-12.93,2.13-12.93,2.13Z"/>
    <rect class="cls-3" x="68.38" y="5" width="7.74" height="7.74"/>
    <rect class="cls-3" x="60.63" y="5" width="7.74" height="7.74"/>
    <rect class="cls-3" x="52.89" y="5" width="7.74" height="7.74"/>
    <rect class="cls-3" x="45.15" y="5" width="7.74" height="7.74"/>
    <rect class="cls-3" x="37.4" y="5" width="38.71" height="7.74"/>
    <rect class="cls-3" x="29.66" y="12.74" width="7.74" height="7.74"/>
    <rect class="cls-3" x="21.92" y="20.49" width="7.74" height="23.23"/>
    <rect class="cls-3" x="21.92" y="28.23" width="7.74" height="7.74"/>
    <rect class="cls-3" x="21.92" y="35.97" width="7.74" height="7.74"/>
    <rect class="cls-3" x="76.12" y="12.74" width="61.94" height="7.74"/>
    <rect class="cls-3" x="83.86" y="12.74" width="7.74" height="7.74"/>
    <rect class="cls-3" x="91.6" y="12.74" width="7.74" height="7.74"/>
    <rect class="cls-3" x="99.35" y="12.74" width="7.74" height="7.74"/>
    <rect class="cls-3" x="107.09" y="12.74" width="7.74" height="7.74"/>
    <rect class="cls-3" x="114.83" y="12.74" width="7.74" height="7.74"/>
    <rect class="cls-3" x="122.58" y="12.74" width="7.74" height="7.74"/>
    <rect class="cls-3" x="130.32" y="12.74" width="7.74" height="7.74"/>
    <rect class="cls-3" x="138.06" y="20.49" width="7.74" height="7.74"/>
    <rect class="cls-3" x="145.8" y="28.23" width="7.74" height="7.74"/>
    <rect class="cls-3" x="145.8" y="35.97" width="7.74" height="7.74"/>
    <rect class="cls-3" x="145.8" y="43.71" width="7.74" height="7.74"/>
    <rect class="cls-3" x="145.8" y="51.46" width="7.74" height="7.74"/>
    <rect class="cls-3" x="145.8" y="59.2" width="7.74" height="7.74"/>
    <rect class="cls-3" x="145.8" y="66.94" width="7.74" height="7.74"/>
    <rect class="cls-3" x="145.8" y="74.69" width="7.74" height="7.74"/>
    <rect class="cls-3" x="145.8" y="82.43" width="7.74" height="7.74"/>
    <rect class="cls-3" x="145.8" y="90.17" width="7.74" height="7.74"/>
    <rect class="cls-3" x="145.8" y="97.91" width="7.74" height="7.74"/>
    <rect class="cls-3" x="145.8" y="28.23" width="7.74" height="85.17"/>
    <rect class="cls-3" x="138.06" y="113.4" width="7.74" height="7.74"/>
    <rect class="cls-3" x="130.32" y="113.4" width="7.74" height="7.74"/>
    <rect class="cls-3" x="122.58" y="113.4" width="7.74" height="7.74"/>
    <rect class="cls-3" x="114.83" y="113.4" width="7.74" height="7.74"/>
    <rect class="cls-3" x="107.09" y="113.4" width="7.74" height="7.74"/>
    <rect class="cls-3" x="99.35" y="113.4" width="7.74" height="7.74"/>
    <rect class="cls-3" x="91.6" y="113.4" width="7.74" height="7.74"/>
    <rect class="cls-3" x="83.86" y="113.4" width="7.74" height="7.74"/>
    <rect class="cls-3" x="76.12" y="113.4" width="7.74" height="7.74"/>
    <rect class="cls-3" x="68.38" y="113.4" width="7.74" height="7.74"/>
    <rect class="cls-3" x="60.63" y="113.4" width="7.74" height="7.74"/>
    <rect class="cls-3" x="52.89" y="113.4" width="7.74" height="7.74"/>
    <rect class="cls-3" x="45.15" y="113.4" width="7.74" height="7.74"/>
    <rect class="cls-3" x="37.4" y="113.4" width="7.74" height="7.74"/>
    <rect class="cls-3" x="29.66" y="113.4" width="116.14" height="7.74"/>
    <rect class="cls-3" x="22.51" y="105.66" width="7.74" height="7.74"/>
    <rect class="cls-3" x="22.51" y="97.91" width="7.74" height="15.49"/>
    <rect class="cls-3" x="14.77" y="90.17" width="7.74" height="7.74"/>
    <rect class="cls-3" x="14.77" y="82.43" width="7.74" height="14.89"/>
    <rect class="cls-3" x="7.96" y="74.69" width="7.74" height="7.74"/>
    <rect class="cls-3" x="7.96" y="66.94" width="7.74" height="15.49"/>
    <rect class="cls-3" x=".22" y="59.2" width="7.74" height="7.74"/>
    <rect class="cls-3" x=".22" y="51.46" width="7.74" height="15.49"/>
    <rect class="cls-3" x="15.7" y="43.71" width="7.74" height="7.74"/>
    <rect class="cls-3" x="23.45" y="43.71" width="7.74" height="7.74"/>
    <rect class="cls-3" x="31.19" y="43.71" width="7.74" height="7.74"/>
    <rect class="cls-3" x="38.93" y="43.71" width="7.74" height="7.74"/>
    <rect class="cls-3" x="46.68" y="43.71" width="7.74" height="7.74"/>
    <rect class="cls-3" x="54.42" y="43.71" width="7.74" height="7.74"/>
    <rect class="cls-3" x="62.16" y="43.71" width="7.74" height="7.74"/>
    <rect class="cls-3" x="69.9" y="43.71" width="7.74" height="7.74"/>
    <rect class="cls-3" x="77.65" y="43.71" width="7.74" height="7.74"/>
    <rect class="cls-3" x="85.39" y="43.71" width="7.74" height="7.74"/>
    <rect class="cls-3" x="93.13" y="43.71" width="7.74" height="7.74"/>
    <rect class="cls-3" x="100.88" y="43.71" width="7.74" height="7.74"/>
    <rect class="cls-3" x="108.62" y="43.71" width="7.74" height="7.74"/>
    <rect class="cls-3" x="116.36" y="43.71" width="7.74" height="7.74"/>
    <polygon class="cls-3" points="116.36 43.71 7.96 43.71 7.96 51.46 116.36 51.46 116.36 59.2 124.1 59.2 124.1 51.46 124.1 43.71 116.36 43.71"/>
    <rect class="cls-3" x="124.1" y="59.2" width="7.74" height="7.74"/>
    <rect class="cls-3" x="124.1" y="59.2" width="7.74" height="15.49"/>
    <rect class="cls-3" x="131.38" y="74.69" width="7.74" height="7.74"/>
    <rect class="cls-3" x="131.38" y="74.69" width="7.74" height="15.49"/>
    <rect class="cls-3" x="139.12" y="90.17" width="7.74" height="7.74"/>
    <rect class="cls-3" x="139.12" y="97.32" width="7.74" height="7.74"/>
    <rect class="cls-4" x="29.66" y="35.97" width="94.44" height="7.74"/>
    <rect class="cls-4" x="124.1" y="43.71" width="7.74" height="15.49"/>
    <rect class="cls-4" x="131.38" y="59.2" width="7.74" height="15.49"/>
    <rect class="cls-4" x="139.12" y="59.2" width="6.68" height="30.97"/>
    <g>
      <rect class="cls-2" x="39.77" y="2.5" width="81.43" height="43.71"/>
      <path class="cls-3" d="M118.7,5v38.71H42.27V5h76.43M123.7,0H37.27v48.71h86.43V0h0Z"/>
    </g>
    <rect class="cls-5" x="42.27" y="35.97" width="76.43" height="7.74"/>
    <rect class="cls-3" x="66.93" y="28.24" width="5.94" height="5.94"/>
    <rect class="cls-3" x="82.42" y="28.24" width="5.94" height="5.94"/>
    <rect class="cls-3" x="66.93" y="36.87" width="5.94" height="8.34"/>
    <rect class="cls-3" x="72.25" y="39.84" width="10.17" height="5.37"/>
    <rect class="cls-3" x="82.42" y="36.87" width="5.94" height="8.34"/>
  </g>
  <g id="Capa_4" data-name="Capa 4">
    <rect class="cls-3" x="60.47" y="17.65" width="34.36" height="5.66"/>
    <rect class="cls-3" x="45.34" y="32.46" width="24.58" height="5.66" transform="translate(92.93 -22.34) rotate(90)"/>
    <rect class="cls-3" x="85.37" y="32.46" width="24.58" height="5.66" transform="translate(132.95 -62.37) rotate(90)"/>
  </g>
</svg>