<?xml version="1.0" encoding="UTF-8"?>
<svg id="Capa_2" data-name="Capa 2" xmlns="http://www.w3.org/2000/svg" viewBox="0 0 229.95 194.45">
  <defs>
    <style>
      .cls-1 {
        fill: #ffee76;
      }

      .cls-2 {
        fill: #fff;
      }

      .cls-3 {
        letter-spacing: -.02em;
      }

      .cls-4, .cls-5 {
        fill: #403f51;
      }

      .cls-6 {
        fill: #ffc200;
      }

      .cls-5 {
        font-family: MontserratRoman-ExtraBold, Montserrat;
        font-size: 26px;
        font-variation-settings: 'wght' 800;
        font-weight: 700;
      }

      .cls-7 {
        fill: #e8e8e8;
      }
    </style>
  </defs>
  <g id="Capa_1-2" data-name="Capa 1">
    <text class="cls-5" transform="translate(12.94 165.29)"><tspan x="0" y="0">DESIGN </tspan><tspan class="cls-3" x="113.12" y="0">W</tspan><tspan x="143.28" y="0">ORK</tspan></text>
    <path class="cls-1" d="M34.53,51.04v14.47l1.32,1.02.64,1.87s4.94,2.64,4.94,3.06.34,4.09.43,4.94.85,3.32.81,3.91,1.24,3.45,2.6,5.98,2.55,3.3,3.06,5.68,0,7.66,0,7.66l5.95,2.81s1.71.26,1.62.85.09,6.64-.09,7.15-3.57,1.87-3.57,1.87c0,0,2.72,3.06,2.89,3.32s6.29,4.09,6.29,4.09l107.41-1.36,7.57-8.17-2.13-81.96-6.81-6.21-9.79-6.64-49.8.43s-5.89-4-6.21-4.26-3.64-2.81-5.94-2.68-28.17,2.68-28.17,2.68l-2.26.68-1.57,2.72-4.65,2.89-.37,1.96-3.91,2.55s-1.54,9.53-1.11,10.72.51,13.87.51,13.87c0,0-5.03,1.87-6.73,1.96s-12.93,2.13-12.93,2.13Z"/>
    <rect class="cls-4" x="96.26" y="5" width="7.74" height="7.74"/>
    <rect class="cls-4" x="88.52" y="5" width="7.74" height="7.74"/>
    <rect class="cls-4" x="80.78" y="5" width="7.74" height="7.74"/>
    <rect class="cls-4" x="73.03" y="5" width="7.74" height="7.74"/>
    <rect class="cls-4" x="65.29" y="5" width="38.71" height="7.74"/>
    <rect class="cls-4" x="57.55" y="12.74" width="7.74" height="7.74"/>
    <rect class="cls-4" x="49.8" y="20.49" width="7.74" height="23.23"/>
    <rect class="cls-4" x="49.8" y="28.23" width="7.74" height="7.74"/>
    <rect class="cls-4" x="49.8" y="35.97" width="7.74" height="7.74"/>
    <rect class="cls-4" x="104" y="12.74" width="61.94" height="7.74"/>
    <rect class="cls-4" x="111.75" y="12.74" width="7.74" height="7.74"/>
    <rect class="cls-4" x="119.49" y="12.74" width="7.74" height="7.74"/>
    <rect class="cls-4" x="127.23" y="12.74" width="7.74" height="7.74"/>
    <rect class="cls-4" x="134.98" y="12.74" width="7.74" height="7.74"/>
    <rect class="cls-4" x="142.72" y="12.74" width="7.74" height="7.74"/>
    <rect class="cls-4" x="150.46" y="12.74" width="7.74" height="7.74"/>
    <rect class="cls-4" x="158.2" y="12.74" width="7.74" height="7.74"/>
    <rect class="cls-4" x="165.95" y="20.49" width="7.74" height="7.74"/>
    <rect class="cls-4" x="173.69" y="28.23" width="7.74" height="7.74"/>
    <rect class="cls-4" x="173.69" y="35.97" width="7.74" height="7.74"/>
    <rect class="cls-4" x="173.69" y="43.71" width="7.74" height="7.74"/>
    <rect class="cls-4" x="173.69" y="51.46" width="7.74" height="7.74"/>
    <rect class="cls-4" x="173.69" y="59.2" width="7.74" height="7.74"/>
    <rect class="cls-4" x="173.69" y="66.94" width="7.74" height="7.74"/>
    <rect class="cls-4" x="173.69" y="74.69" width="7.74" height="7.74"/>
    <rect class="cls-4" x="173.69" y="82.43" width="7.74" height="7.74"/>
    <rect class="cls-4" x="173.69" y="90.17" width="7.74" height="7.74"/>
    <rect class="cls-4" x="173.69" y="97.91" width="7.74" height="7.74"/>
    <rect class="cls-4" x="173.69" y="28.23" width="7.74" height="85.17"/>
    <rect class="cls-4" x="165.95" y="113.4" width="7.74" height="7.74"/>
    <rect class="cls-4" x="158.2" y="113.4" width="7.74" height="7.74"/>
    <rect class="cls-4" x="150.46" y="113.4" width="7.74" height="7.74"/>
    <rect class="cls-4" x="142.72" y="113.4" width="7.74" height="7.74"/>
    <rect class="cls-4" x="134.98" y="113.4" width="7.74" height="7.74"/>
    <rect class="cls-4" x="127.23" y="113.4" width="7.74" height="7.74"/>
    <rect class="cls-4" x="119.49" y="113.4" width="7.74" height="7.74"/>
    <rect class="cls-4" x="111.75" y="113.4" width="7.74" height="7.74"/>
    <rect class="cls-4" x="104" y="113.4" width="7.74" height="7.74"/>
    <rect class="cls-4" x="96.26" y="113.4" width="7.74" height="7.74"/>
    <rect class="cls-4" x="88.52" y="113.4" width="7.74" height="7.74"/>
    <rect class="cls-4" x="80.78" y="113.4" width="7.74" height="7.74"/>
    <rect class="cls-4" x="73.03" y="113.4" width="7.74" height="7.74"/>
    <rect class="cls-4" x="65.29" y="113.4" width="7.74" height="7.74"/>
    <rect class="cls-4" x="57.55" y="113.4" width="116.14" height="7.74"/>
    <rect class="cls-4" x="50.4" y="105.66" width="7.74" height="7.74"/>
    <rect class="cls-4" x="50.4" y="97.91" width="7.74" height="15.49"/>
    <rect class="cls-4" x="42.66" y="90.17" width="7.74" height="7.74"/>
    <rect class="cls-4" x="42.66" y="82.43" width="7.74" height="14.89"/>
    <rect class="cls-4" x="35.85" y="74.69" width="7.74" height="7.74"/>
    <rect class="cls-4" x="35.85" y="66.94" width="7.74" height="15.49"/>
    <rect class="cls-4" x="28.1" y="59.2" width="7.74" height="7.74"/>
    <rect class="cls-4" x="28.1" y="51.46" width="7.74" height="15.49"/>
    <rect class="cls-4" x="43.59" y="43.71" width="7.74" height="7.74"/>
    <rect class="cls-4" x="51.33" y="43.71" width="7.74" height="7.74"/>
    <rect class="cls-4" x="59.08" y="43.71" width="7.74" height="7.74"/>
    <rect class="cls-4" x="66.82" y="43.71" width="7.74" height="7.74"/>
    <rect class="cls-4" x="74.56" y="43.71" width="7.74" height="7.74"/>
    <rect class="cls-4" x="82.3" y="43.71" width="7.74" height="7.74"/>
    <rect class="cls-4" x="90.05" y="43.71" width="7.74" height="7.74"/>
    <rect class="cls-4" x="97.79" y="43.71" width="7.74" height="7.74"/>
    <rect class="cls-4" x="105.53" y="43.71" width="7.74" height="7.74"/>
    <rect class="cls-4" x="113.28" y="43.71" width="7.74" height="7.74"/>
    <rect class="cls-4" x="121.02" y="43.71" width="7.74" height="7.74"/>
    <rect class="cls-4" x="128.76" y="43.71" width="7.74" height="7.74"/>
    <rect class="cls-4" x="136.5" y="43.71" width="7.74" height="7.74"/>
    <rect class="cls-4" x="144.25" y="43.71" width="7.74" height="7.74"/>
    <polygon class="cls-4" points="144.25 43.71 35.85 43.71 35.85 51.46 144.25 51.46 144.25 59.2 151.99 59.2 151.99 51.46 151.99 43.71 144.25 43.71"/>
    <rect class="cls-4" x="151.99" y="59.2" width="7.74" height="7.74"/>
    <rect class="cls-4" x="151.99" y="59.2" width="7.74" height="15.49"/>
    <rect class="cls-4" x="159.27" y="74.69" width="7.74" height="7.74"/>
    <rect class="cls-4" x="159.27" y="74.69" width="7.74" height="15.49"/>
    <rect class="cls-4" x="167.01" y="90.17" width="7.74" height="7.74"/>
    <rect class="cls-4" x="167.01" y="97.32" width="7.74" height="7.74"/>
    <rect class="cls-6" x="57.55" y="35.97" width="94.44" height="7.74"/>
    <rect class="cls-6" x="151.99" y="43.71" width="7.74" height="15.49"/>
    <rect class="cls-6" x="159.27" y="59.2" width="7.74" height="15.49"/>
    <rect class="cls-6" x="167.01" y="59.2" width="6.68" height="30.97"/>
    <g>
      <rect class="cls-2" x="67.66" y="2.5" width="81.43" height="43.71"/>
      <path class="cls-4" d="M146.59,5v38.71h-76.43V5h76.43M151.59,0h-86.43v48.71h86.43V0h0Z"/>
    </g>
    <rect class="cls-7" x="70.16" y="35.97" width="76.43" height="7.74"/>
    <rect class="cls-4" x="94.82" y="28.24" width="5.94" height="5.94"/>
    <rect class="cls-4" x="110.3" y="28.24" width="5.94" height="5.94"/>
    <rect class="cls-4" x="94.82" y="36.87" width="5.94" height="8.34"/>
    <rect class="cls-4" x="100.13" y="39.84" width="10.17" height="5.37"/>
    <rect class="cls-4" x="110.3" y="36.87" width="5.94" height="8.34"/>
  </g>
  <g id="Capa_4" data-name="Capa 4">
    <rect class="cls-4" x="88.35" y="17.65" width="34.36" height="5.66"/>
    <rect class="cls-4" x="73.23" y="32.46" width="24.58" height="5.66" transform="translate(120.81 -50.23) rotate(90)"/>
    <rect class="cls-4" x="113.25" y="32.46" width="24.58" height="5.66" transform="translate(160.84 -90.25) rotate(90)"/>
  </g>
</svg>