<?xml version="1.0" encoding="UTF-8"?>
<svg id="Capa_2" data-name="Capa 2" xmlns="http://www.w3.org/2000/svg" viewBox="0 0 155.44 184.45">
  <defs>
    <style>
      .cls-1 {
        fill: #ffee76;
      }

      .cls-2 {
        letter-spacing: -.02em;
      }

      .cls-3 {
        fill: #fff;
      }

      .cls-4, .cls-5 {
        fill: #403f51;
      }

      .cls-6 {
        fill: #ffc200;
      }

      .cls-5 {
        font-family: MontserratRoman-Black, Montserrat;
        font-size: 19.5px;
        font-variation-settings: 'wght' 900;
        font-weight: 800;
      }

      .cls-7 {
        fill: #e8e8e8;
      }
    </style>
  </defs>
  <g id="Capa_1-2" data-name="Capa 1">
    <text class="cls-5" transform="translate(.52 152.88)"><tspan x="0" y="0">DESIGN </tspan><tspan class="cls-2" x="85.39" y="0">W</tspan><tspan x="108.42" y="0">ORK</tspan></text>
    <path class="cls-1" d="M8.28,51.04v14.47l1.32,1.02.64,1.87s4.94,2.64,4.94,3.06.34,4.09.43,4.94.85,3.32.81,3.91,1.24,3.45,2.6,5.98,2.55,3.3,3.06,5.68,0,7.66,0,7.66l5.95,2.81s1.71.26,1.62.85.09,6.64-.09,7.15-3.57,1.87-3.57,1.87c0,0,2.72,3.06,2.89,3.32s6.29,4.09,6.29,4.09l107.41-1.36,7.57-8.17-2.13-81.96-6.81-6.21-9.79-6.64-49.8.43s-5.89-4-6.21-4.26-3.64-2.81-5.94-2.68-28.17,2.68-28.17,2.68l-2.26.68-1.57,2.72-4.65,2.89-.37,1.96-3.91,2.55s-1.54,9.53-1.11,10.72.51,13.87.51,13.87c0,0-5.03,1.87-6.73,1.96s-12.93,2.13-12.93,2.13Z"/>
    <rect class="cls-4" x="70.01" y="5" width="7.74" height="7.74"/>
    <rect class="cls-4" x="62.26" y="5" width="7.74" height="7.74"/>
    <rect class="cls-4" x="54.52" y="5" width="7.74" height="7.74"/>
    <rect class="cls-4" x="46.78" y="5" width="7.74" height="7.74"/>
    <rect class="cls-4" x="39.03" y="5" width="38.71" height="7.74"/>
    <rect class="cls-4" x="31.29" y="12.74" width="7.74" height="7.74"/>
    <rect class="cls-4" x="23.55" y="20.49" width="7.74" height="23.23"/>
    <rect class="cls-4" x="23.55" y="28.23" width="7.74" height="7.74"/>
    <rect class="cls-4" x="23.55" y="35.97" width="7.74" height="7.74"/>
    <rect class="cls-4" x="77.75" y="12.74" width="61.94" height="7.74"/>
    <rect class="cls-4" x="85.49" y="12.74" width="7.74" height="7.74"/>
    <rect class="cls-4" x="93.23" y="12.74" width="7.74" height="7.74"/>
    <rect class="cls-4" x="100.98" y="12.74" width="7.74" height="7.74"/>
    <rect class="cls-4" x="108.72" y="12.74" width="7.74" height="7.74"/>
    <rect class="cls-4" x="116.46" y="12.74" width="7.74" height="7.74"/>
    <rect class="cls-4" x="124.21" y="12.74" width="7.74" height="7.74"/>
    <rect class="cls-4" x="131.95" y="12.74" width="7.74" height="7.74"/>
    <rect class="cls-4" x="139.69" y="20.49" width="7.74" height="7.74"/>
    <rect class="cls-4" x="147.43" y="28.23" width="7.74" height="7.74"/>
    <rect class="cls-4" x="147.43" y="35.97" width="7.74" height="7.74"/>
    <rect class="cls-4" x="147.43" y="43.71" width="7.74" height="7.74"/>
    <rect class="cls-4" x="147.43" y="51.46" width="7.74" height="7.74"/>
    <rect class="cls-4" x="147.43" y="59.2" width="7.74" height="7.74"/>
    <rect class="cls-4" x="147.43" y="66.94" width="7.74" height="7.74"/>
    <rect class="cls-4" x="147.43" y="74.69" width="7.74" height="7.74"/>
    <rect class="cls-4" x="147.43" y="82.43" width="7.74" height="7.74"/>
    <rect class="cls-4" x="147.43" y="90.17" width="7.74" height="7.74"/>
    <rect class="cls-4" x="147.43" y="97.91" width="7.74" height="7.74"/>
    <rect class="cls-4" x="147.43" y="28.23" width="7.74" height="85.17"/>
    <rect class="cls-4" x="139.69" y="113.4" width="7.74" height="7.74"/>
    <rect class="cls-4" x="131.95" y="113.4" width="7.74" height="7.74"/>
    <rect class="cls-4" x="124.21" y="113.4" width="7.74" height="7.74"/>
    <rect class="cls-4" x="116.46" y="113.4" width="7.74" height="7.74"/>
    <rect class="cls-4" x="108.72" y="113.4" width="7.74" height="7.74"/>
    <rect class="cls-4" x="100.98" y="113.4" width="7.74" height="7.74"/>
    <rect class="cls-4" x="93.23" y="113.4" width="7.74" height="7.74"/>
    <rect class="cls-4" x="85.49" y="113.4" width="7.74" height="7.74"/>
    <rect class="cls-4" x="77.75" y="113.4" width="7.74" height="7.74"/>
    <rect class="cls-4" x="70.01" y="113.4" width="7.74" height="7.74"/>
    <rect class="cls-4" x="62.26" y="113.4" width="7.74" height="7.74"/>
    <rect class="cls-4" x="54.52" y="113.4" width="7.74" height="7.74"/>
    <rect class="cls-4" x="46.78" y="113.4" width="7.74" height="7.74"/>
    <rect class="cls-4" x="39.03" y="113.4" width="7.74" height="7.74"/>
    <rect class="cls-4" x="31.29" y="113.4" width="116.14" height="7.74"/>
    <rect class="cls-4" x="24.14" y="105.66" width="7.74" height="7.74"/>
    <rect class="cls-4" x="24.14" y="97.91" width="7.74" height="15.49"/>
    <rect class="cls-4" x="16.4" y="90.17" width="7.74" height="7.74"/>
    <rect class="cls-4" x="16.4" y="82.43" width="7.74" height="14.89"/>
    <rect class="cls-4" x="9.59" y="74.69" width="7.74" height="7.74"/>
    <rect class="cls-4" x="9.59" y="66.94" width="7.74" height="15.49"/>
    <rect class="cls-4" x="1.85" y="59.2" width="7.74" height="7.74"/>
    <rect class="cls-4" x="1.85" y="51.46" width="7.74" height="15.49"/>
    <rect class="cls-4" x="17.33" y="43.71" width="7.74" height="7.74"/>
    <rect class="cls-4" x="25.08" y="43.71" width="7.74" height="7.74"/>
    <rect class="cls-4" x="32.82" y="43.71" width="7.74" height="7.74"/>
    <rect class="cls-4" x="40.56" y="43.71" width="7.74" height="7.74"/>
    <rect class="cls-4" x="48.31" y="43.71" width="7.74" height="7.74"/>
    <rect class="cls-4" x="56.05" y="43.71" width="7.74" height="7.74"/>
    <rect class="cls-4" x="63.79" y="43.71" width="7.74" height="7.74"/>
    <rect class="cls-4" x="71.53" y="43.71" width="7.74" height="7.74"/>
    <rect class="cls-4" x="79.28" y="43.71" width="7.74" height="7.74"/>
    <rect class="cls-4" x="87.02" y="43.71" width="7.74" height="7.74"/>
    <rect class="cls-4" x="94.76" y="43.71" width="7.74" height="7.74"/>
    <rect class="cls-4" x="102.51" y="43.71" width="7.74" height="7.74"/>
    <rect class="cls-4" x="110.25" y="43.71" width="7.74" height="7.74"/>
    <rect class="cls-4" x="117.99" y="43.71" width="7.74" height="7.74"/>
    <polygon class="cls-4" points="117.99 43.71 9.59 43.71 9.59 51.46 117.99 51.46 117.99 59.2 125.73 59.2 125.73 51.46 125.73 43.71 117.99 43.71"/>
    <rect class="cls-4" x="125.73" y="59.2" width="7.74" height="7.74"/>
    <rect class="cls-4" x="125.73" y="59.2" width="7.74" height="15.49"/>
    <rect class="cls-4" x="133.01" y="74.69" width="7.74" height="7.74"/>
    <rect class="cls-4" x="133.01" y="74.69" width="7.74" height="15.49"/>
    <rect class="cls-4" x="140.75" y="90.17" width="7.74" height="7.74"/>
    <rect class="cls-4" x="140.75" y="97.32" width="7.74" height="7.74"/>
    <rect class="cls-6" x="31.29" y="35.97" width="94.44" height="7.74"/>
    <rect class="cls-6" x="125.73" y="43.71" width="7.74" height="15.49"/>
    <rect class="cls-6" x="133.01" y="59.2" width="7.74" height="15.49"/>
    <rect class="cls-6" x="140.75" y="59.2" width="6.68" height="30.97"/>
    <g>
      <rect class="cls-3" x="41.4" y="2.5" width="81.43" height="43.71"/>
      <path class="cls-4" d="M120.33,5v38.71H43.9V5h76.43M125.33,0H38.9v48.71h86.43V0h0Z"/>
    </g>
    <rect class="cls-7" x="43.9" y="35.97" width="76.43" height="7.74"/>
    <rect class="cls-4" x="68.56" y="28.24" width="5.94" height="5.94"/>
    <rect class="cls-4" x="84.05" y="28.24" width="5.94" height="5.94"/>
    <rect class="cls-4" x="68.56" y="36.87" width="5.94" height="8.34"/>
    <rect class="cls-4" x="73.88" y="39.84" width="10.17" height="5.37"/>
    <rect class="cls-4" x="84.05" y="36.87" width="5.94" height="8.34"/>
  </g>
  <g id="Capa_4" data-name="Capa 4">
    <rect class="cls-4" x="62.1" y="17.65" width="34.36" height="5.66"/>
    <rect class="cls-4" x="46.97" y="32.46" width="24.58" height="5.66" transform="translate(94.56 -23.97) rotate(90)"/>
    <rect class="cls-4" x="87" y="32.46" width="24.58" height="5.66" transform="translate(134.58 -64) rotate(90)"/>
  </g>
</svg>