<?xml version="1.0" encoding="UTF-8"?>
<svg id="Capa_2" data-name="Capa 2" xmlns="http://www.w3.org/2000/svg" viewBox="0 0 213.7 199.88">
  <defs>
    <style>
      .cls-1 {
        fill: #ffee76;
      }

      .cls-2 {
        fill: #54d9d1;
      }

      .cls-3 {
        fill: #fff;
      }

      .cls-4 {
        fill: #ddbc1b;
      }

      .cls-5 {
        fill: #898d8c;
      }

      .cls-6 {
        letter-spacing: -.02em;
      }

      .cls-7, .cls-8 {
        fill: #403f51;
      }

      .cls-9 {
        fill: #ffc200;
      }

      .cls-10 {
        fill: #d0d2d2;
      }

      .cls-8 {
        font-family: MontserratRoman-ExtraBold, Montserrat;
        font-size: 26px;
        font-variation-settings: 'wght' 800;
        font-weight: 700;
      }
    </style>
  </defs>
  <g id="Capa_1-2" data-name="Capa 1">
    <rect class="cls-3" width="213.7" height="178.47"/>
    <text class="cls-8" transform="translate(42.54 170.73)"><tspan x="0" y="0">3D </tspan><tspan class="cls-6" x="44.72" y="0">W</tspan><tspan x="74.88" y="0">ORK</tspan></text>
    <g>
      <path class="cls-1" d="M25.41,56.48v14.47l1.32,1.02.64,1.87s4.94,2.64,4.94,3.06.34,4.09.43,4.94.85,3.32.81,3.91,1.24,3.45,2.6,5.98c1.36,2.53,2.55,3.3,3.06,5.68.51,2.38,0,7.66,0,7.66l5.95,2.81s1.71.26,1.62.85.09,6.64-.09,7.15-3.57,1.87-3.57,1.87c0,0,2.72,3.06,2.89,3.32s6.29,4.09,6.29,4.09l107.41-1.36,7.57-8.17-2.13-81.96-6.81-6.21-9.79-6.64-49.8.43s-5.89-4-6.21-4.26-3.64-2.81-5.94-2.68-28.17,2.68-28.17,2.68l-2.26.68-1.57,2.72-4.65,2.89-.37,1.96-3.91,2.55s-1.54,9.53-1.11,10.72c.43,1.19.51,13.87.51,13.87,0,0-5.03,1.87-6.73,1.96s-12.93,2.13-12.93,2.13Z"/>
      <rect class="cls-7" x="87.14" y="10.44" width="7.74" height="7.74"/>
      <rect class="cls-7" x="79.4" y="10.44" width="7.74" height="7.74"/>
      <rect class="cls-7" x="71.66" y="10.44" width="7.74" height="7.74"/>
      <rect class="cls-7" x="63.92" y="10.44" width="7.74" height="7.74"/>
      <rect class="cls-7" x="56.17" y="10.44" width="7.74" height="7.74"/>
      <rect class="cls-7" x="48.43" y="18.18" width="7.74" height="7.74"/>
      <rect class="cls-7" x="40.69" y="25.92" width="7.74" height="7.74"/>
      <rect class="cls-7" x="40.69" y="33.67" width="7.74" height="7.74"/>
      <rect class="cls-7" x="40.69" y="41.41" width="7.74" height="7.74"/>
      <rect class="cls-7" x="94.89" y="18.18" width="7.74" height="7.74"/>
      <rect class="cls-7" x="102.63" y="18.18" width="7.74" height="7.74"/>
      <rect class="cls-7" x="110.37" y="18.18" width="7.74" height="7.74"/>
      <rect class="cls-7" x="118.12" y="18.18" width="7.74" height="7.74"/>
      <rect class="cls-7" x="125.86" y="18.18" width="7.74" height="7.74"/>
      <rect class="cls-7" x="133.6" y="18.18" width="7.74" height="7.74"/>
      <rect class="cls-7" x="141.34" y="18.18" width="7.74" height="7.74"/>
      <rect class="cls-7" x="149.09" y="18.18" width="7.74" height="7.74"/>
      <rect class="cls-7" x="156.83" y="25.92" width="7.74" height="7.74"/>
      <rect class="cls-7" x="164.57" y="33.67" width="7.74" height="7.74"/>
      <rect class="cls-7" x="164.57" y="41.41" width="7.74" height="7.74"/>
      <rect class="cls-7" x="164.57" y="49.15" width="7.74" height="7.74"/>
      <rect class="cls-7" x="164.57" y="56.89" width="7.74" height="7.74"/>
      <rect class="cls-7" x="164.57" y="64.64" width="7.74" height="7.74"/>
      <rect class="cls-7" x="164.57" y="72.38" width="7.74" height="7.74"/>
      <rect class="cls-7" x="164.57" y="80.12" width="7.74" height="7.74"/>
      <rect class="cls-7" x="164.57" y="87.87" width="7.74" height="7.74"/>
      <rect class="cls-7" x="164.57" y="95.61" width="7.74" height="7.74"/>
      <rect class="cls-7" x="164.57" y="103.35" width="7.74" height="7.74"/>
      <rect class="cls-7" x="164.57" y="33.67" width="7.74" height="85.17"/>
      <rect class="cls-7" x="156.83" y="118.84" width="7.74" height="7.74"/>
      <rect class="cls-7" x="149.09" y="118.84" width="7.74" height="7.74"/>
      <rect class="cls-7" x="141.34" y="118.84" width="7.74" height="7.74"/>
      <rect class="cls-7" x="133.6" y="118.84" width="7.74" height="7.74"/>
      <rect class="cls-7" x="125.86" y="118.84" width="7.74" height="7.74"/>
      <rect class="cls-7" x="118.12" y="118.84" width="7.74" height="7.74"/>
      <rect class="cls-7" x="110.37" y="118.84" width="7.74" height="7.74"/>
      <rect class="cls-7" x="102.63" y="118.84" width="7.74" height="7.74"/>
      <rect class="cls-7" x="94.89" y="118.84" width="7.74" height="7.74"/>
      <rect class="cls-7" x="87.14" y="118.84" width="7.74" height="7.74"/>
      <rect class="cls-7" x="79.4" y="118.84" width="7.74" height="7.74"/>
      <rect class="cls-7" x="71.66" y="118.84" width="7.74" height="7.74"/>
      <rect class="cls-7" x="63.92" y="118.84" width="7.74" height="7.74"/>
      <rect class="cls-7" x="56.17" y="118.84" width="7.74" height="7.74"/>
      <rect class="cls-7" x="48.43" y="118.84" width="116.14" height="7.74"/>
      <rect class="cls-7" x="41.28" y="111.09" width="7.74" height="7.74"/>
      <rect class="cls-7" x="41.28" y="103.35" width="7.74" height="7.74"/>
      <rect class="cls-7" x="33.54" y="95.61" width="7.74" height="7.74"/>
      <rect class="cls-7" x="33.54" y="87.87" width="7.74" height="7.74"/>
      <rect class="cls-7" x="26.73" y="80.12" width="7.74" height="7.74"/>
      <rect class="cls-7" x="26.73" y="72.38" width="7.74" height="7.74"/>
      <rect class="cls-7" x="18.99" y="64.64" width="7.74" height="7.74"/>
      <rect class="cls-7" x="18.99" y="56.89" width="7.74" height="7.74"/>
      <rect class="cls-7" x="26.73" y="49.15" width="7.74" height="7.74"/>
      <rect class="cls-7" x="34.47" y="49.15" width="7.74" height="7.74"/>
      <rect class="cls-7" x="42.22" y="49.15" width="7.74" height="7.74"/>
      <rect class="cls-7" x="49.96" y="49.15" width="7.74" height="7.74"/>
      <rect class="cls-7" x="57.7" y="49.15" width="7.74" height="7.74"/>
      <rect class="cls-7" x="65.44" y="49.15" width="7.74" height="7.74"/>
      <rect class="cls-7" x="73.19" y="49.15" width="7.74" height="7.74"/>
      <rect class="cls-7" x="80.93" y="49.15" width="7.74" height="7.74"/>
      <rect class="cls-7" x="88.67" y="49.15" width="7.74" height="7.74"/>
      <rect class="cls-7" x="96.42" y="49.15" width="7.74" height="7.74"/>
      <rect class="cls-7" x="104.16" y="49.15" width="7.74" height="7.74"/>
      <rect class="cls-7" x="111.9" y="49.15" width="7.74" height="7.74"/>
      <rect class="cls-7" x="119.64" y="49.15" width="7.74" height="7.74"/>
      <rect class="cls-7" x="127.39" y="49.15" width="7.74" height="7.74"/>
      <rect class="cls-7" x="135.13" y="49.15" width="7.74" height="7.74"/>
      <rect class="cls-7" x="135.13" y="56.89" width="7.74" height="7.74"/>
      <rect class="cls-7" x="142.87" y="64.64" width="7.74" height="7.74"/>
      <rect class="cls-7" x="142.87" y="72.38" width="7.74" height="7.74"/>
      <rect class="cls-7" x="150.15" y="80.12" width="7.74" height="7.74"/>
      <rect class="cls-7" x="150.15" y="87.87" width="7.74" height="7.74"/>
      <rect class="cls-7" x="157.89" y="95.61" width="7.74" height="7.74"/>
      <rect class="cls-7" x="157.89" y="102.76" width="7.74" height="7.74"/>
    </g>
    <rect class="cls-9" x="150.68" y="64.64" width="7.74" height="15.49"/>
    <rect class="cls-9" x="142.87" y="49.15" width="7.74" height="15.49"/>
    <rect class="cls-9" x="48.43" y="41.92" width="7.74" height="7.23"/>
    <rect class="cls-9" x="157.89" y="64.64" width="6.68" height="30.97"/>
  </g>
  <g id="Capa_4" data-name="Capa 4">
    <g>
      <polygon class="cls-5" points="105.51 13.41 105.51 18.47 101.29 18.47 101.29 21.7 105.51 21.7 105.51 27.1 101.29 27.1 101.29 30.33 105.51 30.33 105.51 34.6 110.91 34.6 110.91 29.19 116.31 29.19 116.31 23.78 121.72 23.78 121.72 29.19 116.31 29.19 116.31 34.6 110.91 34.6 110.91 40.01 105.51 40.01 105.51 40.33 110.27 40.33 110.27 49.31 110.48 49.31 110.48 45.6 133.75 45.6 133.75 36.9 128.34 36.9 128.34 32.29 133.75 32.29 133.75 31.93 128.34 31.93 128.34 27.32 128.34 22.73 122.94 22.73 122.94 18.12 117.54 18.12 117.54 13.5 117.42 13.41 112.02 13.41 105.51 13.41"/>
      <polygon class="cls-5" points="128.89 22.71 128.34 22.27 128.34 22.71 128.89 22.71"/>
      <polygon class="cls-5" points="134.14 31.9 133.75 31.18 133.75 31.9 134.14 31.9"/>
      <polygon class="cls-5" points="123.13 18.12 122.94 17.96 122.94 18.12 123.13 18.12"/>
      <polygon class="cls-5" points="73.17 27.32 65.98 27.32 65.98 31.93 60.58 31.93 60.58 33.07 60.58 37.7 65.98 37.7 65.98 41.92 84.33 41.92 84.33 46.94 60.58 46.94 60.58 49.31 84.69 49.31 84.69 40.33 89.45 40.33 89.45 35.74 89.38 35.74 89.38 40.01 83.98 40.01 83.98 34.6 78.57 34.6 78.57 29.19 73.17 29.19 73.17 27.32"/>
      <path class="cls-5" d="M76.79,18.12v5.67h1.78v5.41h5.4v5.41h4.84v-4.27h4.21v-3.23h-4.21v-5.41h4.21v-3.23h-4.21v-5.06h-11.96l-.08.1v4.61ZM76.9,13.47h5.4v4.62h-5.4v-4.62Z"/>
      <polygon class="cls-7" points="60.58 31.91 60.58 31.9 55.17 31.9 55.17 33.07 57.88 33.07 60.58 31.91"/>
      <polygon class="cls-7" points="60.58 31.93 60.58 31.91 57.88 33.07 60.58 33.07 60.58 31.93"/>
      <polygon class="cls-7" points="63.28 30.75 63.28 27.32 60.58 27.32 60.58 31.9 60.58 31.91 63.28 30.75"/>
      <polygon class="cls-7" points="65.98 31.93 65.98 27.32 63.28 27.32 63.28 30.75 60.58 31.91 60.58 31.93 65.98 31.93"/>
      <polygon class="cls-7" points="63.28 25.01 65.98 22.72 65.98 22.71 60.58 22.71 60.58 27.32 63.28 27.32 63.28 25.01"/>
      <polygon class="cls-7" points="65.98 22.73 65.98 22.72 63.28 25.01 63.28 27.32 65.98 27.32 65.98 22.73"/>
      <polygon class="cls-7" points="68.68 20.42 71.39 18.51 71.39 18.12 65.98 18.12 65.98 22.71 66 22.71 68.68 20.42"/>
      <polygon class="cls-7" points="71.39 18.51 68.68 20.42 66 22.71 71.39 22.71 71.39 18.51"/>
      <polygon class="cls-7" points="101.29 35.74 97.25 35.74 97.08 35.74 93.04 35.74 89.45 35.74 89.45 40.33 105.51 40.33 105.51 40.01 105.51 35.74 101.29 35.74"/>
      <polygon class="cls-7" points="89.45 40.35 89.45 40.33 84.69 40.33 84.69 49.31 89.45 49.31 89.45 40.35"/>
      <polygon class="cls-7" points="105.51 49.31 110.27 49.31 110.27 40.33 105.51 40.33 105.51 40.35 105.51 49.31"/>
      <polygon class="cls-7" points="74.59 16.25 76.79 13.5 71.39 13.5 71.39 18.09 71.98 18.09 74.59 16.25"/>
      <polygon class="cls-7" points="71.98 18.09 76.79 18.09 76.79 13.5 74.59 16.25 71.98 18.09"/>
      <rect class="cls-7" x="117.42" y="8.79" width=".4" height="4.61"/>
      <rect class="cls-7" x="55.17" y="33.07" width="2.7" height="16.24"/>
      <polygon class="cls-7" points="60.58 46.94 60.58 42.31 60.58 41.92 60.58 37.7 60.58 33.07 57.88 33.07 57.88 49.31 60.58 49.31 60.58 46.94"/>
      <polygon class="cls-2" points="97.08 35.74 97.08 13.41 93.04 13.41 93.04 18.47 93.04 21.7 93.04 27.1 93.04 30.33 93.04 35.74 97.08 35.74"/>
      <rect class="cls-2" x="88.82" y="21.7" width="4.21" height="5.41"/>
      <rect class="cls-2" x="88.82" y="13.41" width="4.21" height="5.06"/>
      <polygon class="cls-2" points="89.38 35.74 89.45 35.74 93.04 35.74 93.04 30.33 88.82 30.33 88.82 34.6 89.38 34.6 89.38 35.74"/>
      <polygon class="cls-4" points="97.25 13.41 97.25 35.74 101.29 35.74 101.29 30.33 101.29 27.1 101.29 21.7 101.29 18.47 101.29 13.41 97.25 13.41"/>
      <rect class="cls-4" x="97.08" y="13.41" width=".18" height="22.33"/>
      <rect class="cls-4" x="101.29" y="21.7" width="4.21" height="5.41"/>
      <rect class="cls-4" x="101.29" y="13.41" width="4.21" height="5.06"/>
      <polygon class="cls-4" points="105.51 35.74 105.51 34.6 105.51 30.33 101.29 30.33 101.29 35.74 105.51 35.74"/>
      <polygon class="cls-2" points="89.38 40.01 89.38 35.74 88.82 35.74 88.82 34.6 83.98 34.6 83.98 40.01 89.38 40.01"/>
      <rect class="cls-2" x="88.82" y="34.6" width=".56" height="1.14"/>
      <polygon class="cls-4" points="105.51 40.01 110.91 40.01 110.91 34.6 105.51 34.6 105.51 35.74 105.51 40.01"/>
      <rect class="cls-4" x="110.91" y="29.19" width="5.4" height="5.41"/>
      <rect class="cls-4" x="116.31" y="23.78" width="5.4" height="5.41"/>
      <rect class="cls-2" x="78.57" y="29.19" width="5.4" height="5.41"/>
      <polygon class="cls-2" points="73.17 27.32 73.17 29.19 78.57 29.19 78.57 23.78 76.79 23.78 73.17 23.78 73.17 27.32"/>
      <polygon class="cls-7" points="139.15 33.07 139.15 31.9 134.14 31.9 134.79 33.07 139.15 33.07"/>
      <polygon class="cls-7" points="133.75 31.93 133.75 32.29 133.75 33.07 134.79 33.07 134.14 31.9 133.75 31.9 133.75 31.93"/>
      <polygon class="cls-7" points="133.72 31.14 133.75 31.18 133.75 27.32 131.73 27.32 133.72 31.14"/>
      <polygon class="cls-7" points="131.73 27.32 128.34 27.32 128.34 31.93 133.75 31.93 133.75 31.9 133.75 31.18 133.72 31.14 131.73 27.32"/>
      <polygon class="cls-7" points="131.73 27.32 133.75 27.32 133.75 22.71 128.89 22.71 129.63 23.3 131.73 27.32"/>
      <polygon class="cls-7" points="128.34 22.73 128.34 27.32 131.73 27.32 129.63 23.3 128.89 22.71 128.34 22.71 128.34 22.73"/>
      <polygon class="cls-7" points="128.34 18.12 123.13 18.12 128.34 22.27 128.34 18.12"/>
      <polygon class="cls-7" points="122.94 22.73 128.34 22.73 128.34 22.71 128.34 22.27 123.13 18.12 122.94 18.12 122.94 22.73"/>
      <polygon class="cls-10" points="133.75 32.29 128.34 32.29 128.34 36.9 133.75 36.9 133.75 33.07 133.75 32.29"/>
      <rect class="cls-10" x="60.58" y="37.7" width="5.4" height="4.22"/>
      <polygon class="cls-10" points="73.17 23.78 71.39 23.78 71.39 22.73 65.98 22.73 65.98 27.32 73.17 27.32 73.17 23.78"/>
      <polygon class="cls-10" points="66 22.71 65.98 22.71 65.98 22.72 66 22.71"/>
      <polygon class="cls-10" points="71.39 22.73 71.39 22.71 66 22.71 65.98 22.72 65.98 22.73 71.39 22.73"/>
      <polygon class="cls-10" points="71.95 18.12 71.39 18.12 71.39 18.51 71.95 18.12"/>
      <polygon class="cls-10" points="73.17 22.71 73.17 23.78 76.79 23.78 76.79 18.12 71.95 18.12 71.39 18.51 71.39 22.71 73.17 22.71"/>
      <polygon class="cls-10" points="71.98 18.09 71.39 18.09 71.39 18.12 71.95 18.12 71.98 18.09"/>
      <polygon class="cls-10" points="76.79 18.09 71.98 18.09 71.95 18.12 76.79 18.12 76.79 18.09"/>
      <polygon class="cls-10" points="73.17 23.78 73.17 22.71 71.39 22.71 71.39 22.73 71.39 23.78 73.17 23.78"/>
      <rect class="cls-10" x="76.9" y="13.47" width="5.4" height="4.62"/>
      <polygon class="cls-7" points="122.94 17.96 122.94 13.5 117.54 13.5 120.24 15.81 122.94 17.96"/>
      <polygon class="cls-7" points="122.94 18.12 122.94 17.96 120.24 15.81 117.54 13.5 117.54 18.12 122.94 18.12"/>
      <polygon class="cls-7" points="114.72 11.1 117.42 13.41 117.42 8.79 112.02 8.79 112.02 11.56 114.72 11.1"/>
      <polygon class="cls-7" points="114.72 11.1 112.02 11.56 112.02 11.81 114.72 11.1"/>
      <polygon class="cls-7" points="112.02 11.81 112.02 13.41 117.42 13.41 114.72 11.1 112.02 11.81"/>
      <polygon class="cls-7" points="76.9 8.79 76.5 8.79 76.5 13.41 76.87 13.41 76.9 13.36 76.9 8.79"/>
      <polygon class="cls-7" points="76.9 13.36 76.87 13.41 76.9 13.41 76.9 13.36"/>
      <polygon class="cls-7" points="78.32 11.58 82.31 11.68 82.31 8.79 76.9 8.79 76.9 13.36 78.32 11.58"/>
      <polygon class="cls-7" points="78.32 11.58 76.9 13.36 76.9 13.41 82.31 13.41 82.31 11.68 78.32 11.58"/>
      <polygon class="cls-7" points="107.89 12.27 112.02 11.56 112.02 8.79 82.31 8.79 82.31 11.68 107.89 12.27"/>
      <polygon class="cls-7" points="93.04 13.06 97.08 13.06 97.25 13.06 101.29 13.06 105.51 13.06 105.51 13.41 112.02 13.41 112.02 11.81 110.27 12.27 112.02 11.81 112.02 11.56 107.89 12.27 82.31 11.68 82.31 13.41 88.82 13.41 88.82 13.06 93.04 13.06"/>
      <rect class="cls-7" x="93.04" y="13.06" width="4.04" height=".34"/>
      <rect class="cls-7" x="88.82" y="13.06" width="4.21" height=".34"/>
      <rect class="cls-7" x="97.25" y="13.06" width="4.04" height=".34"/>
      <rect class="cls-7" x="97.08" y="13.06" width=".18" height=".34"/>
      <rect class="cls-7" x="101.29" y="13.06" width="4.21" height=".34"/>
      <polygon class="cls-7" points="137.74 38.43 137.1 49.31 139.15 49.31 139.15 33.07 134.79 33.07 137.74 38.43"/>
      <polygon class="cls-7" points="134.23 49.31 137.1 49.31 137.74 38.43 134.79 33.07 133.75 33.07 133.75 36.9 133.75 45.6 134.23 45.6 134.23 49.31"/>
      <polygon class="cls-10" points="84.33 41.92 65.98 41.92 65.98 42.31 60.58 42.31 60.58 46.94 84.33 46.94 84.33 41.92"/>
      <rect class="cls-10" x="60.58" y="41.92" width="5.4" height=".39"/>
      <rect class="cls-10" x="110.48" y="45.6" width="23.27" height="3.72"/>
      <rect class="cls-10" x="133.75" y="45.6" width=".48" height="3.72"/>
      <rect class="cls-10" x="89.45" y="40.35" width="16.06" height="8.96"/>
      <rect class="cls-10" x="89.45" y="40.33" width="16.06" height=".03"/>
      <rect class="cls-10" x="110.48" y="49.31" width="23.27" height="1.3"/>
      <rect class="cls-10" x="133.75" y="49.31" width=".48" height="1.3"/>
      <rect class="cls-9" x="92.54" y="43.43" width="10.09" height="5.88"/>
    </g>
  </g>
</svg>