<?xml version="1.0" encoding="UTF-8"?>
<svg id="Capa_2" data-name="Capa 2" xmlns="http://www.w3.org/2000/svg" viewBox="0 0 153.33 187.25">
  <defs>
    <style>
      .cls-1 {
        fill: #ffee76;
      }

      .cls-2 {
        letter-spacing: -.02em;
      }

      .cls-3 {
        fill: #54d9d1;
      }

      .cls-4 {
        fill: #ddbc1b;
      }

      .cls-5 {
        fill: #898d8c;
      }

      .cls-6, .cls-7 {
        fill: #403f51;
      }

      .cls-8 {
        fill: #ffc200;
      }

      .cls-9 {
        fill: #d0d2d2;
      }

      .cls-7 {
        font-family: MontserratRoman-Black, Montserrat;
        font-size: 19.5px;
        font-variation-settings: 'wght' 900;
        font-weight: 800;
      }
    </style>
  </defs>
  <g id="Capa_1-2" data-name="Capa 1">
    <text class="cls-7" transform="translate(28.92 155.68)"><tspan x="0" y="0">3D </tspan><tspan class="cls-2" x="33.93" y="0">W</tspan><tspan x="56.96" y="0">ORK</tspan></text>
    <g>
      <path class="cls-1" d="M6.43,53.84v14.47l1.32,1.02.64,1.87s4.94,2.64,4.94,3.06.34,4.09.43,4.94.85,3.32.81,3.91,1.24,3.45,2.6,5.98c1.36,2.53,2.55,3.3,3.06,5.68.51,2.38,2.08,5.94,2.08,5.94l3.87,4.53s1.71.26,1.62.85.09,6.64-.09,7.15-3.57,1.87-3.57,1.87c0,0,5.74.83,5.91,1.08s3.28,6.32,3.28,6.32l107.41-1.36,7.57-8.17-2.13-81.96-6.81-6.21-9.79-6.64-49.8.43s-5.89-4-6.21-4.26-3.64-2.81-5.94-2.68-28.17,2.68-28.17,2.68l-2.26.68-1.57,2.72-4.65,2.89-.37,1.96-3.91,2.55s-1.54,9.53-1.11,10.72c.43,1.19.51,13.87.51,13.87,0,0-5.03,1.87-6.73,1.96s-12.93,2.13-12.93,2.13Z"/>
      <rect class="cls-6" x="37.19" y="7.8" width="38.71" height="7.74"/>
      <rect class="cls-6" x="60.41" y="7.8" width="7.74" height="7.74"/>
      <rect class="cls-6" x="52.67" y="7.8" width="7.74" height="7.74"/>
      <rect class="cls-6" x="44.93" y="7.8" width="7.74" height="7.74"/>
      <rect class="cls-6" x="37.19" y="7.8" width="7.74" height="7.74"/>
      <rect class="cls-6" x="29.44" y="15.54" width="7.74" height="7.74"/>
      <rect class="cls-6" x="21.7" y="23.28" width="7.74" height="7.74"/>
      <rect class="cls-6" x="21.7" y="31.03" width="7.74" height="7.74"/>
      <rect class="cls-6" x="21.7" y="23.28" width="7.74" height="23.23"/>
      <rect class="cls-6" x="75.9" y="15.54" width="61.94" height="7.74"/>
      <rect class="cls-6" x="83.64" y="15.54" width="7.74" height="7.74"/>
      <rect class="cls-6" x="91.39" y="15.54" width="7.74" height="7.74"/>
      <rect class="cls-6" x="99.13" y="15.54" width="7.74" height="7.74"/>
      <rect class="cls-6" x="106.87" y="15.54" width="7.74" height="7.74"/>
      <rect class="cls-6" x="114.61" y="15.54" width="7.74" height="7.74"/>
      <rect class="cls-6" x="122.36" y="15.54" width="7.74" height="7.74"/>
      <rect class="cls-6" x="130.1" y="15.54" width="7.74" height="7.74"/>
      <rect class="cls-6" x="137.84" y="23.28" width="7.74" height="7.74"/>
      <rect class="cls-6" x="145.59" y="31.03" width="7.74" height="7.74"/>
      <rect class="cls-6" x="145.59" y="38.77" width="7.74" height="7.74"/>
      <rect class="cls-6" x="145.59" y="46.51" width="7.74" height="7.74"/>
      <rect class="cls-6" x="145.59" y="54.26" width="7.74" height="7.74"/>
      <rect class="cls-6" x="145.59" y="62" width="7.74" height="7.74"/>
      <rect class="cls-6" x="145.59" y="69.74" width="7.74" height="7.74"/>
      <rect class="cls-6" x="145.59" y="77.48" width="7.74" height="7.74"/>
      <rect class="cls-6" x="145.59" y="85.23" width="7.74" height="7.74"/>
      <rect class="cls-6" x="145.59" y="92.97" width="7.74" height="7.74"/>
      <rect class="cls-6" x="145.59" y="100.71" width="7.74" height="7.74"/>
      <rect class="cls-6" x="145.59" y="31.03" width="7.74" height="85.17"/>
      <rect class="cls-6" x="137.84" y="116.2" width="7.74" height="7.74"/>
      <rect class="cls-6" x="130.1" y="116.2" width="7.74" height="7.74"/>
      <rect class="cls-6" x="122.36" y="116.2" width="7.74" height="7.74"/>
      <rect class="cls-6" x="114.61" y="116.2" width="7.74" height="7.74"/>
      <rect class="cls-6" x="106.87" y="116.2" width="7.74" height="7.74"/>
      <rect class="cls-6" x="99.13" y="116.2" width="7.74" height="7.74"/>
      <rect class="cls-6" x="91.39" y="116.2" width="7.74" height="7.74"/>
      <rect class="cls-6" x="83.64" y="116.2" width="7.74" height="7.74"/>
      <rect class="cls-6" x="75.9" y="116.2" width="7.74" height="7.74"/>
      <rect class="cls-6" x="68.16" y="116.2" width="7.74" height="7.74"/>
      <rect class="cls-6" x="60.41" y="116.2" width="7.74" height="7.74"/>
      <rect class="cls-6" x="52.67" y="116.2" width="7.74" height="7.74"/>
      <rect class="cls-6" x="44.93" y="116.2" width="7.74" height="7.74"/>
      <rect class="cls-6" x="37.19" y="116.2" width="7.74" height="7.74"/>
      <rect class="cls-6" x="29.44" y="116.2" width="116.14" height="7.74"/>
      <rect class="cls-6" x="22.29" y="108.46" width="7.74" height="7.74"/>
      <rect class="cls-6" x="22.29" y="100.71" width="7.74" height="15.49"/>
      <rect class="cls-6" x="14.55" y="92.97" width="7.74" height="7.74"/>
      <rect class="cls-6" x="14.55" y="85.23" width="7.74" height="15.49"/>
      <rect class="cls-6" x="7.74" y="77.48" width="7.74" height="7.74"/>
      <rect class="cls-6" x="7.74" y="69.74" width="7.74" height="15.49"/>
      <rect class="cls-6" y="54.26" width="7.74" height="15.49"/>
      <rect class="cls-6" y="54.26" width="7.74" height="7.74"/>
      <rect class="cls-6" x="15.49" y="46.51" width="7.74" height="7.74"/>
      <rect class="cls-6" x="23.23" y="46.51" width="7.74" height="7.74"/>
      <rect class="cls-6" x="30.97" y="46.51" width="7.74" height="7.74"/>
      <rect class="cls-6" x="38.71" y="46.51" width="7.74" height="7.74"/>
      <rect class="cls-6" x="46.46" y="46.51" width="7.74" height="7.74"/>
      <rect class="cls-6" x="54.2" y="46.51" width="7.74" height="7.74"/>
      <rect class="cls-6" x="61.94" y="46.51" width="7.74" height="7.74"/>
      <rect class="cls-6" x="69.69" y="46.51" width="7.74" height="7.74"/>
      <rect class="cls-6" x="77.43" y="46.51" width="7.74" height="7.74"/>
      <rect class="cls-6" x="85.17" y="46.51" width="7.74" height="7.74"/>
      <rect class="cls-6" x="92.91" y="46.51" width="7.74" height="7.74"/>
      <rect class="cls-6" x="100.66" y="46.51" width="7.74" height="7.74"/>
      <rect class="cls-6" x="108.4" y="46.51" width="7.74" height="7.74"/>
      <rect class="cls-6" x="116.14" y="46.51" width="7.74" height="7.74"/>
      <polygon class="cls-6" points="123.89 50.38 123.89 46.51 7.74 46.51 7.74 54.26 116.14 54.26 116.14 62 123.89 62 123.89 50.38 123.89 50.38"/>
      <rect class="cls-6" x="123.89" y="62" width="7.74" height="7.74"/>
      <rect class="cls-6" x="123.89" y="62" width="7.74" height="15.49"/>
      <rect class="cls-6" x="131.16" y="77.48" width="7.74" height="7.74"/>
      <rect class="cls-6" x="131.16" y="77.48" width="7.74" height="15.49"/>
      <rect class="cls-6" x="138.9" y="92.97" width="7.74" height="7.74"/>
      <rect class="cls-6" x="138.9" y="92.97" width="7.74" height="14.89"/>
    </g>
    <rect class="cls-8" x="131.69" y="62" width="7.74" height="15.49"/>
    <rect class="cls-8" x="123.89" y="46.51" width="7.74" height="15.49"/>
    <rect class="cls-8" x="29.44" y="39.28" width="7.74" height="7.23"/>
    <rect class="cls-8" x="138.91" y="62" width="6.68" height="30.97"/>
  </g>
  <g id="Capa_4" data-name="Capa 4">
    <g>
      <polygon class="cls-5" points="88.35 5.32 88.35 11.17 83.89 11.17 83.89 14.89 88.35 14.89 88.35 21.13 83.89 21.13 83.89 24.85 88.35 24.85 88.35 29.78 94.05 29.78 94.05 23.54 99.76 23.54 99.76 17.3 105.47 17.3 105.47 23.54 99.76 23.54 99.76 29.78 94.05 29.78 94.05 36.02 88.35 36.02 88.35 36.39 93.37 36.39 93.37 46.76 93.6 46.76 93.6 42.47 118.18 42.47 118.18 32.44 112.47 32.44 112.47 27.12 118.18 27.12 118.18 26.71 112.47 26.71 112.47 21.38 112.47 16.08 106.76 16.08 106.76 10.76 101.05 10.76 101.05 5.43 100.93 5.32 95.23 5.32 88.35 5.32"/>
      <polygon class="cls-5" points="113.04 16.06 112.47 15.56 112.47 16.06 113.04 16.06"/>
      <polygon class="cls-5" points="118.59 26.67 118.18 25.84 118.18 26.67 118.59 26.67"/>
      <polygon class="cls-5" points="106.96 10.76 106.76 10.58 106.76 10.76 106.96 10.76"/>
      <polygon class="cls-5" points="54.19 21.38 46.6 21.38 46.6 26.71 40.89 26.71 40.89 28.02 40.89 33.36 46.6 33.36 46.6 38.23 65.97 38.23 65.97 44.02 40.89 44.02 40.89 46.76 66.36 46.76 66.36 36.39 71.39 36.39 71.39 31.09 71.32 31.09 71.32 36.02 65.61 36.02 65.61 29.78 59.9 29.78 59.9 23.54 54.19 23.54 54.19 21.38"/>
      <path class="cls-5" d="M58.02,10.76v6.54h1.88v6.24h5.71v6.24h5.12v-4.93h4.45v-3.72h-4.45v-6.24h4.45v-3.72h-4.45v-5.84h-12.63l-.08.11v5.32ZM58.13,5.4h5.71v5.33h-5.71v-5.33Z"/>
      <polygon class="cls-6" points="40.89 26.68 40.89 26.67 35.18 26.67 35.18 28.02 38.04 28.02 40.89 26.68"/>
      <polygon class="cls-6" points="40.89 26.71 40.89 26.68 38.04 28.02 40.89 28.02 40.89 26.71"/>
      <polygon class="cls-6" points="43.74 25.34 43.74 21.38 40.89 21.38 40.89 26.67 40.89 26.68 43.74 25.34"/>
      <polygon class="cls-6" points="46.6 26.71 46.6 21.38 43.74 21.38 43.74 25.34 40.89 26.68 40.89 26.71 46.6 26.71"/>
      <polygon class="cls-6" points="43.74 18.72 46.6 16.07 46.6 16.06 40.89 16.06 40.89 21.38 43.74 21.38 43.74 18.72"/>
      <polygon class="cls-6" points="46.6 16.08 46.6 16.07 43.74 18.72 43.74 21.38 46.6 21.38 46.6 16.08"/>
      <polygon class="cls-6" points="49.45 13.42 52.31 11.22 52.31 10.76 46.6 10.76 46.6 16.06 46.61 16.06 49.45 13.42"/>
      <polygon class="cls-6" points="52.31 11.22 49.45 13.42 46.61 16.06 52.31 16.06 52.31 11.22"/>
      <polygon class="cls-6" points="83.89 31.09 79.63 31.09 79.44 31.09 75.18 31.09 71.39 31.09 71.39 36.39 88.35 36.39 88.35 36.02 88.35 31.09 83.89 31.09"/>
      <polygon class="cls-6" points="71.39 36.42 71.39 36.39 66.36 36.39 66.36 46.76 71.39 46.76 71.39 36.42"/>
      <polygon class="cls-6" points="88.35 46.76 93.37 46.76 93.37 36.39 88.35 36.39 88.35 36.42 88.35 46.76"/>
      <polygon class="cls-6" points="55.69 8.61 58.02 5.43 52.31 5.43 52.31 10.73 52.94 10.73 55.69 8.61"/>
      <polygon class="cls-6" points="52.94 10.73 58.02 10.73 58.02 5.43 55.69 8.61 52.94 10.73"/>
      <rect class="cls-6" x="100.93" width=".42" height="5.32"/>
      <rect class="cls-6" x="35.18" y="28.02" width="2.85" height="18.74"/>
      <polygon class="cls-6" points="40.89 44.02 40.89 38.68 40.89 38.23 40.89 33.36 40.89 28.02 38.04 28.02 38.04 46.76 40.89 46.76 40.89 44.02"/>
      <polygon class="cls-3" points="79.44 31.09 79.44 5.32 75.18 5.32 75.18 11.17 75.18 14.89 75.18 21.13 75.18 24.85 75.18 31.09 79.44 31.09"/>
      <rect class="cls-3" x="70.72" y="14.89" width="4.45" height="6.24"/>
      <rect class="cls-3" x="70.72" y="5.32" width="4.45" height="5.84"/>
      <polygon class="cls-3" points="71.32 31.09 71.39 31.09 75.18 31.09 75.18 24.85 70.72 24.85 70.72 29.78 71.32 29.78 71.32 31.09"/>
      <polygon class="cls-4" points="79.63 5.32 79.63 31.09 83.89 31.09 83.89 24.85 83.89 21.13 83.89 14.89 83.89 11.17 83.89 5.32 79.63 5.32"/>
      <rect class="cls-4" x="79.44" y="5.32" width=".19" height="25.77"/>
      <rect class="cls-4" x="83.89" y="14.89" width="4.45" height="6.24"/>
      <rect class="cls-4" x="83.89" y="5.32" width="4.45" height="5.84"/>
      <polygon class="cls-4" points="88.35 31.09 88.35 29.78 88.35 24.85 83.89 24.85 83.89 31.09 88.35 31.09"/>
      <polygon class="cls-3" points="71.32 36.02 71.32 31.09 70.72 31.09 70.72 29.78 65.61 29.78 65.61 36.02 71.32 36.02"/>
      <rect class="cls-3" x="70.72" y="29.78" width=".59" height="1.32"/>
      <polygon class="cls-4" points="88.35 36.02 94.05 36.02 94.05 29.78 88.35 29.78 88.35 31.09 88.35 36.02"/>
      <rect class="cls-4" x="94.05" y="23.54" width="5.71" height="6.24"/>
      <rect class="cls-4" x="99.76" y="17.3" width="5.71" height="6.24"/>
      <rect class="cls-3" x="59.9" y="23.54" width="5.71" height="6.24"/>
      <polygon class="cls-3" points="54.19 21.38 54.19 23.54 59.9 23.54 59.9 17.3 58.02 17.3 54.19 17.3 54.19 21.38"/>
      <polygon class="cls-6" points="123.89 28.02 123.89 26.67 118.59 26.67 119.28 28.02 123.89 28.02"/>
      <polygon class="cls-6" points="118.18 26.71 118.18 27.12 118.18 28.02 119.28 28.02 118.59 26.67 118.18 26.67 118.18 26.71"/>
      <polygon class="cls-6" points="118.15 25.79 118.18 25.84 118.18 21.38 116.05 21.38 118.15 25.79"/>
      <polygon class="cls-6" points="116.05 21.38 112.47 21.38 112.47 26.71 118.18 26.71 118.18 26.67 118.18 25.84 118.15 25.79 116.05 21.38"/>
      <polygon class="cls-6" points="116.05 21.38 118.18 21.38 118.18 16.06 113.04 16.06 113.83 16.74 116.05 21.38"/>
      <polygon class="cls-6" points="112.47 16.08 112.47 21.38 116.05 21.38 113.83 16.74 113.04 16.06 112.47 16.06 112.47 16.08"/>
      <polygon class="cls-6" points="112.47 10.76 106.96 10.76 112.47 15.56 112.47 10.76"/>
      <polygon class="cls-6" points="106.76 16.08 112.47 16.08 112.47 16.06 112.47 15.56 106.96 10.76 106.76 10.76 106.76 16.08"/>
      <polygon class="cls-9" points="118.18 27.12 112.47 27.12 112.47 32.44 118.18 32.44 118.18 28.02 118.18 27.12"/>
      <rect class="cls-9" x="40.89" y="33.36" width="5.71" height="4.87"/>
      <polygon class="cls-9" points="54.19 17.3 52.31 17.3 52.31 16.08 46.6 16.08 46.6 21.38 54.19 21.38 54.19 17.3"/>
      <polygon class="cls-9" points="46.61 16.06 46.6 16.06 46.6 16.07 46.61 16.06"/>
      <polygon class="cls-9" points="52.31 16.08 52.31 16.06 46.61 16.06 46.6 16.07 46.6 16.08 52.31 16.08"/>
      <polygon class="cls-9" points="52.9 10.76 52.31 10.76 52.31 11.22 52.9 10.76"/>
      <polygon class="cls-9" points="54.19 16.06 54.19 17.3 58.02 17.3 58.02 10.76 52.9 10.76 52.31 11.22 52.31 16.06 54.19 16.06"/>
      <polygon class="cls-9" points="52.94 10.73 52.31 10.73 52.31 10.76 52.9 10.76 52.94 10.73"/>
      <polygon class="cls-9" points="58.02 10.73 52.94 10.73 52.9 10.76 58.02 10.76 58.02 10.73"/>
      <polygon class="cls-9" points="54.19 17.3 54.19 16.06 52.31 16.06 52.31 16.08 52.31 17.3 54.19 17.3"/>
      <rect class="cls-9" x="58.13" y="5.4" width="5.71" height="5.33"/>
      <polygon class="cls-6" points="106.76 10.58 106.76 5.43 101.05 5.43 103.91 8.1 106.76 10.58"/>
      <polygon class="cls-6" points="106.76 10.76 106.76 10.58 103.91 8.1 101.05 5.43 101.05 10.76 106.76 10.76"/>
      <polygon class="cls-6" points="98.08 2.66 100.93 5.32 100.93 0 95.23 0 95.23 3.2 98.08 2.66"/>
      <polygon class="cls-6" points="98.08 2.66 95.23 3.2 95.23 3.48 98.08 2.66"/>
      <polygon class="cls-6" points="95.23 3.48 95.23 5.32 100.93 5.32 98.08 2.66 95.23 3.48"/>
      <polygon class="cls-6" points="58.13 0 57.71 0 57.71 5.32 58.1 5.32 58.13 5.27 58.13 0"/>
      <polygon class="cls-6" points="58.13 5.27 58.1 5.32 58.13 5.32 58.13 5.27"/>
      <polygon class="cls-6" points="59.64 3.22 63.84 3.33 63.84 0 58.13 0 58.13 5.27 59.64 3.22"/>
      <polygon class="cls-6" points="59.64 3.22 58.13 5.27 58.13 5.32 63.84 5.32 63.84 3.33 59.64 3.22"/>
      <polygon class="cls-6" points="90.86 4.01 95.23 3.2 95.23 0 63.84 0 63.84 3.33 90.86 4.01"/>
      <polygon class="cls-6" points="75.18 4.93 79.44 4.93 79.63 4.93 83.89 4.93 88.35 4.93 88.35 5.32 95.23 5.32 95.23 3.48 93.37 4.01 95.23 3.48 95.23 3.2 90.86 4.01 63.84 3.33 63.84 5.32 70.72 5.32 70.72 4.93 75.18 4.93"/>
      <rect class="cls-6" x="75.18" y="4.93" width="4.27" height=".4"/>
      <rect class="cls-6" x="70.72" y="4.93" width="4.45" height=".4"/>
      <rect class="cls-6" x="79.63" y="4.93" width="4.27" height=".4"/>
      <rect class="cls-6" x="79.44" y="4.93" width=".19" height=".4"/>
      <rect class="cls-6" x="83.89" y="4.93" width="4.45" height=".4"/>
      <polygon class="cls-6" points="122.39 34.2 121.72 46.76 123.89 46.76 123.89 28.02 119.28 28.02 122.39 34.2"/>
      <polygon class="cls-6" points="118.68 46.76 121.72 46.76 122.39 34.2 119.28 28.02 118.18 28.02 118.18 32.44 118.18 42.47 118.68 42.47 118.68 46.76"/>
      <polygon class="cls-9" points="65.97 38.23 46.6 38.23 46.6 38.68 40.89 38.68 40.89 44.02 65.97 44.02 65.97 38.23"/>
      <rect class="cls-9" x="40.89" y="38.23" width="5.71" height=".45"/>
      <rect class="cls-9" x="93.6" y="42.47" width="24.58" height="4.29"/>
      <rect class="cls-9" x="118.18" y="42.47" width=".5" height="4.29"/>
      <rect class="cls-9" x="71.39" y="36.42" width="16.96" height="10.34"/>
      <rect class="cls-9" x="71.39" y="36.39" width="16.96" height=".03"/>
      <rect class="cls-9" x="93.6" y="46.76" width="24.58" height="1.5"/>
      <rect class="cls-9" x="118.18" y="46.76" width=".5" height="1.5"/>
      <rect class="cls-8" x="74.66" y="39.98" width="10.65" height="6.78"/>
    </g>
  </g>
</svg>