<?xml version="1.0" encoding="UTF-8"?>
<svg id="Capa_2" data-name="Capa 2" xmlns="http://www.w3.org/2000/svg" viewBox="0 0 355.33 57.78">
  <defs>
    <style>
      .cls-1 {
        fill: #fff;
      }

      .cls-2 {
        fill: #5862f7;
        stroke: #5862f7;
        stroke-miterlimit: 10;
        stroke-width: 3.69px;
      }
    </style>
  </defs>
  <g id="Capa_1-2" data-name="Capa 1">
    <rect class="cls-2" x="1.84" y="1.84" width="351.64" height="54.09"/>
    <g>
      <path class="cls-1" d="M79.22,41.22h.69c1.32,0,2.04-.69,2.04-1.95v-11.07h-2.31v-3.99h2.31v-1.02c0-3.6,2.04-5.46,6-5.46h1.71v3.99h-1.29c-1.32,0-2.04.69-2.04,1.95v.54h3.33v3.99h-3.33v11.55c0,3.6-2.04,5.46-6,5.46h-1.11v-3.99ZM91.84,19.62c0-1.53,1.17-2.67,2.7-2.67s2.73,1.14,2.73,2.67-1.17,2.7-2.73,2.7-2.7-1.14-2.7-2.7ZM92.35,24.21h4.38v15.3h-4.38v-15.3Z"/>
      <path class="cls-1" d="M100.28,24.21h4.38v1.5c1.2-1.23,2.76-1.86,4.65-1.86,3.51,0,5.85,2.31,5.85,5.82v4.38c0,.78.45,1.23,1.23,1.23h.3v4.23h-1.23c-3.09,0-4.68-1.53-4.68-4.5v-3.87c0-1.86-1.17-3.06-2.94-3.06-1.89,0-3.18,1.23-3.18,3.12v8.31h-4.38v-15.3Z"/>
      <path class="cls-1" d="M117.95,31.86c0-4.56,3.18-8.01,7.38-8.01,1.86,0,3.45.69,4.62,1.89v-7.83h4.38v16.14c0,.78.45,1.23,1.23,1.23h.3v4.23h-1.23c-2.1,0-3.48-.69-4.17-2.07-1.23,1.5-3,2.43-5.13,2.43-4.2,0-7.38-3.45-7.38-8.01ZM129.94,31.86c0-2.16-1.59-3.78-3.75-3.78s-3.72,1.62-3.72,3.78,1.59,3.78,3.72,3.78,3.75-1.62,3.75-3.78Z"/>
      <path class="cls-1" d="M143.83,31.86c0-4.56,3.54-8.01,8.25-8.01s8.25,3.45,8.25,8.01-3.54,8.01-8.25,8.01-8.25-3.45-8.25-8.01ZM155.83,31.86c0-2.16-1.59-3.78-3.75-3.78s-3.75,1.62-3.75,3.78,1.59,3.78,3.75,3.78,3.75-1.62,3.75-3.78Z"/>
      <path class="cls-1" d="M162.67,34.11v-9.9h4.38v8.58c0,1.71,1.08,2.85,2.73,2.85,1.77,0,2.97-1.17,2.97-2.91v-8.52h4.38v9.84c0,.78.45,1.23,1.23,1.23h.3v4.23h-1.23c-2.1,0-3.51-.69-4.17-2.07-1.2,1.59-2.88,2.43-4.95,2.43-3.39,0-5.64-2.28-5.64-5.76Z"/>
      <path class="cls-1" d="M182.08,34.53v-6.33h-2.28v-3.99h1.26c.84,0,1.26-.42,1.26-1.26v-2.76h4.14v4.02h3.33v3.99h-3.33v5.61c0,1.08.66,1.71,1.8,1.71h1.53v3.99h-2.19c-3.63,0-5.52-1.71-5.52-4.98Z"/>
      <path class="cls-1" d="M199.18,24.21h4.38v1.44c1.14-1.2,2.61-1.8,4.35-1.8,2.13,0,3.81.93,4.74,2.49,1.23-1.62,2.97-2.49,5.16-2.49,3.33,0,5.55,2.25,5.55,5.67v4.53c0,.78.45,1.23,1.23,1.23h.3v4.23h-1.23c-3.09,0-4.68-1.53-4.68-4.5v-4.17c0-1.65-1.05-2.76-2.64-2.76-1.71,0-2.88,1.14-2.88,2.82v8.61h-4.38v-8.67c0-1.65-1.05-2.76-2.64-2.76-1.71,0-2.88,1.14-2.88,2.82v8.61h-4.38v-15.3Z"/>
      <path class="cls-1" d="M226.09,31.86c0-4.56,3.54-8.01,8.25-8.01s8.25,3.45,8.25,8.01-3.54,8.01-8.25,8.01-8.25-3.45-8.25-8.01ZM238.09,31.86c0-2.16-1.59-3.78-3.75-3.78s-3.75,1.62-3.75,3.78,1.59,3.78,3.75,3.78,3.75-1.62,3.75-3.78Z"/>
      <path class="cls-1" d="M245.95,27.72c-.84-.57-1.35-1.59-1.35-2.7,0-1.62,1.14-2.73,2.85-2.73,1.62,0,2.73,1.02,2.91,2.37l9.45,1.08v1.05c-1.65,2.28-2.52,4.26-2.52,5.94s.81,2.55,2.34,2.55h.66v4.23h-1.05c-4.26,0-6.45-2.34-6.45-6.24,0-1.32.27-2.64.9-3.99l-3.75-.51-2.01,10.74h-4.32l2.34-11.79Z"/>
      <path class="cls-1" d="M261.4,31.86c0-4.56,3.54-8.01,8.25-8.01s8.25,3.42,8.25,8.07c0,.39-.03.99-.12,1.35h-11.7c.48,1.74,1.86,2.85,3.69,2.85,1.44,0,2.64-.63,3.21-1.44h4.68c-1.14,3.09-4.2,5.19-7.98,5.19-4.74,0-8.28-3.45-8.28-8.01ZM266.11,30.36h7.11c-.48-1.68-1.83-2.76-3.57-2.76s-3.06,1.08-3.54,2.76Z"/>
    </g>
  </g>
</svg>