<?xml version="1.0" encoding="UTF-8"?>
<svg id="Capa_2" data-name="Capa 2" xmlns="http://www.w3.org/2000/svg" viewBox="0 0 301.52 33.39">
  <defs>
    <style>
      .cls-1 {
        fill: #fff;
      }
    </style>
  </defs>
  <g id="Capa_1-2" data-name="Capa 1">
    <g>
      <path class="cls-1" d="M6.09,16.94c0-3.68,2.52-6.37,5.6-6.37,1.36,0,2.52.56,3.39,1.47v-1.05h4.27v7.53c0,.74.53,1.29,1.3,1.29,1.26,0,2.06-1.61,2.06-3.89,0-4.97-4.13-8.68-9.45-8.68-5.6,0-9.7,4.13-9.7,9.66s3.99,9.59,10.26,9.59c2.31,0,4.83-.56,6.48-1.33v3.47c-1.75.84-4.1,1.29-6.41,1.29C5.57,29.93,0,24.29,0,16.94S5.64,3.85,13.27,3.85s13.06,5.15,13.06,12.15c0,4.27-2.17,7.18-5.92,7.18-1.93,0-3.61-.74-4.52-2-.81,1.29-2.14,2.03-3.92,2.03-3.43,0-5.88-2.73-5.88-6.27ZM15.09,16.91c0-1.29-1.01-2.24-2.31-2.24s-2.35.95-2.35,2.24,1.02,2.24,2.35,2.24,2.31-.98,2.31-2.24Z"/>
      <path class="cls-1" d="M28.77,16.94c0-5.08,3.68-8.89,8.61-8.89,2.17,0,4.03.77,5.39,2.1v-1.68h5.11v15.93c0,5.42-3.68,9-9.21,9-4.66,0-8.26-2.48-8.96-6.44h5.29c.53,1.19,2,2,3.75,2,2.45,0,4.03-1.61,4.03-4.3v-.91c-1.37,1.33-3.22,2.1-5.39,2.1-4.94,0-8.61-3.85-8.61-8.89ZM42.77,16.94c0-2.38-1.89-4.17-4.38-4.17s-4.38,1.79-4.38,4.17,1.85,4.17,4.38,4.17,4.38-1.82,4.38-4.17Z"/>
      <path class="cls-1" d="M52.96,12.57c-.98-.67-1.58-1.85-1.58-3.15,0-1.89,1.33-3.18,3.33-3.18,1.89,0,3.19,1.19,3.4,2.76l11.03,1.26v1.22c-1.93,2.66-2.94,4.97-2.94,6.93s.95,2.98,2.73,2.98h.77v4.94h-1.22c-4.97,0-7.53-2.73-7.53-7.28,0-1.54.32-3.08,1.05-4.66l-4.38-.59-2.34,12.53h-5.04l2.73-13.76Z"/>
      <path class="cls-1" d="M71.05,17.4c0-5.32,3.71-9.35,8.61-9.35,2.17,0,4.03.8,5.39,2.21v-1.79h5.11v11.48c0,.91.53,1.44,1.44,1.44h.35v4.94h-1.44c-2.45,0-4.06-.8-4.87-2.42-1.43,1.75-3.5,2.83-5.99,2.83-4.9,0-8.61-4.03-8.61-9.35ZM85.05,17.4c0-2.52-1.86-4.41-4.38-4.41s-4.34,1.89-4.34,4.41,1.85,4.41,4.34,4.41,4.38-1.89,4.38-4.41Z"/>
      <path class="cls-1" d="M94.54,8.47h5.11v1.79c1.37-1.4,3.22-2.21,5.39-2.21,4.94,0,8.61,4.03,8.61,9.35s-3.68,9.35-8.61,9.35c-2.17,0-4.03-.8-5.39-2.21v8.44h-5.11V8.47ZM108.4,17.4c0-2.52-1.86-4.41-4.38-4.41s-4.38,1.89-4.38,4.41,1.86,4.41,4.38,4.41,4.38-1.89,4.38-4.41Z"/>
      <path class="cls-1" d="M116.79,1.12h5.11v9.24c1.4-1.5,3.22-2.31,5.43-2.31,4.09,0,6.83,2.7,6.83,6.79v5.11c0,.91.53,1.44,1.44,1.44h.35v4.94h-1.43c-3.61,0-5.46-1.79-5.46-5.25v-4.51c0-2.17-1.37-3.57-3.43-3.57-2.21,0-3.71,1.43-3.71,3.64v9.7h-5.11V1.12Z"/>
      <path class="cls-1" d="M137.79,3.12c0-1.79,1.37-3.12,3.15-3.12s3.19,1.33,3.19,3.12-1.37,3.15-3.19,3.15-3.15-1.33-3.15-3.15ZM138.39,8.47h5.11v17.85h-5.11V8.47Z"/>
      <path class="cls-1" d="M146.58,17.4c0-5.32,4.13-9.35,9.63-9.35,4.79,0,8.61,3.12,9.21,7.46h-5.43c-.49-1.5-2-2.52-3.78-2.52-2.52,0-4.38,1.89-4.38,4.41s1.86,4.41,4.38,4.41c1.79,0,3.29-1.01,3.78-2.52h5.43c-.6,4.34-4.41,7.46-9.21,7.46-5.5,0-9.63-4.03-9.63-9.35Z"/>
      <path class="cls-1" d="M169.4,20.51v-7.39h-2.66v-4.66h1.47c.98,0,1.47-.49,1.47-1.47v-3.22h4.83v4.69h3.89v4.66h-3.89v6.55c0,1.26.77,2,2.1,2h1.79v4.66h-2.56c-4.24,0-6.44-2-6.44-5.81Z"/>
      <path class="cls-1" d="M181.37,20.02v-11.55h5.11v10.01c0,2,1.26,3.33,3.19,3.33,2.07,0,3.47-1.37,3.47-3.4v-9.94h5.11v11.48c0,.91.53,1.44,1.43,1.44h.35v4.94h-1.44c-2.45,0-4.09-.8-4.87-2.42-1.4,1.85-3.36,2.83-5.78,2.83-3.96,0-6.58-2.66-6.58-6.72Z"/>
      <path class="cls-1" d="M202.61,8.47h5.11v1.75c1.4-1.44,3.22-2.17,5.43-2.17,4.1,0,6.83,2.7,6.83,6.79v5.11c0,.91.53,1.44,1.44,1.44h.35v4.94h-1.43c-3.61,0-5.46-1.79-5.46-5.25v-4.51c0-2.17-1.37-3.57-3.43-3.57-2.21,0-3.71,1.43-3.71,3.64v9.7h-5.11V8.47Z"/>
      <path class="cls-1" d="M224.03,8.47h5.11v1.75c1.4-1.44,3.22-2.17,5.43-2.17,4.1,0,6.83,2.7,6.83,6.79v5.11c0,.91.53,1.44,1.44,1.44h.35v4.94h-1.43c-3.61,0-5.46-1.79-5.46-5.25v-4.51c0-2.17-1.37-3.57-3.43-3.57-2.21,0-3.71,1.43-3.71,3.64v9.7h-5.11V8.47Z"/>
      <path class="cls-1" d="M244.58,17.4c0-5.32,4.13-9.35,9.63-9.35s9.63,3.99,9.63,9.42c0,.46-.04,1.15-.14,1.57h-13.65c.56,2.03,2.17,3.33,4.31,3.33,1.68,0,3.08-.74,3.75-1.68h5.46c-1.33,3.61-4.9,6.06-9.31,6.06-5.53,0-9.66-4.03-9.66-9.35ZM250.07,15.65h8.3c-.56-1.96-2.13-3.22-4.17-3.22s-3.57,1.26-4.13,3.22Z"/>
      <path class="cls-1" d="M265.65,22.23c1.08-.42,2.13-.98,3.08-1.61-1.79-2.69-2.77-6.2-2.77-10.15,0-6.23,2.91-9.77,7.28-9.77s6.97,3.19,6.97,8.61c0,4.06-1.54,8.02-4.17,11.2,1.02.56,2.14.88,3.36.88h1.12v4.94h-1.4c-2.69,0-5.08-.8-7.07-2.21-1.37.91-2.83,1.64-4.45,2.21l-1.96-4.1ZM272.61,16.7c1.47-2.17,2.31-4.73,2.31-7.39,0-2.38-.67-3.68-1.79-3.68s-1.92,1.4-1.92,4.45c0,2.49.49,4.76,1.4,6.62Z"/>
      <path class="cls-1" d="M287.52,24.15l-.91,2.17h-5.25l7.46-17.85h5.85c.52,4.58,6.86,4.41,6.86,10.92,0,4.34-2.77,7.35-7.42,7.35-2.66,0-5-1.01-6.58-2.59ZM291.65,13.86l-2.45,6.06c.84,1.15,2.28,1.89,3.92,1.89,1.85,0,3.15-.98,3.15-2.52,0-2.17-3.05-2.94-4.62-5.42Z"/>
    </g>
  </g>
</svg>