<?xml version="1.0" encoding="UTF-8"?>
<svg id="Capa_2" data-name="Capa 2" xmlns="http://www.w3.org/2000/svg" xmlns:xlink="http://www.w3.org/1999/xlink" viewBox="0 0 106.65 44.9">
  <defs>
    <style>
      .cls-1 {
        fill: #009fe3;
      }

      .cls-2 {
        fill: none;
      }

      .cls-3 {
        clip-path: url(#clippath-1);
      }

      .cls-4 {
        fill: #f39200;
      }

      .cls-5 {
        clip-path: url(#clippath-2);
      }

      .cls-6 {
        clip-path: url(#clippath);
      }
    </style>
    <clipPath id="clippath">
      <rect class="cls-2" width="48.21" height="44.8"/>
    </clipPath>
    <clipPath id="clippath-1">
      <rect class="cls-2" x="58.44" y=".1" width="48.21" height="44.8"/>
    </clipPath>
    <clipPath id="clippath-2">
      <rect class="cls-2" x="58.44" y=".1" width="48.21" height="44.8"/>
    </clipPath>
  </defs>
  <g id="Capa_1-2" data-name="Capa 1">
    <g>
      <path class="cls-1" d="M2.29,2.1h43.75v40.68H2.29V2.1ZM0,44.8h48.21V0H0v44.8Z"/>
      <g class="cls-6">
        <g>
          <path class="cls-1" d="M16.28,18.45v2.82c0,.22-.01.44.32.44,1.03-.03,2.08.06,3.09-.12,1.36-.24,2.33-1.03,2.65-2.39.49-2.1-.54-3.67-2.76-4.01-.94-.14-1.93-.01-2.89-.02-.35,0-.41.17-.41.46.02.94,0,1.88,0,2.82M16.29,24.42v7.07h-3.58V12.79c.73-.09,1.47-.24,2.21-.25,1.87-.02,3.74-.09,5.6.06,1.78.15,3.38.82,4.49,2.28,1,1.32,1.2,2.8.98,4.35-.37,2.67-2.13,4.17-4.73,4.87-1.49.4-3.01.51-4.55.34-.12-.01-.23-.01-.42-.02"/>
          <path class="cls-1" d="M27.2,28.36c1.1.55,2.21.9,3.4.96.48.02.99-.03,1.46-.14.59-.14,1.03-.49,1.13-1.12.1-.68-.14-1.24-.77-1.56-.77-.37-1.58-.66-2.37-.99-.98-.4-1.89-.92-2.51-1.76-1.32-1.78-.57-4.38,1.55-5.49,1.59-.83,3.27-.9,5-.58.69.13,1.36.37,2.08.57-.26.89-.49,1.68-.69,2.39-.92-.22-1.78-.48-2.66-.61-.45-.07-.94.03-1.4.13-.6.13-.95.54-1.02,1.14-.06.58.19,1.04.72,1.28.79.37,1.62.67,2.42,1,1.14.48,2.2,1.06,2.77,2.18,1.19,2.33-.02,4.89-2.74,5.7-2.26.67-4.49.49-6.66-.41-.3-.12-.4-.26-.3-.58.22-.68.4-1.36.62-2.11"/>
        </g>
      </g>
    </g>
    <g>
      <path class="cls-4" d="M60.66,2.18h43.88v40.86h-43.88V2.18ZM58.44,44.9h48.21V.1h-48.21v44.8Z"/>
      <g class="cls-3">
        <path class="cls-4" d="M79.11,15.62c-.86,2.8-1.66,5.39-2.48,8.04h5.04c-.85-2.68-1.68-5.27-2.56-8.04M74.24,31.7h-3.7c2.15-6.4,4.26-12.69,6.35-18.93.16-.05.21-.08.25-.08,2.89-.17,4.79,1.07,5.68,3.72,1.56,4.61,3.14,9.2,4.71,13.81.15.43.27.87.47,1.52-1.17,0-2.22.07-3.25-.04-.33-.03-.74-.5-.88-.85-.46-1.16-.83-2.36-1.19-3.55-.21-.7-.52-1.08-1.4-1.04-1.4.08-2.81.07-4.22,0-.83-.04-1.2.24-1.42,1-.41,1.47-.92,2.91-1.42,4.44"/>
      </g>
      <rect class="cls-4" x="89.61" y="18" width="3.45" height="13.71"/>
      <g class="cls-5">
        <path class="cls-4" d="M91.37,12.28c1.21.03,2.01.81,1.96,1.92-.04,1.05-.97,1.85-2.13,1.76-1.17-.09-1.85-.71-1.87-1.86-.02-1.1.83-1.85,2.04-1.82"/>
      </g>
    </g>
  </g>
</svg>