<?xml version="1.0" encoding="UTF-8"?>
<svg id="Capa_2" data-name="Capa 2" xmlns="http://www.w3.org/2000/svg" viewBox="0 0 209.66 29.02">
  <defs>
    <style>
      .cls-1 {
        fill: #fff;
      }
    </style>
  </defs>
  <g id="Capa_1-2" data-name="Capa 1">
    <g>
      <path class="cls-1" d="M0,18.6c0-5.93,4.6-10.41,10.73-10.41s10.73,4.45,10.73,10.49c0,.51-.04,1.29-.16,1.75H6.08c.62,2.26,2.42,3.71,4.8,3.71,1.87,0,3.43-.82,4.17-1.87h6.08c-1.48,4.02-5.46,6.75-10.37,6.75-6.16,0-10.76-4.49-10.76-10.41ZM6.12,16.65h9.24c-.62-2.18-2.38-3.59-4.64-3.59s-3.98,1.4-4.6,3.59Z"/>
      <path class="cls-1" d="M21.45,8.66h6.51l4.6,12.71,1.95-5.23c1.05-3.04,1.56-5.46,1.13-7.49h5.85c.43,2.26-.04,5.15-1.48,8.66l-4.6,11.23h-5.85l-8.11-19.89Z"/>
      <path class="cls-1" d="M43.17,18.6c0-5.93,4.13-10.41,9.59-10.41,2.42,0,4.49.9,6.01,2.46v-1.99h5.69v12.79c0,1.01.59,1.6,1.6,1.6h.39v5.5h-1.6c-2.73,0-4.52-.9-5.42-2.69-1.6,1.95-3.9,3.16-6.67,3.16-5.46,0-9.59-4.49-9.59-10.41ZM58.77,18.6c0-2.81-2.07-4.91-4.88-4.91s-4.84,2.11-4.84,4.91,2.07,4.91,4.84,4.91,4.88-2.11,4.88-4.91Z"/>
      <path class="cls-1" d="M79.64,13.22c-1.09-.74-1.75-2.07-1.75-3.51,0-2.11,1.48-3.55,3.71-3.55,2.11,0,3.55,1.33,3.78,3.08l12.29,1.4v1.37c-2.15,2.96-3.28,5.54-3.28,7.72s1.05,3.32,3.04,3.32h.86v5.5h-1.37c-5.54,0-8.38-3.04-8.38-8.11,0-1.72.35-3.43,1.17-5.19l-4.88-.66-2.61,13.96h-5.62l3.04-15.33Z"/>
      <path class="cls-1" d="M99.72,18.6c0-5.93,4.6-10.41,10.73-10.41s10.73,4.48,10.73,10.41-4.6,10.41-10.73,10.41-10.73-4.49-10.73-10.41ZM115.32,18.6c0-2.81-2.07-4.91-4.88-4.91s-4.88,2.11-4.88,4.91,2.07,4.91,4.88,4.91,4.88-2.11,4.88-4.91Z"/>
      <path class="cls-1" d="M124.6.47h5.69v10.18c1.52-1.56,3.59-2.46,6.01-2.46,5.5,0,9.59,4.48,9.59,10.41s-4.09,10.41-9.59,10.41c-2.42,0-4.49-.9-6.01-2.46v1.99h-5.69V.47ZM140.05,18.6c0-2.81-2.07-4.91-4.88-4.91s-4.88,2.11-4.88,4.91,2.07,4.91,4.88,4.91,4.88-2.11,4.88-4.91Z"/>
      <path class="cls-1" d="M148.08,23.99c1.21-.47,2.38-1.09,3.43-1.79-1.99-3-3.08-6.9-3.08-11.31,0-6.94,3.24-10.88,8.11-10.88s7.76,3.55,7.76,9.59c0,4.52-1.72,8.93-4.64,12.48,1.13.62,2.38.98,3.74.98h1.25v5.5h-1.56c-3,0-5.66-.9-7.88-2.46-1.52,1.01-3.16,1.83-4.95,2.46l-2.18-4.56ZM155.84,17.82c1.64-2.42,2.57-5.26,2.57-8.23,0-2.65-.74-4.09-1.99-4.09s-2.14,1.56-2.14,4.95c0,2.77.55,5.3,1.56,7.37Z"/>
      <path class="cls-1" d="M166.29,18.6c0-5.93,4.6-10.41,10.73-10.41s10.73,4.45,10.73,10.49c0,.51-.04,1.29-.16,1.75h-15.21c.62,2.26,2.42,3.71,4.8,3.71,1.87,0,3.43-.82,4.17-1.87h6.08c-1.48,4.02-5.46,6.75-10.37,6.75-6.16,0-10.76-4.49-10.76-10.41ZM172.42,16.65h9.24c-.62-2.18-2.38-3.59-4.64-3.59s-3.98,1.4-4.6,3.59Z"/>
      <path class="cls-1" d="M194.06,26.13l-1.01,2.42h-5.85l8.31-19.89h6.51c.59,5.11,7.64,4.91,7.64,12.17,0,4.84-3.08,8.19-8.27,8.19-2.96,0-5.58-1.13-7.33-2.89ZM198.66,14.66l-2.73,6.75c.94,1.29,2.54,2.11,4.37,2.11,2.07,0,3.51-1.09,3.51-2.81,0-2.42-3.39-3.28-5.15-6.05Z"/>
    </g>
  </g>
</svg>