<?xml version="1.0" encoding="UTF-8"?>
<svg id="Capa_2" data-name="Capa 2" xmlns="http://www.w3.org/2000/svg" viewBox="0 0 305.87 52.75">
  <defs>
    <style>
      .cls-1 {
        fill: #5862f7;
      }

      .cls-2 {
        fill: #403f51;
      }
    </style>
  </defs>
  <g id="Capa_1-2" data-name="Capa 1">
    <g>
      <path class="cls-2" d="M0,1.79h8.18v14.78c2.24-2.41,5.15-3.7,8.68-3.7,6.55,0,10.92,4.31,10.92,10.86v8.18c0,1.46.84,2.3,2.3,2.3h.56v7.9h-2.3c-5.77,0-8.74-2.86-8.74-8.4v-7.22c0-3.47-2.18-5.71-5.49-5.71-3.53,0-5.94,2.3-5.94,5.82v15.51H0V1.79Z"/>
      <path class="cls-2" d="M33.6,4.98c0-2.86,2.18-4.98,5.04-4.98s5.1,2.13,5.1,4.98-2.18,5.04-5.1,5.04-5.04-2.13-5.04-5.04ZM34.55,13.55h8.18v28.56h-8.18V13.55Z"/>
      <path class="cls-2" d="M48.49,37.29c0-3.02,2.35-5.32,5.43-5.32s5.38,2.3,5.38,5.32-2.3,5.38-5.38,5.38-5.43-2.3-5.43-5.38ZM49.61,12.99V3.47h8.62v9.52l-.5,16.24h-7.62l-.5-16.24Z"/>
      <path class="cls-2" d="M76.44,4.98c0-2.86,2.18-4.98,5.04-4.98s5.1,2.13,5.1,4.98-2.18,5.04-5.1,5.04-5.04-2.13-5.04-5.04ZM77.39,13.55h8.18v28.56h-8.18V13.55Z"/>
      <path class="cls-2" d="M91.5,16.46c1.68-.39,2.91-1.34,3.7-3.08-2.41-.56-4.09-2.63-4.09-5.21,0-3.02,2.24-5.38,5.43-5.38,2.86,0,5.38,1.85,5.38,6.27,0,6.83-5.1,12.6-10.42,13.33v-5.94Z"/>
      <path class="cls-2" d="M105.11,13.55h8.18v2.69c2.13-2.24,4.87-3.36,8.12-3.36,3.98,0,7.11,1.74,8.85,4.65,2.3-3.02,5.54-4.65,9.63-4.65,6.22,0,10.36,4.2,10.36,10.58v8.46c0,1.46.84,2.3,2.3,2.3h.56v7.9h-2.3c-5.77,0-8.74-2.86-8.74-8.4v-7.78c0-3.08-1.96-5.15-4.93-5.15-3.19,0-5.38,2.13-5.38,5.26v16.07h-8.18v-16.18c0-3.08-1.96-5.15-4.93-5.15-3.19,0-5.38,2.13-5.38,5.26v16.07h-8.18V13.55Z"/>
      <path class="cls-1" d="M167.38,27.83c0-8.51,6.61-14.95,15.4-14.95s15.4,6.38,15.4,15.06c0,.73-.06,1.85-.22,2.52h-21.84c.9,3.25,3.47,5.32,6.89,5.32,2.69,0,4.93-1.18,5.99-2.69h8.74c-2.13,5.77-7.84,9.69-14.9,9.69-8.85,0-15.46-6.44-15.46-14.95ZM176.17,25.03h13.27c-.9-3.14-3.42-5.15-6.66-5.15s-5.71,2.02-6.61,5.15Z"/>
      <path class="cls-1" d="M198.18,13.55h9.35l6.61,18.26,2.8-7.5c1.51-4.37,2.24-7.84,1.62-10.75h8.4c.62,3.25-.06,7.39-2.13,12.43l-6.61,16.13h-8.4l-11.65-28.56Z"/>
      <path class="cls-1" d="M229.37,27.83c0-8.51,5.94-14.95,13.78-14.95,3.47,0,6.44,1.29,8.62,3.53v-2.86h8.18v18.37c0,1.46.84,2.3,2.3,2.3h.56v7.9h-2.3c-3.92,0-6.5-1.29-7.78-3.86-2.3,2.8-5.6,4.54-9.58,4.54-7.84,0-13.78-6.44-13.78-14.95ZM251.77,27.83c0-4.03-2.97-7.06-7-7.06s-6.94,3.02-6.94,7.06,2.97,7.06,6.94,7.06,7-3.02,7-7.06Z"/>
      <path class="cls-1" d="M278.09,18.37c0-3.08,2.3-5.38,5.38-5.38s5.43,2.3,5.43,5.38-2.35,5.32-5.43,5.32-5.38-2.3-5.38-5.32ZM278.09,37.29c0-3.02,2.3-5.32,5.38-5.32s5.43,2.3,5.43,5.32-2.35,5.38-5.43,5.38-5.38-2.3-5.38-5.38Z"/>
      <path class="cls-1" d="M297.3,26.43c0-9.58-3.08-19.99-7.67-26.32h8.23c4.76,6.33,8.01,16.74,8.01,26.32s-3.25,19.99-8.01,26.32h-8.23c4.59-6.33,7.67-16.74,7.67-26.32Z"/>
    </g>
  </g>
</svg>