<?xml version="1.0" encoding="UTF-8"?>
<svg id="Capa_1" data-name="Capa 1" xmlns="http://www.w3.org/2000/svg" xmlns:xlink="http://www.w3.org/1999/xlink" viewBox="0 0 284.02 45.57">
  <defs>
    <style>
      .cls-1 {
        fill: #275889;
      }

      .cls-2 {
        stroke: #97e63e;
      }

      .cls-2, .cls-3, .cls-4 {
        fill: none;
      }

      .cls-2, .cls-4 {
        stroke-miterlimit: 10;
        stroke-width: 2px;
      }

      .cls-5 {
        fill: #009fe3;
      }

      .cls-6 {
        fill: #97e63e;
      }

      .cls-7 {
        fill: #fff;
      }

      .cls-8 {
        fill: #ec7809;
      }

      .cls-9 {
        clip-path: url(#clippath-1);
      }

      .cls-10 {
        fill: #9898fd;
      }

      .cls-11 {
        fill: #98e63e;
      }

      .cls-12 {
        clip-path: url(#clippath);
      }

      .cls-4 {
        stroke: #9898fd;
      }
    </style>
    <clipPath id="clippath">
      <rect class="cls-3" x="1.14" y="2.37" width="52.32" height="40.34"/>
    </clipPath>
    <clipPath id="clippath-1">
      <rect class="cls-3" x="235.81" y=".38" width="48.21" height="44.8"/>
    </clipPath>
  </defs>
  <g>
    <g>
      <path class="cls-11" d="M132.49,12.39c.08-.06.15-.17.23-.16,2.87.04,5.76-.15,8.59.21,3.22.41,5.22,2.87,5.34,5.84.14,3.62-1.44,5.91-4.81,6.89-.81.24-1.66.37-2.49.48-.86.12-1.73.17-2.71.26v5.87c-1.19.08-2.28.17-3.38.2-.25,0-.51-.24-.76-.37V12.39h-.01ZM136.69,22.14c1.37-.17,2.71-.21,3.97-.53,1.39-.36,1.92-1.36,1.9-2.92-.02-1.36-.66-2.35-2.01-2.65-1.24-.27-2.54-.28-3.86-.4v6.51h0Z"/>
      <path class="cls-6" d="M150.74,20.36c-.67.07-1.21.12-1.89.19v-3.64h1.84c.09-.91.26-1.77.24-2.63-.02-1,.38-1.41,1.36-1.45.88-.04,1.75-.18,2.7-.28v4.31h2.85v3.52c-.98.09-1.93.19-2.93.28,0,2.02-.03,4.15,0,6.27.03,1.39.48,1.75,1.9,1.75h.96c0,.89.03,1.7-.02,2.5,0,.2-.27.53-.44.55-1.34.1-2.74.4-4.02.15-1.7-.34-2.5-1.66-2.54-3.49-.05-2.25-.02-4.51-.02-6.77v-1.26Z"/>
    </g>
    <rect class="cls-2" x="123.38" y="1" width="43.57" height="43.57"/>
  </g>
  <g>
    <rect class="cls-4" x="180.11" y="1" width="43.57" height="43.57"/>
    <g>
      <path class="cls-10" d="M199.64,32.49c-.08-.02-.21-.15-.24-.24l-1.53-4.47h-7.13s-1.44,4.47-1.44,4.47c-.01.07-.21.3-.24.3h-3.88s-.07-.07-.08-.1c-.05-.17.27-1.01.35-1.25,1.91-5.76,4.09-11.43,5.99-17.19l.17-1.47h5.1s.2.09.2.09l6.96,19.4c.06.09.07.47-.05.47h-4.18ZM191.9,23.95h4.78l-2.42-7.95-2.36,7.95Z"/>
      <path class="cls-10" d="M217.42,31.81c-.07.46-.7.59-1.09.7-2.16.64-5.29.71-7.38-.18-6.59-2.82-5.09-14.73,2.4-15.19,5.14-.32,7.6,2.88,7.33,7.8-.01.2-.06.8-.14.94-.05.09-.09.15-.2.16l-1.74.11c-2.49-.23-5-.06-7.49-.11.07.56.24,1.11.53,1.59,1.37,2.35,5.4,1.88,7.57,1.1.06-.03.2.04.2.09v2.99ZM209.11,23.23h5.29s.24-.09.26-.16c.1-1.41-1.02-2.58-2.41-2.65-1.79-.1-2.92,1.11-3.14,2.81Z"/>
    </g>
  </g>
  <g class="cls-12">
    <g>
      <path class="cls-8" d="M34.38,35.18c4.21.02,7.27-1.2,9.47-3.51,1.94-2.03,2.79-4.44,2.43-7.16-.28-2.17-1.32-3.99-3-5.47-2.76-2.42-6.05-3.29-9.72-2.81-2.8.36-5.18,1.54-7.03,3.59-1.75,1.93-2.53,4.19-2.28,6.73.24,2.38,1.4,4.33,3.26,5.91,2.2,1.87,4.81,2.7,6.87,2.73M17.28,26.66c-.5.39-.97.75-1.42,1.11-2.9,2.26-5.78,4.5-8.68,6.76-.82.64-1.74,1.04-2.81,1.12-2.33.15-3.81-1.71-3-3.81.33-.84.89-1.5,1.63-2.04,3.14-2.27,6.26-4.55,9.39-6.82,3.05-2.21,6.09-4.43,9.14-6.64.08-.05.14-.11.26-.22h-.37c-3.3,0-6.59,0-9.89.01-.53,0-1.06-.05-1.55-.26-1.22-.51-1.68-1.68-1.06-2.8.55-1.02,1.5-1.56,2.64-1.79.51-.1,1.05-.1,1.58-.1,6.57,0,13.13-.01,19.7-.02h.26s.04-.04.07-.07c-.07-.03-.13-.05-.18-.1-2.15-1.65-4.29-3.31-6.44-4.96-.6-.46-1-1-.86-1.77.13-.66.59-1.1,1.17-1.42,1.17-.65,2.88-.6,3.99.23,5.33,3.92,10.68,7.8,16.03,11.71,2.8,2.04,4.86,4.58,5.87,7.81,1.6,5.09.53,9.72-2.98,13.82-2.8,3.27-6.49,5.19-10.82,5.97-4.34.78-8.53.28-12.49-1.62-4.06-1.95-6.99-4.91-8.54-9.01-.5-1.32-.79-2.69-.72-4.1.01-.3.05-.61.1-.99"/>
      <path class="cls-7" d="M34.79,31.27c2.12,0,3.6-.43,4.88-1.3,3.26-2.2,3.61-6.34.78-8.96-2.73-2.53-7.45-2.56-10.22-.07-2.42,2.17-2.68,5.45-.59,7.87,1.45,1.68,3.4,2.42,5.16,2.46M34.39,35.17c-2.05-.02-4.67-.87-6.87-2.73-1.86-1.57-3.02-3.54-3.26-5.91-.26-2.54.53-4.8,2.28-6.72,1.86-2.05,4.22-3.23,7.03-3.59,3.68-.47,6.97.4,9.72,2.81,1.68,1.48,2.71,3.3,3,5.47.35,2.73-.49,5.13-2.43,7.16-2.2,2.3-5.26,3.53-9.47,3.51"/>
      <path class="cls-1" d="M34.79,31.27c-1.76-.04-3.7-.78-5.16-2.46-2.09-2.42-1.83-5.7.59-7.87,2.78-2.5,7.49-2.46,10.22.07,2.83,2.63,2.47,6.76-.78,8.96-1.27.86-2.76,1.3-4.88,1.3"/>
    </g>
  </g>
  <path d="M89.27,18.57c-2.1-1.28-4-2.85-6.33-3.73-1.39-.52-2.73-.49-4.04.16-.77.38-1.53.78-2.24,1.26-1.1.74-1.64,1.8-1.53,3.16.05.58-.28.98-.74,1.28-1.31.84-2.73,1.41-4.23,1.78-.26.06-.53.13-.8.14-.5.01-.81-.42-.66-.9.04-.12.08-.24.15-.34,2.18-3.62,5.03-6.54,8.87-8.38,3.55-1.71,7.23-1.75,10.93-.51,1.67.56,3.3,1.24,4.94,1.9.54.22.98.15,1.47-.16.87-.55,1.74-1.11,2.67-1.54,1.21-.56,2.46-.52,3.65.17,1.21.71,1.51,1.96.73,3.13-1.37,2.07-3.13,3.67-5.53,4.48-1.29.43-2.54.33-3.78-.13-.43-.16-.86-.35-1.29-.5-.1-.04-.28-.02-.35.05-1.72,1.6-3.24,3.38-4.72,5.2-.01.01,0,.04,0,.07.68.05,1.37.07,2.05.15,2.57.33,4.99,1.18,7.32,2.27,5.61,2.62,9.69,6.8,12.33,12.38.3.64.51,1.33.69,2.02.18.68-.32,1.13-1,.95-.11-.03-.22-.06-.32-.12-1.99-1.1-3.93-2.28-5.58-3.88-.25-.24-.5-.5-.71-.77-.45-.58-.58-1.24-.3-1.92.46-1.15,0-1.94-.7-2.54-1.16-1-2.53-1.57-3.98-1.98-3.29-.92-6.65-1.46-10.06-1.58-.94-.03-1.88-.03-2.82-.05-.65-.01-1.17.23-1.6.74-2.21,2.56-4.64,4.89-7.47,6.77-1.97,1.31-4.03,2.42-6.3,3.1-.95.28-1.92.4-2.92.37-.89-.03-1.19-.36-1.2-1.24,0-.7.23-1.33.59-1.92,1.22-2.02,2.79-3.74,4.65-5.17,4.07-3.13,8.48-5.6,13.46-7,.25-.07.52-.25.68-.46,1.77-2.27,3.65-4.44,5.8-6.36.06-.05.11-.11.16-.17.04-.05.08-.11.13-.19h-.07ZM78.91,30.62c-.14.02-.19.03-.24.04-1.38.4-2.77.76-4.12,1.22-1.9.65-3.68,1.56-5.31,2.75-1.01.74-1.84,1.65-2.31,2.82-.12.29-.13.63-.12.95,0,.1.18.29.29.3.36.02.77.07,1.09-.05.84-.31,1.69-.65,2.47-1.09,2.59-1.47,4.84-3.4,6.92-5.52.43-.44.85-.9,1.34-1.41h-.01ZM96.87,15.42c.96.39,2.37.36,3.26-.06.33-.16.63-.34.78-.69-.64-.7-3.44-.11-4.04.75Z"/>
  <path d="M90.89,10.84c-.82.01-1.62-.08-2.38-.43-1.64-.76-2.32-2.47-1.62-4.14.36-.87.93-1.57,1.68-2.13,1.13-.83,2.31-.88,3.47-.09,1.32.9,2.18,2.15,2.66,3.66.11.35.19.72.23,1.09.08.77-.25,1.36-1,1.58-.73.21-1.5.29-2.26.41-.26.04-.52.03-.78.04h0Z"/>
  <path class="cls-7" d="M78.9,30.62c-.48.51-.9.96-1.34,1.41-2.08,2.13-4.33,4.05-6.92,5.52-.78.44-1.63.78-2.47,1.09-.33.12-.73.08-1.09.05-.11,0-.29-.19-.29-.3,0-.32,0-.66.12-.95.48-1.17,1.3-2.08,2.31-2.82,1.63-1.19,3.41-2.1,5.31-2.75,1.35-.46,2.75-.82,4.12-1.22.05-.01.1-.02.24-.04h.01Z"/>
  <path class="cls-7" d="M96.86,15.43c.6-.87,3.4-1.45,4.04-.75-.15.35-.45.54-.78.69-.89.42-2.3.45-3.26.06Z"/>
  <path class="cls-5" d="M238.1,2.48h43.75v40.68h-43.75V2.48ZM235.81,45.18h48.21V.38h-48.21v44.8Z"/>
  <g class="cls-9">
    <g>
      <path class="cls-5" d="M252.09,18.83v2.82c0,.22-.01.44.32.44,1.03-.03,2.08.06,3.09-.12,1.36-.24,2.33-1.03,2.65-2.39.49-2.1-.54-3.67-2.76-4.01-.94-.14-1.93-.01-2.89-.02-.35,0-.41.17-.41.46.02.94,0,1.88,0,2.82M252.1,24.8v7.07h-3.58V13.17c.73-.09,1.47-.24,2.21-.25,1.87-.02,3.74-.09,5.6.06,1.78.15,3.38.82,4.49,2.28,1,1.32,1.2,2.8.98,4.35-.37,2.67-2.13,4.17-4.73,4.87-1.49.4-3.01.51-4.55.34-.12-.01-.23-.01-.42-.02"/>
      <path class="cls-5" d="M263.01,28.74c1.1.55,2.21.9,3.4.96.48.02.99-.03,1.46-.14.59-.14,1.03-.49,1.13-1.12.1-.68-.14-1.24-.77-1.56-.77-.37-1.58-.66-2.37-.99-.98-.4-1.89-.92-2.51-1.76-1.32-1.78-.57-4.38,1.55-5.49,1.59-.83,3.27-.9,5-.58.69.13,1.36.37,2.08.57-.26.89-.49,1.68-.69,2.39-.92-.22-1.78-.48-2.66-.61-.45-.07-.94.03-1.4.13-.6.13-.95.54-1.02,1.14-.06.58.19,1.04.72,1.28.79.37,1.62.67,2.42,1,1.14.48,2.2,1.06,2.77,2.18,1.19,2.33-.02,4.89-2.74,5.7-2.26.67-4.49.49-6.66-.41-.3-.12-.4-.26-.3-.58.22-.68.4-1.36.62-2.11"/>
    </g>
  </g>
</svg>