<?xml version="1.0" encoding="UTF-8"?>
<svg id="Capa_2" data-name="Capa 2" xmlns="http://www.w3.org/2000/svg" viewBox="0 0 131.78 146.42">
  <defs>
    <style>
      .cls-1 {
        fill: #fff;
      }

      .cls-2 {
        fill: #403f51;
      }
    </style>
  </defs>
  <g id="Capa_1-2" data-name="Capa 1">
    <g>
      <path class="cls-1" d="M124.46,21.96v-7.32h-21.96v-7.32h-21.96V0h-14.64v7.32h-7.32v43.93h-7.32v-21.96h-7.32V7.32h-7.32V0h-14.64v7.32h-7.32v21.96h7.32v21.96h7.32v14.64h-7.32v-7.32H0v21.96h7.32v7.32h7.32v14.64h7.32v14.64h7.32v14.64h7.32v14.64h73.21v-14.64h7.32v-14.64h7.32v-43.93h7.32V21.96h-7.32Z"/>
      <g>
        <rect class="cls-2" x="21.96" width="14.64" height="7.32"/>
        <rect class="cls-2" x="65.89" width="14.64" height="7.32"/>
        <polygon class="cls-2" points="80.53 36.61 80.53 43.93 80.53 65.89 87.85 65.89 87.85 43.93 87.85 36.61 87.85 14.64 95.18 14.64 102.5 14.64 102.5 7.32 95.18 7.32 87.85 7.32 80.53 7.32 80.53 14.64 80.53 36.61"/>
        <polygon class="cls-2" points="102.5 42.22 102.5 43.91 102.5 51.25 102.5 58.57 102.5 65.89 109.82 65.89 109.82 58.57 109.82 51.25 109.82 43.91 109.82 42.22 109.82 21.96 124.46 21.96 124.46 14.64 109.82 14.64 102.5 14.64 102.5 21.96 102.5 42.22"/>
        <polygon class="cls-2" points="124.46 21.96 124.46 29.28 124.46 36.61 124.46 43.93 124.46 51.25 124.46 58.57 124.46 65.89 124.46 73.21 131.78 73.21 131.78 65.89 131.78 58.57 131.78 51.25 131.78 43.93 131.78 36.61 131.78 29.28 131.78 21.96 124.46 21.96"/>
        <polygon class="cls-2" points="117.14 109.82 109.82 109.82 109.82 124.46 102.5 124.46 102.5 139.1 43.93 139.1 43.93 124.46 36.61 124.46 36.61 117.14 29.28 117.14 29.28 131.78 36.61 131.78 36.61 139.1 36.61 146.42 102.5 146.42 109.82 146.42 109.82 131.78 117.14 131.78 117.14 117.14 124.46 117.14 124.46 73.21 117.14 73.21 117.14 109.82"/>
        <polygon class="cls-2" points="29.28 73.21 29.28 80.53 29.28 87.85 36.61 87.85 36.61 80.53 36.61 73.21 36.61 65.89 36.61 58.57 36.61 51.25 29.28 51.25 29.28 58.57 29.28 65.89 21.96 65.89 21.96 73.21 29.28 73.21"/>
        <polygon class="cls-2" points="29.28 36.61 29.28 29.28 21.96 29.28 21.96 36.61 21.96 43.93 21.96 51.25 29.28 51.25 29.28 43.93 29.28 36.61"/>
        <polygon class="cls-2" points="21.96 14.64 21.96 7.32 14.64 7.32 14.64 14.64 14.64 21.96 14.64 29.28 21.96 29.28 21.96 21.96 21.96 14.64"/>
        <polygon class="cls-2" points="51.25 65.89 58.57 65.89 58.57 58.57 58.57 51.25 51.25 51.25 51.25 58.57 51.25 65.89"/>
        <polygon class="cls-2" points="43.93 43.93 43.93 51.25 51.25 51.25 51.25 43.93 51.25 36.61 51.25 29.28 43.93 29.28 43.93 36.61 43.93 43.93"/>
        <polygon class="cls-2" points="36.61 21.96 36.61 29.28 43.93 29.28 43.93 21.96 43.93 14.64 43.93 7.32 36.61 7.32 36.61 14.64 36.61 21.96"/>
        <polygon class="cls-2" points="65.89 43.93 65.89 36.61 65.89 29.28 65.89 21.96 65.89 14.64 65.89 7.32 58.57 7.32 58.57 14.64 58.57 21.96 58.57 29.28 58.57 36.61 58.57 43.93 58.57 51.25 65.89 51.25 65.89 43.93"/>
        <polygon class="cls-2" points="21.96 65.89 21.96 58.57 0 58.57 0 65.89 0 80.53 7.32 80.53 7.32 65.89 21.96 65.89"/>
        <rect class="cls-2" x="7.32" y="80.53" width="7.32" height="7.32"/>
        <rect class="cls-2" x="14.64" y="87.85" width="7.32" height="14.64"/>
        <rect class="cls-2" x="21.96" y="102.5" width="7.32" height="14.64"/>
      </g>
    </g>
  </g>
</svg>