<?xml version="1.0" encoding="UTF-8"?>
<svg id="Capa_2" data-name="Capa 2" xmlns="http://www.w3.org/2000/svg" viewBox="0 0 700.86 112.91">
  <defs>
    <style>
      .cls-1 {
        letter-spacing: .4em;
      }

      .cls-2 {
        letter-spacing: -.01em;
      }

      .cls-3 {
        letter-spacing: .35em;
      }

      .cls-4 {
        letter-spacing: -.01em;
      }

      .cls-5 {
        letter-spacing: .39em;
      }

      .cls-6 {
        letter-spacing: .59em;
      }

      .cls-7 {
        letter-spacing: .35em;
      }

      .cls-8 {
        letter-spacing: 0em;
      }

      .cls-9 {
        letter-spacing: 0em;
      }

      .cls-10 {
        letter-spacing: 0em;
      }

      .cls-11 {
        fill: #fff;
        font-family: Montserrat-Thin, Montserrat;
        font-size: 45px;
        font-variation-settings: 'wght' 100;
        font-weight: 200;
        isolation: isolate;
      }
    </style>
  </defs>
  <g id="screenshot-ee536091-c53e-80a9-8005-638747378e7a">
    <g id="shape-ee536091-c53e-80a9-8005-638747378e7a">
      <text id="fills-ee536091-c53e-80a9-8005-638747378e7a" class="cls-11" transform="translate(0 38.25)"><tspan x="0" y="0">o</tspan><tspan class="cls-9" x="27.45" y="0">r</tspan><tspan x="44.23" y="0">...</tspan><tspan class="cls-7" x="68.8" y="0"> </tspan><tspan class="cls-2" x="95.66" y="0">y</tspan><tspan x="117.84" y="0">ou</tspan><tspan class="cls-7" x="175.17" y="0"> </tspan><tspan class="cls-4" x="202.02" y="0">c</tspan><tspan x="226.1" y="0">ould</tspan><tspan class="cls-3" x="324.87" y="0"> </tspan><tspan class="cls-4" x="351.72" y="0">c</tspan><tspan x="375.8" y="0">he</tspan><tspan class="cls-10" x="432.27" y="0">c</tspan><tspan x="456.35" y="0">k</tspan></text>
      <text class="cls-11" transform="translate(494.74 38.25)"><tspan class="cls-4" x="0" y="0">m</tspan><tspan x="47.61" y="0">y</tspan><tspan class="cls-5" x="70.47" y="0"> </tspan><tspan class="cls-2" x="99.21" y="0">w</tspan><tspan x="136.24" y="0">o</tspan><tspan class="cls-10" x="163.69" y="0">r</tspan><tspan x="180.47" y="0">k</tspan></text>
      <text class="cls-11" transform="translate(0 101.25)"><tspan x="0" y="0">and</tspan><tspan class="cls-6" x="86.08" y="0"> </tspan><tspan x="123.67" y="0">m</tspan><tspan class="cls-9" x="171.73" y="0">a</tspan><tspan x="197.11" y="0">ybe</tspan></text>
      <text class="cls-11" transform="translate(276.58 101.25)"><tspan class="cls-4" x="0" y="0">c</tspan><tspan x="24.08" y="0">onta</tspan><tspan class="cls-8" x="124.87" y="0">c</tspan><tspan x="149.62" y="0">t</tspan><tspan class="cls-1" x="167.08" y="0"> </tspan><tspan x="196.26" y="0">me!</tspan></text>
    </g>
  </g>
</svg>