<?xml version="1.0" encoding="UTF-8"?>
<svg id="Capa_2" data-name="Capa 2" xmlns="http://www.w3.org/2000/svg" viewBox="0 0 160.4 191.09">
  <defs>
    <style>
      .cls-1 {
        fill: #ffee76;
      }

      .cls-2 {
        fill: #54d9d1;
      }

      .cls-3 {
        fill: #ddbc1b;
      }

      .cls-4 {
        fill: #898d8c;
      }

      .cls-5 {
        letter-spacing: -.02em;
      }

      .cls-6, .cls-7 {
        fill: #403f51;
      }

      .cls-8 {
        fill: #ffc200;
      }

      .cls-9 {
        fill: #d0d2d2;
      }

      .cls-7 {
        font-family: MontserratRoman-ExtraBold, Montserrat;
        font-size: 26px;
        font-variation-settings: 'wght' 800;
        font-weight: 700;
      }
    </style>
  </defs>
  <g id="Capa_1-2" data-name="Capa 1">
    <text class="cls-7" transform="translate(23.55 161.94)"><tspan x="0" y="0">3D </tspan><tspan class="cls-5" x="44.72" y="0">W</tspan><tspan x="74.88" y="0">ORK</tspan></text>
    <g>
      <path class="cls-1" d="M6.43,47.69v14.47l1.32,1.02.64,1.87s4.94,2.64,4.94,3.06.34,4.09.43,4.94.85,3.32.81,3.91,1.24,3.45,2.6,5.98c1.36,2.53,2.55,3.3,3.06,5.68.51,2.38,0,7.66,0,7.66l5.95,2.81s1.71.26,1.62.85.09,6.64-.09,7.15-3.57,1.87-3.57,1.87c0,0,2.72,3.06,2.89,3.32s6.29,4.09,6.29,4.09l107.41-1.36,7.57-8.17-2.13-81.96-6.81-6.21-9.79-6.64-49.8.43s-5.89-4-6.21-4.26-3.64-2.81-5.94-2.68-28.17,2.68-28.17,2.68l-2.26.68-1.57,2.72-4.65,2.89-.37,1.96-3.91,2.55s-1.54,9.53-1.11,10.72c.43,1.19.51,13.87.51,13.87,0,0-5.03,1.87-6.73,1.96s-12.93,2.13-12.93,2.13Z"/>
      <rect class="cls-6" x="68.16" y="1.65" width="7.74" height="7.74"/>
      <rect class="cls-6" x="60.41" y="1.65" width="7.74" height="7.74"/>
      <rect class="cls-6" x="52.67" y="1.65" width="7.74" height="7.74"/>
      <rect class="cls-6" x="44.93" y="1.65" width="7.74" height="7.74"/>
      <rect class="cls-6" x="37.19" y="1.65" width="7.74" height="7.74"/>
      <rect class="cls-6" x="29.44" y="9.39" width="7.74" height="7.74"/>
      <rect class="cls-6" x="21.7" y="17.13" width="7.74" height="7.74"/>
      <rect class="cls-6" x="21.7" y="24.87" width="7.74" height="7.74"/>
      <rect class="cls-6" x="21.7" y="32.62" width="7.74" height="7.74"/>
      <rect class="cls-6" x="75.9" y="9.39" width="7.74" height="7.74"/>
      <rect class="cls-6" x="83.64" y="9.39" width="7.74" height="7.74"/>
      <rect class="cls-6" x="91.39" y="9.39" width="7.74" height="7.74"/>
      <rect class="cls-6" x="99.13" y="9.39" width="7.74" height="7.74"/>
      <rect class="cls-6" x="106.87" y="9.39" width="7.74" height="7.74"/>
      <rect class="cls-6" x="114.61" y="9.39" width="7.74" height="7.74"/>
      <rect class="cls-6" x="122.36" y="9.39" width="7.74" height="7.74"/>
      <rect class="cls-6" x="130.1" y="9.39" width="7.74" height="7.74"/>
      <rect class="cls-6" x="137.84" y="17.13" width="7.74" height="7.74"/>
      <rect class="cls-6" x="145.59" y="24.87" width="7.74" height="7.74"/>
      <rect class="cls-6" x="145.59" y="32.62" width="7.74" height="7.74"/>
      <rect class="cls-6" x="145.59" y="40.36" width="7.74" height="7.74"/>
      <rect class="cls-6" x="145.59" y="48.1" width="7.74" height="7.74"/>
      <rect class="cls-6" x="145.59" y="55.85" width="7.74" height="7.74"/>
      <rect class="cls-6" x="145.59" y="63.59" width="7.74" height="7.74"/>
      <rect class="cls-6" x="145.59" y="71.33" width="7.74" height="7.74"/>
      <rect class="cls-6" x="145.59" y="79.07" width="7.74" height="7.74"/>
      <rect class="cls-6" x="145.59" y="86.82" width="7.74" height="7.74"/>
      <rect class="cls-6" x="145.59" y="94.56" width="7.74" height="7.74"/>
      <rect class="cls-6" x="145.59" y="102.3" width="7.74" height="7.74"/>
      <rect class="cls-6" x="137.84" y="110.05" width="7.74" height="7.74"/>
      <rect class="cls-6" x="130.1" y="110.05" width="7.74" height="7.74"/>
      <rect class="cls-6" x="122.36" y="110.05" width="7.74" height="7.74"/>
      <rect class="cls-6" x="114.61" y="110.05" width="7.74" height="7.74"/>
      <rect class="cls-6" x="106.87" y="110.05" width="7.74" height="7.74"/>
      <rect class="cls-6" x="99.13" y="110.05" width="7.74" height="7.74"/>
      <rect class="cls-6" x="91.39" y="110.05" width="7.74" height="7.74"/>
      <rect class="cls-6" x="83.64" y="110.05" width="7.74" height="7.74"/>
      <rect class="cls-6" x="75.9" y="110.05" width="7.74" height="7.74"/>
      <rect class="cls-6" x="68.16" y="110.05" width="7.74" height="7.74"/>
      <rect class="cls-6" x="60.41" y="110.05" width="7.74" height="7.74"/>
      <rect class="cls-6" x="52.67" y="110.05" width="7.74" height="7.74"/>
      <rect class="cls-6" x="44.93" y="110.05" width="7.74" height="7.74"/>
      <rect class="cls-6" x="37.19" y="110.05" width="7.74" height="7.74"/>
      <rect class="cls-6" x="29.44" y="110.05" width="7.74" height="7.74"/>
      <rect class="cls-6" x="22.29" y="102.3" width="7.74" height="7.74"/>
      <rect class="cls-6" x="22.29" y="94.56" width="7.74" height="7.74"/>
      <rect class="cls-6" x="14.55" y="86.82" width="7.74" height="7.74"/>
      <rect class="cls-6" x="14.55" y="79.07" width="7.74" height="7.74"/>
      <rect class="cls-6" x="7.74" y="71.33" width="7.74" height="7.74"/>
      <rect class="cls-6" x="7.74" y="63.59" width="7.74" height="7.74"/>
      <rect class="cls-6" y="55.85" width="7.74" height="7.74"/>
      <rect class="cls-6" y="48.1" width="7.74" height="7.74"/>
      <rect class="cls-6" x="7.74" y="40.36" width="7.74" height="7.74"/>
      <rect class="cls-6" x="15.49" y="40.36" width="7.74" height="7.74"/>
      <rect class="cls-6" x="23.23" y="40.36" width="7.74" height="7.74"/>
      <rect class="cls-6" x="30.97" y="40.36" width="7.74" height="7.74"/>
      <rect class="cls-6" x="38.71" y="40.36" width="7.74" height="7.74"/>
      <rect class="cls-6" x="46.46" y="40.36" width="7.74" height="7.74"/>
      <rect class="cls-6" x="54.2" y="40.36" width="7.74" height="7.74"/>
      <rect class="cls-6" x="61.94" y="40.36" width="7.74" height="7.74"/>
      <rect class="cls-6" x="69.69" y="40.36" width="7.74" height="7.74"/>
      <rect class="cls-6" x="77.43" y="40.36" width="7.74" height="7.74"/>
      <rect class="cls-6" x="85.17" y="40.36" width="7.74" height="7.74"/>
      <rect class="cls-6" x="92.91" y="40.36" width="7.74" height="7.74"/>
      <rect class="cls-6" x="100.66" y="40.36" width="7.74" height="7.74"/>
      <rect class="cls-6" x="108.4" y="40.36" width="7.74" height="7.74"/>
      <rect class="cls-6" x="116.14" y="40.36" width="7.74" height="7.74"/>
      <rect class="cls-6" x="116.14" y="48.1" width="7.74" height="7.74"/>
      <rect class="cls-6" x="123.89" y="55.85" width="7.74" height="7.74"/>
      <rect class="cls-6" x="123.89" y="63.59" width="7.74" height="7.74"/>
      <rect class="cls-6" x="131.16" y="71.33" width="7.74" height="7.74"/>
      <rect class="cls-6" x="131.16" y="79.07" width="7.74" height="7.74"/>
      <rect class="cls-6" x="138.9" y="86.82" width="7.74" height="7.74"/>
      <rect class="cls-6" x="138.9" y="93.97" width="7.74" height="7.74"/>
    </g>
    <rect class="cls-8" x="131.69" y="55.85" width="7.74" height="15.49"/>
    <rect class="cls-8" x="123.89" y="40.36" width="7.74" height="15.49"/>
    <rect class="cls-8" x="29.44" y="33.13" width="7.74" height="7.23"/>
    <rect class="cls-8" x="138.91" y="55.85" width="6.68" height="30.97"/>
  </g>
  <g id="Capa_4" data-name="Capa 4">
    <g>
      <polygon class="cls-4" points="86.52 4.61 86.52 9.68 82.3 9.68 82.3 12.9 86.52 12.9 86.52 18.31 82.3 18.31 82.3 21.54 86.52 21.54 86.52 25.81 91.92 25.81 91.92 20.4 97.33 20.4 97.33 14.99 102.73 14.99 102.73 20.4 97.33 20.4 97.33 25.81 91.92 25.81 91.92 31.21 86.52 31.21 86.52 31.53 91.28 31.53 91.28 40.52 91.49 40.52 91.49 36.81 114.76 36.81 114.76 28.11 109.36 28.11 109.36 23.5 114.76 23.5 114.76 23.14 109.36 23.14 109.36 18.53 109.36 13.94 103.95 13.94 103.95 9.32 98.55 9.32 98.55 4.71 98.44 4.61 93.03 4.61 86.52 4.61"/>
      <polygon class="cls-4" points="109.9 13.91 109.36 13.48 109.36 13.91 109.9 13.91"/>
      <polygon class="cls-4" points="115.16 23.11 114.76 22.39 114.76 23.11 115.16 23.11"/>
      <polygon class="cls-4" points="104.14 9.32 103.95 9.17 103.95 9.32 104.14 9.32"/>
      <polygon class="cls-4" points="54.18 18.53 46.99 18.53 46.99 23.14 41.59 23.14 41.59 24.28 41.59 28.91 46.99 28.91 46.99 33.13 65.34 33.13 65.34 38.15 41.59 38.15 41.59 40.52 65.7 40.52 65.7 31.53 70.46 31.53 70.46 26.95 70.4 26.95 70.4 31.21 64.99 31.21 64.99 25.81 59.59 25.81 59.59 20.4 54.18 20.4 54.18 18.53"/>
      <path class="cls-4" d="M57.8,9.32v5.67h1.78v5.41h5.4v5.41h4.84v-4.27h4.21v-3.23h-4.21v-5.41h4.21v-3.23h-4.21v-5.06h-11.96l-.08.1v4.61ZM57.92,4.68h5.4v4.62h-5.4v-4.62Z"/>
      <polygon class="cls-6" points="41.59 23.12 41.59 23.11 36.19 23.11 36.19 24.28 38.89 24.28 41.59 23.12"/>
      <polygon class="cls-6" points="41.59 23.14 41.59 23.12 38.89 24.28 41.59 24.28 41.59 23.14"/>
      <polygon class="cls-6" points="44.29 21.96 44.29 18.53 41.59 18.53 41.59 23.11 41.59 23.12 44.29 21.96"/>
      <polygon class="cls-6" points="46.99 23.14 46.99 18.53 44.29 18.53 44.29 21.96 41.59 23.12 41.59 23.14 46.99 23.14"/>
      <polygon class="cls-6" points="44.29 16.22 46.99 13.93 46.99 13.91 41.59 13.91 41.59 18.53 44.29 18.53 44.29 16.22"/>
      <polygon class="cls-6" points="46.99 13.94 46.99 13.93 44.29 16.22 44.29 18.53 46.99 18.53 46.99 13.94"/>
      <polygon class="cls-6" points="49.7 11.63 52.4 9.72 52.4 9.32 46.99 9.32 46.99 13.91 47.01 13.91 49.7 11.63"/>
      <polygon class="cls-6" points="52.4 9.72 49.7 11.63 47.01 13.91 52.4 13.91 52.4 9.72"/>
      <polygon class="cls-6" points="82.3 26.95 78.26 26.95 78.09 26.95 74.05 26.95 70.46 26.95 70.46 31.53 86.52 31.53 86.52 31.21 86.52 26.95 82.3 26.95"/>
      <polygon class="cls-6" points="70.46 31.56 70.46 31.53 65.7 31.53 65.7 40.52 70.46 40.52 70.46 31.56"/>
      <polygon class="cls-6" points="86.52 40.52 91.28 40.52 91.28 31.53 86.52 31.53 86.52 31.56 86.52 40.52"/>
      <polygon class="cls-6" points="55.61 7.46 57.8 4.71 52.4 4.71 52.4 9.3 53 9.3 55.61 7.46"/>
      <polygon class="cls-6" points="53 9.3 57.8 9.3 57.8 4.71 55.61 7.46 53 9.3"/>
      <rect class="cls-6" x="98.44" width=".4" height="4.61"/>
      <rect class="cls-6" x="36.19" y="24.28" width="2.7" height="16.24"/>
      <polygon class="cls-6" points="41.59 38.15 41.59 33.52 41.59 33.13 41.59 28.91 41.59 24.28 38.89 24.28 38.89 40.52 41.59 40.52 41.59 38.15"/>
      <polygon class="cls-2" points="78.09 26.95 78.09 4.61 74.05 4.61 74.05 9.68 74.05 12.9 74.05 18.31 74.05 21.54 74.05 26.95 78.09 26.95"/>
      <rect class="cls-2" x="69.84" y="12.9" width="4.21" height="5.41"/>
      <rect class="cls-2" x="69.84" y="4.61" width="4.21" height="5.06"/>
      <polygon class="cls-2" points="70.4 26.95 70.46 26.95 74.05 26.95 74.05 21.54 69.84 21.54 69.84 25.81 70.4 25.81 70.4 26.95"/>
      <polygon class="cls-3" points="78.26 4.61 78.26 26.95 82.3 26.95 82.3 21.54 82.3 18.31 82.3 12.9 82.3 9.68 82.3 4.61 78.26 4.61"/>
      <rect class="cls-3" x="78.09" y="4.61" width=".18" height="22.33"/>
      <rect class="cls-3" x="82.3" y="12.9" width="4.21" height="5.41"/>
      <rect class="cls-3" x="82.3" y="4.61" width="4.21" height="5.06"/>
      <polygon class="cls-3" points="86.52 26.95 86.52 25.81 86.52 21.54 82.3 21.54 82.3 26.95 86.52 26.95"/>
      <polygon class="cls-2" points="70.4 31.21 70.4 26.95 69.84 26.95 69.84 25.81 64.99 25.81 64.99 31.21 70.4 31.21"/>
      <rect class="cls-2" x="69.84" y="25.81" width=".56" height="1.14"/>
      <polygon class="cls-3" points="86.52 31.21 91.92 31.21 91.92 25.81 86.52 25.81 86.52 26.95 86.52 31.21"/>
      <rect class="cls-3" x="91.92" y="20.4" width="5.4" height="5.41"/>
      <rect class="cls-3" x="97.33" y="14.99" width="5.4" height="5.41"/>
      <rect class="cls-2" x="59.59" y="20.4" width="5.4" height="5.41"/>
      <polygon class="cls-2" points="54.18 18.53 54.18 20.4 59.59 20.4 59.59 14.99 57.8 14.99 54.18 14.99 54.18 18.53"/>
      <polygon class="cls-6" points="120.17 24.28 120.17 23.11 115.16 23.11 115.8 24.28 120.17 24.28"/>
      <polygon class="cls-6" points="114.76 23.14 114.76 23.5 114.76 24.28 115.8 24.28 115.16 23.11 114.76 23.11 114.76 23.14"/>
      <polygon class="cls-6" points="114.74 22.35 114.76 22.39 114.76 18.53 112.74 18.53 114.74 22.35"/>
      <polygon class="cls-6" points="112.74 18.53 109.36 18.53 109.36 23.14 114.76 23.14 114.76 23.11 114.76 22.39 114.74 22.35 112.74 18.53"/>
      <polygon class="cls-6" points="112.74 18.53 114.76 18.53 114.76 13.91 109.9 13.91 110.65 14.51 112.74 18.53"/>
      <polygon class="cls-6" points="109.36 13.94 109.36 18.53 112.74 18.53 110.65 14.51 109.9 13.91 109.36 13.91 109.36 13.94"/>
      <polygon class="cls-6" points="109.36 9.32 104.14 9.32 109.36 13.48 109.36 9.32"/>
      <polygon class="cls-6" points="103.95 13.94 109.36 13.94 109.36 13.91 109.36 13.48 104.14 9.32 103.95 9.32 103.95 13.94"/>
      <polygon class="cls-9" points="114.76 23.5 109.36 23.5 109.36 28.11 114.76 28.11 114.76 24.28 114.76 23.5"/>
      <rect class="cls-9" x="41.59" y="28.91" width="5.4" height="4.22"/>
      <polygon class="cls-9" points="54.18 14.99 52.4 14.99 52.4 13.94 46.99 13.94 46.99 18.53 54.18 18.53 54.18 14.99"/>
      <polygon class="cls-9" points="47.01 13.91 46.99 13.91 46.99 13.93 47.01 13.91"/>
      <polygon class="cls-9" points="52.4 13.94 52.4 13.91 47.01 13.91 46.99 13.93 46.99 13.94 52.4 13.94"/>
      <polygon class="cls-9" points="52.96 9.32 52.4 9.32 52.4 9.72 52.96 9.32"/>
      <polygon class="cls-9" points="54.18 13.91 54.18 14.99 57.8 14.99 57.8 9.32 52.96 9.32 52.4 9.72 52.4 13.91 54.18 13.91"/>
      <polygon class="cls-9" points="53 9.3 52.4 9.3 52.4 9.32 52.96 9.32 53 9.3"/>
      <polygon class="cls-9" points="57.8 9.3 53 9.3 52.96 9.32 57.8 9.32 57.8 9.3"/>
      <polygon class="cls-9" points="54.18 14.99 54.18 13.91 52.4 13.91 52.4 13.94 52.4 14.99 54.18 14.99"/>
      <rect class="cls-9" x="57.92" y="4.68" width="5.4" height="4.62"/>
      <polygon class="cls-6" points="103.95 9.17 103.95 4.71 98.55 4.71 101.25 7.02 103.95 9.17"/>
      <polygon class="cls-6" points="103.95 9.32 103.95 9.17 101.25 7.02 98.55 4.71 98.55 9.32 103.95 9.32"/>
      <polygon class="cls-6" points="95.73 2.31 98.44 4.61 98.44 0 93.03 0 93.03 2.77 95.73 2.31"/>
      <polygon class="cls-6" points="95.73 2.31 93.03 2.77 93.03 3.02 95.73 2.31"/>
      <polygon class="cls-6" points="93.03 3.02 93.03 4.61 98.44 4.61 95.73 2.31 93.03 3.02"/>
      <polygon class="cls-6" points="57.92 0 57.52 0 57.52 4.61 57.88 4.61 57.92 4.57 57.92 0"/>
      <polygon class="cls-6" points="57.92 4.57 57.88 4.61 57.92 4.61 57.92 4.57"/>
      <polygon class="cls-6" points="59.34 2.79 63.32 2.88 63.32 0 57.92 0 57.92 4.57 59.34 2.79"/>
      <polygon class="cls-6" points="59.34 2.79 57.92 4.57 57.92 4.61 63.32 4.61 63.32 2.88 59.34 2.79"/>
      <polygon class="cls-6" points="88.9 3.48 93.03 2.77 93.03 0 63.32 0 63.32 2.88 88.9 3.48"/>
      <polygon class="cls-6" points="74.05 4.27 78.09 4.27 78.26 4.27 82.3 4.27 86.52 4.27 86.52 4.61 93.03 4.61 93.03 3.02 91.28 3.48 93.03 3.02 93.03 2.77 88.9 3.48 63.32 2.88 63.32 4.61 69.84 4.61 69.84 4.27 74.05 4.27"/>
      <rect class="cls-6" x="74.05" y="4.27" width="4.04" height=".34"/>
      <rect class="cls-6" x="69.84" y="4.27" width="4.21" height=".34"/>
      <rect class="cls-6" x="78.26" y="4.27" width="4.04" height=".34"/>
      <rect class="cls-6" x="78.09" y="4.27" width=".18" height=".34"/>
      <rect class="cls-6" x="82.3" y="4.27" width="4.21" height=".34"/>
      <polygon class="cls-6" points="118.75 29.64 118.12 40.52 120.17 40.52 120.17 24.28 115.8 24.28 118.75 29.64"/>
      <polygon class="cls-6" points="115.24 40.52 118.12 40.52 118.75 29.64 115.8 24.28 114.76 24.28 114.76 28.11 114.76 36.81 115.24 36.81 115.24 40.52"/>
      <polygon class="cls-9" points="65.34 33.13 46.99 33.13 46.99 33.52 41.59 33.52 41.59 38.15 65.34 38.15 65.34 33.13"/>
      <rect class="cls-9" x="41.59" y="33.13" width="5.4" height=".39"/>
      <rect class="cls-9" x="91.49" y="36.81" width="23.27" height="3.72"/>
      <rect class="cls-9" x="114.76" y="36.81" width=".48" height="3.72"/>
      <rect class="cls-9" x="70.46" y="31.56" width="16.06" height="8.96"/>
      <rect class="cls-9" x="70.46" y="31.53" width="16.06" height=".03"/>
      <rect class="cls-9" x="91.49" y="40.52" width="23.27" height="1.3"/>
      <rect class="cls-9" x="114.76" y="40.52" width=".48" height="1.3"/>
      <rect class="cls-8" x="73.56" y="34.64" width="10.09" height="5.88"/>
    </g>
  </g>
</svg>