<?xml version="1.0" encoding="UTF-8"?>
<svg id="Capa_1" data-name="Capa 1" xmlns="http://www.w3.org/2000/svg" xmlns:xlink="http://www.w3.org/1999/xlink" viewBox="0 0 166.98 45.57">
  <defs>
    <style>
      .cls-1 {
        fill: #275889;
      }

      .cls-2 {
        stroke: #97e63e;
      }

      .cls-2, .cls-3, .cls-4 {
        fill: none;
      }

      .cls-2, .cls-4 {
        stroke-miterlimit: 10;
        stroke-width: 2px;
      }

      .cls-5 {
        fill: #97e63e;
      }

      .cls-6 {
        fill: #fff;
      }

      .cls-7 {
        fill: #ec7809;
      }

      .cls-8 {
        fill: #9898fd;
      }

      .cls-9 {
        fill: #98e63e;
      }

      .cls-10 {
        clip-path: url(#clippath);
      }

      .cls-4 {
        stroke: #9898fd;
      }
    </style>
    <clipPath id="clippath">
      <rect class="cls-3" x="1.14" y="2.37" width="52.32" height="40.34"/>
    </clipPath>
  </defs>
  <g>
    <g>
      <path class="cls-9" d="M74.72,12.39c.08-.06.15-.17.23-.16,2.87.04,5.76-.15,8.59.21,3.22.41,5.22,2.87,5.34,5.84.14,3.62-1.44,5.91-4.81,6.89-.81.24-1.66.37-2.49.48-.86.12-1.73.17-2.71.26v5.87c-1.19.08-2.28.17-3.38.2-.25,0-.51-.24-.76-.37V12.39h-.01ZM78.92,22.14c1.37-.17,2.71-.21,3.97-.53,1.39-.36,1.92-1.36,1.9-2.92-.02-1.36-.66-2.35-2.01-2.65-1.24-.27-2.54-.28-3.86-.4v6.51h0Z"/>
      <path class="cls-5" d="M92.97,20.36c-.67.07-1.21.12-1.89.19v-3.64h1.84c.09-.91.26-1.77.24-2.63-.02-1,.38-1.41,1.36-1.45.88-.04,1.75-.18,2.7-.28v4.31h2.85v3.52c-.98.09-1.93.19-2.93.28,0,2.02-.03,4.15,0,6.27.03,1.39.48,1.75,1.9,1.75h.96c0,.89.03,1.7-.02,2.5,0,.2-.27.53-.44.55-1.34.1-2.74.4-4.02.15-1.7-.34-2.5-1.66-2.54-3.49-.05-2.25-.02-4.51-.02-6.77v-1.26Z"/>
    </g>
    <rect class="cls-2" x="65.61" y="1" width="43.57" height="43.57"/>
  </g>
  <g>
    <rect class="cls-4" x="122.34" y="1" width="43.57" height="43.57"/>
    <g>
      <path class="cls-8" d="M141.87,32.49c-.08-.02-.21-.15-.24-.24l-1.53-4.47h-7.13s-1.44,4.47-1.44,4.47c-.01.07-.21.3-.24.3h-3.88s-.07-.07-.08-.1c-.05-.17.27-1.01.35-1.25,1.91-5.76,4.09-11.43,5.99-17.19l.17-1.47h5.1s.2.09.2.09l6.96,19.4c.06.09.07.47-.05.47h-4.18ZM134.13,23.95h4.78l-2.42-7.95-2.36,7.95Z"/>
      <path class="cls-8" d="M159.65,31.81c-.07.46-.7.59-1.09.7-2.16.64-5.29.71-7.38-.18-6.59-2.82-5.09-14.73,2.4-15.19,5.14-.32,7.6,2.88,7.33,7.8-.01.2-.06.8-.14.94-.05.09-.09.15-.2.16l-1.74.11c-2.49-.23-5-.06-7.49-.11.07.56.24,1.11.53,1.59,1.37,2.35,5.4,1.88,7.57,1.1.06-.03.2.04.2.09v2.99ZM151.34,23.23h5.29s.24-.09.26-.16c.1-1.41-1.02-2.58-2.41-2.65-1.79-.1-2.92,1.11-3.14,2.81Z"/>
    </g>
  </g>
  <g class="cls-10">
    <g>
      <path class="cls-7" d="M34.38,35.18c4.21.02,7.27-1.2,9.47-3.51,1.94-2.03,2.79-4.44,2.43-7.16-.28-2.17-1.32-3.99-3-5.47-2.76-2.42-6.05-3.29-9.72-2.81-2.8.36-5.18,1.54-7.03,3.59-1.75,1.93-2.53,4.19-2.28,6.73.24,2.38,1.4,4.33,3.26,5.91,2.2,1.87,4.81,2.7,6.87,2.73M17.28,26.66c-.5.39-.97.75-1.42,1.11-2.9,2.26-5.78,4.5-8.68,6.76-.82.64-1.74,1.04-2.81,1.12-2.33.15-3.81-1.71-3-3.81.33-.84.89-1.5,1.63-2.04,3.14-2.27,6.26-4.55,9.39-6.82,3.05-2.21,6.09-4.43,9.14-6.64.08-.05.14-.11.26-.22h-.37c-3.3,0-6.59,0-9.89.01-.53,0-1.06-.05-1.55-.26-1.22-.51-1.68-1.68-1.06-2.8.55-1.02,1.5-1.56,2.64-1.79.51-.1,1.05-.1,1.58-.1,6.57,0,13.13-.01,19.7-.02h.26s.04-.04.07-.07c-.07-.03-.13-.05-.18-.1-2.15-1.65-4.29-3.31-6.44-4.96-.6-.46-1-1-.86-1.77.13-.66.59-1.1,1.17-1.42,1.17-.65,2.88-.6,3.99.23,5.33,3.92,10.68,7.8,16.03,11.71,2.8,2.04,4.86,4.58,5.87,7.81,1.6,5.09.53,9.72-2.98,13.82-2.8,3.27-6.49,5.19-10.82,5.97-4.34.78-8.53.28-12.49-1.62-4.06-1.95-6.99-4.91-8.54-9.01-.5-1.32-.79-2.69-.72-4.1.01-.3.05-.61.1-.99"/>
      <path class="cls-6" d="M34.79,31.27c2.12,0,3.6-.43,4.88-1.3,3.26-2.2,3.61-6.34.78-8.96-2.73-2.53-7.45-2.56-10.22-.07-2.42,2.17-2.68,5.45-.59,7.87,1.45,1.68,3.4,2.42,5.16,2.46M34.39,35.17c-2.05-.02-4.67-.87-6.87-2.73-1.86-1.57-3.02-3.54-3.26-5.91-.26-2.54.53-4.8,2.28-6.72,1.86-2.05,4.22-3.23,7.03-3.59,3.68-.47,6.97.4,9.72,2.81,1.68,1.48,2.71,3.3,3,5.47.35,2.73-.49,5.13-2.43,7.16-2.2,2.3-5.26,3.53-9.47,3.51"/>
      <path class="cls-1" d="M34.79,31.27c-1.76-.04-3.7-.78-5.16-2.46-2.09-2.42-1.83-5.7.59-7.87,2.78-2.5,7.49-2.46,10.22.07,2.83,2.63,2.47,6.76-.78,8.96-1.27.86-2.76,1.3-4.88,1.3"/>
    </g>
  </g>
</svg>