<?xml version="1.0" encoding="UTF-8"?>
<svg id="Capa_2" data-name="Capa 2" xmlns="http://www.w3.org/2000/svg" viewBox="0 0 289.54 165.87">
  <defs>
    <style>
      .cls-1 {
        fill: #fff;
      }

      .cls-2 {
        fill: #5862f7;
      }

      .cls-3 {
        fill: #403f51;
      }
    </style>
  </defs>
  <g id="Capa_1-2" data-name="Capa 1">
    <g>
      <path class="cls-1" d="M117.64,14.64v4.88s0,4.88,0,4.88v4.88s0,4.88,0,4.88v4.88s0,4.88,0,4.88v4.88s4.88,0,4.88,0v29.28s4.88,0,4.88,0v9.76s4.88,0,4.88,0v9.76s4.88,0,4.88,0h43.93s0-4.88,0-4.88v-4.88h4.88s0-9.76,0-9.76h4.88s0-9.76,0-9.76h4.88s0-9.76,0-9.76h4.88s0-4.88,0-4.88h4.88s0-9.76,0-9.76v-4.88s-14.64,0-14.64,0v4.88h-4.88v-4.88s0-4.88,0-4.88h4.88s0-4.88,0-4.88v-4.88s0-4.88,0-4.88h4.88s0-4.88,0-4.88v-4.88s0-4.88,0-4.88h-4.88V0s-9.76,0-9.76,0v4.88h-4.88s0,4.88,0,4.88v4.88s0,4.88,0,4.88h-4.88s0,4.88,0,4.88v4.88s0,4.88,0,4.88h-4.88v-4.88s0-4.88,0-4.88v-4.88s0-4.88,0-4.88v-4.88s0-4.88,0-4.88h-4.88V0s-9.76,0-9.76,0v4.88h-4.88s-4.88,0-4.88,0h-4.88s0,4.88,0,4.88h-4.88s-9.76,0-9.76,0v4.88h-4.88Z"/>
      <g>
        <rect class="cls-3" x="181.09" y="0" width="9.76" height="4.88"/>
        <rect class="cls-3" x="151.8" y="0" width="9.76" height="4.88"/>
        <polygon class="cls-3" points="151.8 24.4 151.8 29.28 151.8 43.93 146.92 43.93 146.92 29.28 146.92 24.4 146.92 9.76 142.04 9.76 137.16 9.76 137.16 4.88 142.04 4.88 146.92 4.88 151.8 4.88 151.8 9.76 151.8 24.4"/>
        <polygon class="cls-3" points="137.16 28.15 137.16 29.28 137.16 34.17 137.16 39.05 137.16 43.93 132.28 43.93 132.28 39.05 132.28 34.17 132.28 29.28 132.28 28.15 132.28 14.64 122.52 14.64 122.52 9.76 132.28 9.76 137.16 9.76 137.16 14.64 137.16 28.15"/>
        <polygon class="cls-3" points="122.52 14.64 122.52 19.52 122.52 24.4 122.52 29.28 122.52 34.17 122.52 39.05 122.52 43.93 122.52 48.81 117.64 48.81 117.64 43.93 117.64 39.05 117.64 34.17 117.64 29.28 117.64 24.4 117.64 19.52 117.64 14.64 122.52 14.64"/>
        <polygon class="cls-3" points="127.4 73.21 132.28 73.21 132.28 82.97 137.16 82.97 137.16 92.73 176.21 92.73 176.21 82.97 181.09 82.97 181.09 78.09 185.97 78.09 185.97 87.85 181.09 87.85 181.09 92.73 181.09 97.62 137.16 97.62 132.28 97.62 132.28 87.85 127.4 87.85 127.4 78.09 122.52 78.09 122.52 48.81 127.4 48.81 127.4 73.21"/>
        <polygon class="cls-3" points="185.97 48.81 185.97 53.69 185.97 58.57 181.09 58.57 181.09 53.69 181.09 48.81 181.09 43.93 181.09 39.05 181.09 34.17 185.97 34.17 185.97 39.05 185.97 43.93 190.85 43.93 190.85 48.81 185.97 48.81"/>
        <polygon class="cls-3" points="185.97 24.4 185.97 19.52 190.85 19.52 190.85 24.4 190.85 29.28 190.85 34.17 185.97 34.17 185.97 29.28 185.97 24.4"/>
        <polygon class="cls-3" points="190.85 9.76 190.85 4.88 195.73 4.88 195.73 9.76 195.73 14.64 195.73 19.52 190.85 19.52 190.85 14.64 190.85 9.76"/>
        <polygon class="cls-3" points="171.33 43.93 166.45 43.93 166.45 39.05 166.45 34.17 171.33 34.17 171.33 39.05 171.33 43.93"/>
        <polygon class="cls-3" points="176.21 29.28 176.21 34.17 171.33 34.17 171.33 29.28 171.33 24.4 171.33 19.52 176.21 19.52 176.21 24.4 176.21 29.28"/>
        <polygon class="cls-3" points="181.09 14.64 181.09 19.52 176.21 19.52 176.21 14.64 176.21 9.76 176.21 4.88 181.09 4.88 181.09 9.76 181.09 14.64"/>
        <polygon class="cls-3" points="161.57 29.28 161.57 24.4 161.57 19.52 161.57 14.64 161.57 9.76 161.57 4.88 166.45 4.88 166.45 9.76 166.45 14.64 166.45 19.52 166.45 24.4 166.45 29.28 166.45 34.17 161.57 34.17 161.57 29.28"/>
        <polygon class="cls-3" points="190.85 43.93 190.85 39.05 205.49 39.05 205.49 43.93 205.49 53.69 200.61 53.69 200.61 43.93 190.85 43.93"/>
        <rect class="cls-3" x="195.73" y="53.69" width="4.88" height="4.88"/>
        <rect class="cls-3" x="190.85" y="58.57" width="4.88" height="9.76"/>
        <rect class="cls-3" x="185.97" y="68.33" width="4.88" height="9.76"/>
      </g>
    </g>
    <g>
      <path class="cls-3" d="M1.48,20.18h12.7v22.97c3.48-3.74,8-5.74,13.49-5.74,10.18,0,16.97,6.7,16.97,16.88v12.7c0,2.26,1.31,3.57,3.57,3.57h.87v12.27h-3.57c-8.96,0-13.57-4.44-13.57-13.05v-11.22c0-5.39-3.39-8.88-8.53-8.88-5.48,0-9.22,3.57-9.22,9.05v24.1H1.48V20.18Z"/>
      <path class="cls-3" d="M53.68,25.14c0-4.44,3.39-7.74,7.83-7.74s7.92,3.31,7.92,7.74-3.39,7.83-7.92,7.83-7.83-3.31-7.83-7.83ZM55.16,38.46h12.7v44.37h-12.7v-44.37Z"/>
      <path class="cls-3" d="M76.82,75.35c0-4.7,3.65-8.27,8.44-8.27s8.35,3.57,8.35,8.27-3.57,8.35-8.35,8.35-8.44-3.57-8.44-8.35ZM78.56,37.59v-14.79h13.4v14.79l-.78,25.23h-11.83l-.78-25.23Z"/>
      <path class="cls-2" d="M0,107.14c0-4.44,3.39-7.74,7.83-7.74s7.92,3.31,7.92,7.74-3.39,7.83-7.92,7.83-7.83-3.31-7.83-7.83ZM1.48,120.46h12.7v44.37H1.48v-44.37Z"/>
      <path class="cls-2" d="M23.4,124.98c2.61-.61,4.52-2.09,5.74-4.79-3.74-.87-6.35-4.09-6.35-8.09,0-4.7,3.48-8.35,8.44-8.35,4.44,0,8.35,2.87,8.35,9.75,0,10.61-7.92,19.58-16.18,20.71v-9.22Z"/>
      <path class="cls-2" d="M44.54,120.46h12.7v4.18c3.31-3.48,7.57-5.22,12.62-5.22,6.18,0,11.05,2.7,13.75,7.22,3.57-4.7,8.61-7.22,14.96-7.22,9.66,0,16.1,6.53,16.1,16.44v13.14c0,2.26,1.3,3.57,3.57,3.57h.87v12.27h-3.57c-8.96,0-13.57-4.44-13.57-13.05v-12.09c0-4.79-3.04-8-7.66-8-4.96,0-8.35,3.31-8.35,8.18v24.97h-12.7v-25.14c0-4.79-3.04-8-7.66-8-4.96,0-8.35,3.31-8.35,8.18v24.97h-12.7v-44.37Z"/>
      <path class="cls-2" d="M141.29,142.64c0-13.22,10.27-23.23,23.93-23.23s23.93,9.92,23.93,23.4c0,1.13-.09,2.87-.35,3.92h-33.93c1.39,5.05,5.39,8.27,10.7,8.27,4.18,0,7.66-1.83,9.31-4.18h13.57c-3.31,8.96-12.18,15.05-23.14,15.05-13.75,0-24.01-10.01-24.01-23.23ZM154.95,138.29h20.62c-1.39-4.87-5.31-8-10.35-8s-8.87,3.13-10.27,8Z"/>
      <path class="cls-2" d="M189.13,120.46h14.53l10.27,28.36,4.35-11.66c2.35-6.79,3.48-12.18,2.52-16.71h13.05c.96,5.05-.09,11.49-3.31,19.32l-10.27,25.06h-13.05l-18.1-44.37Z"/>
      <path class="cls-2" d="M237.59,142.64c0-13.22,9.22-23.23,21.4-23.23,5.39,0,10.01,2,13.4,5.48v-4.44h12.7v28.54c0,2.26,1.3,3.57,3.57,3.57h.87v12.27h-3.57c-6.09,0-10.09-2-12.09-6-3.57,4.35-8.7,7.05-14.88,7.05-12.18,0-21.4-10.01-21.4-23.23ZM272.39,142.64c0-6.26-4.61-10.96-10.88-10.96s-10.79,4.7-10.79,10.96,4.61,10.96,10.79,10.96,10.88-4.7,10.88-10.96Z"/>
    </g>
  </g>
</svg>